<svg width="154" height="154" viewBox="0 0 154 154" fill="none" xmlns="http://www.w3.org/2000/svg">
<g clip-path="url(#clip0_3_47)">
<path d="M23.8746 94.7305C20.8561 94.5144 18.5105 94.0761 15.7104 93.2044C8.43 90.9386 2.96976 87.0304 0.910178 82.6113C-0.0954724 80.4544 -0.0399186 82.5302 -0.00151511 48.4948L0.195756 16.1761C0.447096 14.0344 0.976969 12.6388 2.38012 10.4262C4.9082 6.44166 9.04498 3.64597 15.1501 1.79573C18.5838 0.755103 21.8651 0.231544 25.8765 0.0839373C27.2632 0.0333626 49.8899 0.0249337 79.4282 0.0651447C135.963 0.14225 131.291 0.0839373 134.828 0.75882C136.455 1.0692 139.463 1.94416 141.301 2.64164C147.756 5.09059 152.431 9.07517 153.825 13.3168C154.099 14.1501 154.113 15.8008 154.113 46.8587L153.827 80.641C152.913 84.2106 150.208 87.32 145.481 90.2332C141.78 92.5145 138.364 93.771 133.828 94.5188L132.18 94.7906L78.6278 94.804C49.1743 94.8116 24.535 94.7778 23.8746 94.7305ZM46.2224 85.0011C48.5314 84.5186 51.3863 83.3337 53.7186 81.8895C55.5508 80.7552 56.9879 79.5248 57.9878 78.2356C59.1516 76.735 59.4363 76.0112 59.5327 74.3074C59.6728 71.8259 59.0877 69.7576 57.7637 68.0467C56.1719 65.9906 54.0816 64.4764 44.528 58.4578C34.2281 51.9692 31.2638 50.0298 29.0349 48.3215C28.3657 47.8091 28.1848 47.6004 28.2569 47.4294C28.6003 46.6207 32.1207 44.3994 41.0973 39.3255C50.5457 33.9853 53.5206 32.0752 56.7728 29.2613C58.8002 27.5076 60.2515 25.4593 60.7686 23.6227C61.0867 22.4949 61.0878 20.3757 60.7686 19.2374C60.0897 16.794 57.9853 14.3549 55.2116 12.7996C51.2709 10.5904 47.4042 9.57157 41.8777 9.28684C39.5077 9.16482 29.7957 9.2393 27.3931 9.39807C22.0224 9.75304 17.0315 12.0693 15.7634 14.7957C15.5106 15.3388 15.4863 17.0094 15.434 37.3413L15.5218 69.6104C15.6776 81.0977 15.6004 80.3621 16.8125 81.5258C17.6416 82.3191 19.3888 83.4563 20.6099 83.9959C21.831 84.5355 23.0006 84.8713 24.5345 85.1235C25.6552 85.3077 26.2235 85.3166 35.323 85.2948L44.9288 85.2717L46.2224 85.0011ZM128.277 85.1505C127.671 84.4537 123.26 81.6172 112.59 75.0626C100.423 67.5882 68.7878 47.5763 68.7337 47.3192C68.5905 46.6434 74.2059 43.0009 81.3493 39.1347C85.4191 36.9321 91.2886 33.4423 94.8605 31.1017C101.961 26.4484 103.767 24.8158 104.408 22.4712C104.721 21.3293 104.69 18.704 104.356 17.8759C103.985 16.9579 103.364 16.0201 102.577 15.1846C101.714 14.2699 98.5255 12.2783 96.7999 11.577C94.368 10.5886 91.3957 9.80615 88.635 9.42731C87.2939 9.24335 77.798 9.12607 74.6958 9.25518L72.7639 9.33574L72.898 9.65481C72.9765 9.83031 73.7799 10.6618 74.6938 11.5029C75.6078 12.3439 76.6421 13.4051 76.9921 13.861C78.8463 16.2779 79.7094 19.2899 79.5404 22.7525C79.4033 25.5617 78.7451 27.2135 76.7856 29.669C74.061 33.0832 70.397 35.7266 62.2991 40.1219C57.5756 42.6854 53.7807 45.0189 52.016 46.4446L50.7782 47.4444L60.1008 53.5112L73.8165 62.5642C77.6557 65.4072 79.5698 67.9449 80.3114 71.1751C80.6625 72.7018 80.625 75.6152 80.2328 77.0115C79.6385 79.1543 78.3507 81.026 75.9604 83.2212C75.205 83.9142 74.4089 84.671 74.1895 84.9027L73.7905 85.3241H101.108L128.274 85.1506L128.277 85.1505ZM139.084 50.7252L138.432 17.5639C137.109 12.1846 133.556 9.92833 125.569 9.39587C123.687 9.27041 113.849 9.24515 113.849 9.36561C113.849 9.54688 114.944 10.4923 116.407 11.5735C118.203 12.9007 119.034 13.6327 119.773 14.54C121.42 16.5606 121.911 18.7674 121.553 22.5205C121.225 25.9455 120.572 27.4423 118.503 29.5077C115.573 32.4334 111.726 34.9495 101.357 40.7219C95.2355 44.1296 91.1593 46.7712 91.3082 47.2337C91.3262 47.3137 102.089 54.0851 115.209 62.2806L139.064 77.1816L139.116 76.7172C139.151 76.4617 139.132 64.7652 139.081 50.725L139.084 50.7252Z" fill="#00529C"/>
<path d="M45.4354 107.939C44.5311 107.939 43.6427 107.977 42.7654 108.038H48.1062C47.2288 107.977 46.3396 107.939 45.4354 107.939Z" fill="#00529C"/>
<path d="M34.4775 131.59C38.69 131.59 41.8129 132.262 43.8454 133.604C45.7553 134.924 46.7189 136.483 46.7189 138.287C46.7189 140.145 45.6262 141.733 43.444 143.052C41.2594 144.371 37.6693 145.031 32.669 145.031H30.7988H15.706V131.59H34.4775ZM36.8925 111.956C38.0185 112.221 38.9592 112.564 39.6932 112.997C41.5983 114.122 42.5508 115.466 42.5508 117.029C42.5508 118.447 42.1526 119.62 41.3599 120.548C40.5658 121.476 39.7724 122.186 38.9798 122.673H15.706V111.348H30.1732C32.8852 111.348 35.1181 111.553 36.8925 111.956ZM51.6939 125.481C52.2505 125.138 52.9085 124.696 53.6671 124.156C54.4233 123.616 55.1414 122.978 55.8192 122.242C56.4954 121.506 57.0742 120.685 57.5533 119.776C58.0308 118.868 58.2707 117.899 58.2707 116.868C58.2707 114.857 57.7124 112.98 56.5968 111.238C55.4795 109.496 53.766 107.974 51.4555 106.674C49.1427 105.374 46.2541 104.355 42.7868 103.619C39.3194 102.883 35.2733 102.515 30.6515 102.515H30.5256H17.2382H13.7772H0.162781V111.898V144.381V154.04H33.6406C38.5015 154.04 42.7456 153.636 46.3737 152.826C50.0002 152.016 53.0091 150.901 55.4011 149.477C57.7916 148.054 59.5653 146.398 60.7221 144.508C61.8758 142.62 62.4546 140.596 62.4546 138.435C62.4546 135.541 61.3793 132.964 59.2272 130.707C57.0742 128.45 54.5642 126.708 51.6939 125.481Z" fill="#00529C"/>
<path d="M100.981 111.348C101.978 111.348 102.917 111.387 103.813 111.458C106.64 111.72 108.946 112.341 110.724 113.328C113.144 114.672 114.357 116.321 114.357 118.275C114.357 119.253 114.097 120.206 113.582 121.134C113.065 122.063 112.252 122.882 111.141 123.589C110.028 124.298 108.6 124.872 106.855 125.312C105.107 125.752 103.004 125.972 100.544 125.972H83.7649V111.348H100.981ZM119.215 131.848C121.725 130.793 123.818 129.565 125.492 128.167C127.166 126.769 128.401 125.223 129.198 123.53C129.994 121.837 130.394 120.107 130.394 118.341C130.394 116.035 129.775 113.913 128.541 111.973C127.304 110.036 125.451 108.367 122.981 106.968C120.51 105.569 117.422 104.478 113.715 103.693C110.009 102.909 105.723 102.515 100.862 102.515H100.425H68.2216H67.9191V154.04H83.7649V134.902H92.6007L114.452 154.04H133.024L110.427 134.24C113.775 133.701 116.703 132.904 119.215 131.848Z" fill="#00529C"/>
<path d="M138.619 102.515V102.529C138.459 102.527 138.303 102.515 138.141 102.515H138.008V102.519V121.405V134.938V154.04H154.163V102.515H138.619Z" fill="#00529C"/>
</g>
<defs>
<clipPath id="clip0_3_47">
<rect width="154" height="154" fill="white"/>
</clipPath>
</defs>
</svg>
