<svg width="302" height="302" viewBox="0 0 302 302" fill="none" xmlns="http://www.w3.org/2000/svg">
<path fill-rule="evenodd" clip-rule="evenodd" d="M44.0582 162.825V182.994C44.0582 184.303 45.374 184.817 46.6386 184.628C48.5972 184.336 49.7837 182.089 51.3001 180.686C52.0019 180.037 52.6948 179.084 53.3721 178.407L60.5907 170.543C60.7866 170.331 60.9553 170.208 61.1436 169.988C61.331 169.769 61.4596 169.589 61.6547 169.385L64.711 166.057C64.9294 165.829 65.0675 165.729 65.2621 165.5C65.4461 165.283 65.5781 165.096 65.7747 164.899L69.8938 160.414C70.8828 159.467 73.1195 156.772 74.0157 155.929C74.8619 155.133 77.4638 152.047 78.1741 151.391C79.0945 150.541 81.2778 147.908 82.3063 146.918C83.1631 146.093 85.613 143.177 86.4193 142.425C87.0934 141.797 87.7367 140.88 88.4569 140.206C88.8468 139.841 89.0364 139.512 89.4766 139.098C90.6466 137.999 93.3667 134.697 94.7072 133.41C95.5003 132.648 98.0816 129.594 98.8172 128.913L104.995 122.228C106.312 120.707 108.769 118.863 108.3 116.858C108.061 115.834 107.004 115.045 105.716 115.045L87.5756 115.045C87.3389 115.105 82.0162 120.986 81.4135 121.693L67.7876 136.567C67.5141 136.897 67.3974 137.002 67.0734 137.331L61.6543 143.297C61.4301 143.563 61.1984 143.743 60.9748 144.003C60.709 144.313 60.5833 144.499 60.2771 144.787L58.9442 146.23C58.6868 146.541 58.6034 146.651 58.2826 146.956L53.5193 152.188C53.1912 152.505 53.1001 152.61 52.8519 152.909L47.3564 158.885C47.098 159.145 46.9296 159.414 46.6722 159.685C46.3953 159.977 46.2382 160.106 45.9969 160.397L44.6339 161.903C44.3155 162.212 44.0582 162.321 44.0582 162.825Z" fill="#F37D31"/>
<path fill-rule="evenodd" clip-rule="evenodd" d="M168.067 143.988C172.053 143.568 175.162 146.571 175.651 149.996C176.242 154.136 173.356 157.34 169.927 157.892C165.7 158.573 162.782 155.695 162.378 151.964C161.928 147.803 164.417 144.372 168.067 143.988ZM175.064 140.276L172.6 137.969C171.722 137.319 170.514 136.699 169.15 136.521C166.376 136.158 163.188 137.111 161.219 138.278C151.997 143.746 151.997 158.252 161.161 163.746C163.098 164.907 166.272 165.944 169.06 165.556C172.204 165.117 174.25 162.258 175.113 161.723C175.297 162.354 176.071 164.361 176.383 164.718C176.937 165.353 179.256 165.1 180.313 165.1C184.121 165.1 183.612 165.057 183.612 159.864C183.612 158.502 183.715 130.494 183.574 129.858C183.241 128.349 181.483 128.51 180.591 128.511C174.277 128.512 175.084 127.429 175.084 135.994C175.084 137.256 175.191 139.083 175.064 140.276ZM136.813 143.244C138.331 143.245 139.55 143.69 140.463 144.464C141.082 144.99 142.256 146.253 142.631 147.276L131.379 147.268C131.743 146.357 132.743 145.129 133.405 144.614C134.274 143.939 135.276 143.243 136.813 143.244ZM131.117 153.615C134.208 153.506 137.495 153.607 140.608 153.607C142.36 153.607 148.693 153.843 149.791 153.222C151.397 152.314 150.355 146.877 149.758 145.353C145.876 135.456 132.533 133.148 125.898 141.921C120.822 148.633 122.59 157.871 128.331 162.237C134.327 166.798 142.261 166.689 147.503 161.668C149.068 160.168 147.913 159.477 146.626 158.013C145.518 156.754 144.692 155.224 143.144 156.478C142.679 156.855 142.411 157.097 141.771 157.418C138.911 158.856 135.072 159.131 132.668 156.792C132.087 156.226 131.121 154.867 131.117 153.615ZM242.755 144.039C251.485 142.779 252.564 156.815 244.729 157.922C240.551 158.512 237.772 155.61 237.376 151.929C236.941 147.887 239.325 144.535 242.755 144.039ZM242.686 136.503C234.884 137.101 228.665 143.617 229.253 152.104C229.793 159.905 236.406 166.144 244.905 165.58C252.676 165.064 258.934 158.352 258.332 149.868C257.784 142.154 251.133 135.856 242.686 136.503ZM214.799 153.083C214.443 152.436 212.894 147.502 212.584 146.48C211.888 144.185 211.115 141.947 210.416 139.672C209.37 136.264 209.575 136.901 204.191 136.901C202.816 136.901 200.907 136.576 201.206 138.398C201.307 139.016 209.989 160.062 211.591 163.94C212.198 165.408 213.195 165.1 214.927 165.1C216.745 165.1 217.294 165.173 217.911 163.677C220.957 156.294 224.136 148.922 227.141 141.542C227.525 140.599 228.165 139.33 228.43 138.386C228.944 136.563 226.948 136.901 225.571 136.901C219.889 136.901 220.041 136.316 219.083 139.408C218.588 141.004 215.325 151.761 214.799 153.083ZM108.101 141.019C107.933 140.397 107.399 139.045 107.118 138.475C106.577 137.376 106.58 136.894 105.069 136.899C101.673 136.91 100.387 136.4 100.393 139.324C100.395 140.693 100.264 163.34 100.475 164.082C100.795 165.204 101.805 165.1 103.032 165.1C104.204 165.099 105.377 165.098 106.549 165.1C107.829 165.103 108.672 165.083 108.868 163.839C108.997 163.025 108.905 149.501 108.904 147.831C108.904 147.196 109.094 146.995 109.376 146.59C109.959 145.75 110.345 145.216 111.089 144.696C112.723 143.551 114.979 143.797 116.577 144.845C117.29 145.312 117.766 146.157 118.954 146.023C119.936 145.911 120.332 145.011 120.79 144.217C123.233 139.976 123.54 140.464 119.863 138.043C117.554 136.523 113.893 135.701 111.568 137.311C110.833 137.82 110.35 138.384 109.787 139.045C109.444 139.447 108.561 140.805 108.101 141.019ZM190.59 136.979C189.201 137.389 189.481 138.961 189.481 140.435V154.22C189.481 157.244 189.402 160.373 189.482 163.384C189.532 165.265 190.693 165.1 192.345 165.1C198.039 165.1 198.022 165.637 198.022 161.622V147.837C198.022 144.899 198.172 141.558 198.021 138.672C197.925 136.829 196.074 136.9 195.121 136.901C194.239 136.901 191.204 136.798 190.59 136.979Z" fill="#47BAE4"/>
<path fill-rule="evenodd" clip-rule="evenodd" d="M81.5972 156.606C80.9908 156.723 80.6111 156.872 80.2162 157.225L71.4551 166.324C70.7603 166.98 70.101 167.735 70.8048 169.135C71.2998 170.12 73.1963 171.811 74.0614 172.817C74.2343 173.018 74.3441 173.183 74.5233 173.377C74.6949 173.563 74.8243 173.654 74.9825 173.839L78.2642 177.498C78.5672 177.871 78.8787 178.166 79.1727 178.534L81.0455 180.64C81.3962 180.982 81.6737 181.312 82.0185 181.701L84.7902 184.854C85.1782 185.197 86.0537 185.057 86.6501 185.057H102.477C103.965 185.057 104.868 185.145 105.361 183.934C105.787 182.888 105.55 181.46 104.927 180.73L96.9243 171.893C96.7415 171.697 96.6395 171.536 96.4572 171.34C96.0764 170.93 95.8671 170.702 95.5327 170.319L84.1486 157.832C83.5868 157.277 82.9915 156.339 81.5972 156.606ZM45.7136 115.123C43.5216 115.523 44.0579 117.318 44.0579 120.173V146.911C44.0579 147.994 43.9078 149.063 44.4415 149.875C44.843 150.487 45.6563 151.052 46.7891 150.828C48.0949 150.57 49.4413 148.695 50.3657 147.738C51.5177 146.546 52.4701 145.449 53.6139 144.235L56.7568 140.712C57.3259 140.088 57.8309 139.586 58.3399 138.963C58.5986 138.646 58.8632 138.413 59.1291 138.088L61.5031 135.465C61.9179 134.959 61.8114 134.99 61.8074 134.144L61.8071 119.063C61.8071 116.528 61.9034 115.079 59.0699 115.044C57.1535 115.021 46.8044 114.924 45.7136 115.123Z" fill="#47BAE4"/>
<path fill-rule="evenodd" clip-rule="evenodd" d="M111.148 182.904L111.128 180.081C112.57 180.081 114.975 179.765 114.852 181.61C114.747 183.169 112.558 182.991 111.148 182.904ZM111.185 175.811C112.424 175.736 114.43 175.527 114.429 176.98C114.429 178.427 112.351 178.193 111.126 178.193L111.185 175.811ZM108.737 174.08C108.733 174.123 108.585 184.391 108.818 184.627C109.289 185.102 114.164 185.337 115.992 184.202C116.799 183.701 117.409 182.779 117.366 181.423C117.348 180.872 117.171 180.219 116.908 179.856C116.538 179.345 116.197 179.275 115.684 178.923L115.829 178.77C116.476 178.156 116.948 177.727 116.806 176.427C116.684 175.307 116.027 174.69 115.236 174.308C113.878 173.654 110.281 173.595 108.737 174.08ZM165.85 184.846L167.712 184.843L169.096 180.29L170.561 184.85L172.436 184.842C173.082 183.182 174.94 178.104 175.165 176.529L172.737 176.53C172.4 177.911 171.922 180.741 171.395 181.849L170.015 176.534L168.321 176.536C168.098 177.471 167.891 178.344 167.654 179.224C167.445 180.003 167.132 181.452 166.893 181.783C166.458 180.89 165.866 177.72 165.593 176.536L163.124 176.531C163.364 177.791 163.991 179.548 164.395 180.772C164.863 182.19 165.363 183.524 165.85 184.845V184.846ZM188.266 175.925C189.795 175.831 191.586 175.749 191.591 177.443C191.596 179.156 189.824 179.074 188.272 179.074L188.266 175.925ZM185.807 174.054L185.783 184.836L188.258 184.846L188.272 181.185C189.97 181.185 191.679 181.086 192.871 180.282C194.898 178.915 195.887 172.14 185.807 174.054ZM129.224 185.582C128.948 186.035 128.865 186.866 128.772 187.435C132.446 188.753 133.472 186.43 134.562 183.889C135.193 182.415 136.94 177.956 137.169 176.535L134.777 176.532C134.567 176.93 134.158 178.685 133.992 179.25C133.8 179.909 133.435 181.451 133.111 181.872C132.625 181.15 131.658 177.63 131.348 176.536L128.864 176.53C129.114 178.17 130.646 181.726 131.429 183.38C131.619 183.782 132.022 184.307 131.848 184.77C131.409 185.942 130.488 185.791 129.224 185.582ZM204.942 185.573L204.549 187.451C208.43 188.515 209.125 186.647 210.35 183.875C211.038 182.318 212.64 178.105 212.957 176.547L210.528 176.535C210.243 177.569 209.279 181.39 208.867 181.917C208.634 181.106 208.247 180.185 207.963 179.318C207.654 178.373 207.401 177.506 207.134 176.544L204.652 176.529C204.809 177.786 206.117 180.94 206.637 182.121C206.829 182.556 207.013 182.957 207.214 183.395C207.398 183.797 207.805 184.347 207.645 184.771C207.089 186.242 205.529 185.651 204.942 185.573ZM244.634 179.836C244.915 177.717 247.538 177.689 247.704 179.845L244.634 179.836ZM249.498 184.597L249.205 182.688C248.818 182.648 244.954 183.973 244.632 181.484C245.998 181.417 247.515 181.465 248.895 181.471C250.032 181.476 250.016 181.7 250 180.495C249.926 174.821 243.104 175.191 242.279 179.697C242.041 180.996 242.262 182.442 242.884 183.358C243.411 184.134 244.221 184.784 245.593 184.997C247.191 185.245 248.158 184.882 249.498 184.597ZM157.135 178.404C159.729 177.723 159.87 182.546 157.99 182.985C155.444 183.578 155.2 178.912 157.135 178.404ZM156.865 176.368C151.804 177.207 152.486 185.852 158.279 185.019C163.387 184.285 162.563 175.423 156.865 176.368ZM229.884 183.137C228.89 183.242 227.305 183.395 227.392 182.164C227.467 181.102 228.93 181.23 229.929 181.352L229.884 183.137ZM225.821 176.681L226.089 178.512C226.954 178.722 229.871 177.254 229.929 179.795C228.561 179.601 227.227 179.588 226.137 180.23C225.237 180.76 224.684 181.993 225.226 183.432C226.017 185.531 230.002 185.249 232.173 184.598C232.304 183.714 232.202 181.94 232.202 180.959C232.202 179.841 232.302 178.527 231.752 177.648C230.635 175.862 228.035 176.261 225.821 176.681ZM200.552 183.139C199.561 183.24 197.99 183.387 198.066 182.164C198.133 181.098 199.638 181.234 200.601 181.348L200.552 183.139ZM196.497 176.686L196.776 178.587C198.329 178.325 200.572 177.604 200.601 179.791C198.067 179.457 195.319 179.952 195.749 182.831C196.138 185.435 199.633 185.187 201.608 184.849C201.9 184.798 202.193 184.76 202.477 184.703C202.957 184.606 202.884 184.619 202.884 184.116C202.883 182.644 202.992 179.157 202.648 178.151C201.848 175.812 198.96 176.229 196.497 176.686ZM143.795 176.833L143.783 184.818L146.146 184.847C146.181 183.79 146.023 178.981 146.223 178.433C148.093 178.192 148.582 178.537 148.6 180.403C148.614 181.868 148.566 183.353 148.605 184.815L150.962 184.847C151.028 182.937 151.249 178.699 150.282 177.489C149.079 175.982 145.856 176.127 143.795 176.833ZM127.05 184.526L127.053 176.567L124.706 176.529L124.69 182.945C121.376 183.364 122.426 181.544 122.243 176.559L119.891 176.53C119.798 178.378 119.64 182.716 120.57 183.873C121.213 184.674 122.099 185.023 123.485 185.034C124.357 185.042 126.359 184.881 127.05 184.526ZM235.017 174.466C235.019 176.049 234.929 181.465 235.112 182.608C235.632 185.871 239.676 185.164 240.521 184.567L240.22 182.816C239.161 182.882 237.866 183.544 237.485 182.192C237.292 181.506 237.39 179.343 237.39 178.504H240.157C240.305 178.017 240.238 177.067 240.204 176.53H237.39L237.39 174.125L235.017 174.466ZM222.881 185.005L223.235 183.044C222.103 182.941 221.942 182.573 221.936 181.423L221.938 172.631C221.489 172.616 220.471 172.804 219.999 172.886C219.383 172.994 219.579 172.993 219.579 174.76C219.579 176.271 219.579 177.782 219.579 179.294C219.579 182.817 218.92 184.888 222.881 185.005ZM252.594 176.965L252.594 184.839L254.939 184.847L254.954 178.521C255.862 178.221 256.742 178.447 257.58 178.616C257.739 178.175 257.986 177.091 257.944 176.643C255.747 176.067 254.573 176.443 252.594 176.965ZM175.564 186.986L177.405 187.417C178.399 185.887 178.709 184.338 178.622 182.463L176.15 182.436C176.163 183.354 176.205 183.938 176.069 184.849C175.948 185.659 175.693 186.27 175.564 186.986Z" fill="#F27D31"/>
</svg>
