<svg width="154" height="154" viewBox="0 0 154 154" fill="none" xmlns="http://www.w3.org/2000/svg">
<path d="M144.375 112.292C144.375 119.379 138.629 125.125 131.542 125.125H22.4583C15.3711 125.125 9.625 119.379 9.625 112.292V41.7083C9.625 34.6211 15.3711 28.875 22.4583 28.875H131.542C138.629 28.875 144.375 34.6211 144.375 41.7083V112.292Z" fill="#3F51B5"/>
<path d="M96.25 44.9167C87.741 44.9167 79.5805 48.2969 73.5637 54.3136C67.5469 60.3304 64.1667 68.491 64.1667 77C64.1667 85.509 67.5469 93.6695 73.5637 99.6863C79.5805 105.703 87.741 109.083 96.25 109.083C104.759 109.083 112.92 105.703 118.936 99.6863C124.953 93.6695 128.333 85.509 128.333 77C128.333 68.491 124.953 60.3304 118.936 54.3136C112.92 48.2969 104.759 44.9167 96.25 44.9167Z" fill="#FFC107"/>
<path d="M70.6282 96.25C69.1396 94.2704 67.8594 92.1305 66.8552 89.8333H83.9396C84.8315 87.7928 85.5309 85.6497 85.9833 83.4167H64.8147C64.3912 81.3441 64.1666 79.2009 64.1666 77H86.625C86.625 74.7991 86.4004 72.6559 85.9801 70.5833H64.8115C65.2671 68.3503 65.9633 66.2072 66.8552 64.1667H83.9396C82.9354 61.8695 81.6585 59.7295 80.1666 57.75H70.6282C72.0303 55.8892 73.612 54.1502 75.3798 52.6327C69.7716 47.833 62.5015 44.9167 54.5416 44.9167C36.822 44.9167 22.4583 59.2804 22.4583 77C22.4583 94.7196 36.822 109.083 54.5416 109.083C65.0297 109.083 74.3114 104.03 80.1634 96.25H70.6282Z" fill="#FF3D00"/>
</svg>
