<svg width="210" height="97" viewBox="0 0 210 97" fill="none" xmlns="http://www.w3.org/2000/svg">
<path fill-rule="evenodd" clip-rule="evenodd" d="M87.5381 25.3733H101.408L101.417 33.2043L98.0031 33.196L106.096 60.2325L114.057 33.2216L110.545 33.2217L110.545 25.3952L121.642 25.3869L121.628 29.8512L108.272 73.7933C105.047 73.803 102.95 72.1577 101.826 68.7155L90.8275 33.2223L87.5361 33.214L87.5381 25.3733ZM68.4623 24C78.1066 24 85.9249 35.0883 85.9249 48.7663C85.9249 62.4444 78.1066 73.5326 68.4623 73.5326C58.8182 73.5326 51 62.4444 51 48.7663C51 35.0883 58.8182 24 68.4623 24ZM68.4086 32.1035C74.4915 32.1035 79.4227 39.6463 79.4227 48.9508C79.4227 58.2552 74.4915 65.798 68.4086 65.798C62.3258 65.798 57.3946 58.2552 57.3946 48.9508C57.3946 39.6463 62.3258 32.1035 68.4086 32.1035ZM141.338 24C150.982 24 158.8 35.0883 158.8 48.7663C158.8 62.4444 150.982 73.5326 141.338 73.5326C131.693 73.5326 123.875 62.4444 123.875 48.7663C123.875 35.0883 131.693 24 141.338 24ZM141.284 32.1035C147.367 32.1035 152.298 39.6463 152.298 48.9508C152.298 58.2552 147.367 65.798 141.284 65.798C135.201 65.798 130.27 58.2552 130.27 48.9508C130.27 39.6463 135.201 32.1035 141.284 32.1035Z" fill="#4C3494"/>
</svg>
