<svg width="200" height="155" viewBox="0 0 200 155" fill="none" xmlns="http://www.w3.org/2000/svg">
<path d="M191.807 94.3947V81.1383V54.6532H172.76H160.06V41.3968H191.807V14.8978H160.06H141.013V41.3968V54.6532V81.1383H160.06H172.76V94.3947H141.013V120.894H172.76H191.807V94.3947Z" fill="#010101"/>
<path d="M134.667 14.8978H121.967V120.88H134.667V14.8978Z" fill="#010101"/>
<path d="M64.8267 14.8978V41.3968H102.92V54.6532H77.52H64.8267V81.1383V120.894H77.52V81.5417L96.5733 120.894H115.62L95.7467 81.1383H102.92H115.62V54.6532V41.3968V14.8978H102.92H64.8267Z" fill="#010101"/>
<path d="M26.7267 81.1383H39.3933V54.7089H26.7267V81.1383ZM29.9067 61.2745H36.2533V74.517H29.9067V61.2745Z" fill="#010101"/>
<path d="M20.38 14.8978H9.26666C8.84668 14.9045 8.44465 15.254 8.14666 15.8715C7.99841 16.1798 7.88086 16.5462 7.80076 16.9497C7.72067 17.3531 7.67963 17.7857 7.68 18.2224V117.569C7.67963 118.006 7.72067 118.438 7.80076 118.842C7.88086 119.245 7.99841 119.612 8.14666 119.92C8.44532 120.534 8.84748 120.878 9.26666 120.88H39.4267V94.4504H20.38V14.8978Z" fill="#010101"/>
<path d="M56.8867 14.8978H26.7267V41.3968H45.78V81.1383H58.4467V18.2224C58.4506 17.3471 58.2902 16.5034 58 15.8715C57.7025 15.261 57.3039 14.9124 56.8867 14.8978Z" fill="#010101"/>
<path d="M58.48 94.3947H45.78V154.014H58.48V94.3947Z" fill="#010101"/>
<path d="M25.4 0H1.58667C1.1664 0.00366145 0.763841 0.353635 0.466663 0.973707C0.169484 1.59378 0.0017548 2.43373 0 3.31063L0 52.9979H3.17333V9.87625C3.18203 9.00904 3.35281 8.18326 3.64925 7.57514C3.94568 6.96701 4.34429 6.6247 4.76 6.62126H25.4267L25.4 0Z" fill="#010101"/>
<path d="M196.827 86.1042V129.226C196.825 130.103 196.657 130.943 196.36 131.563C196.063 132.183 195.66 132.533 195.24 132.537H174.573V139.102H198.387C198.597 139.108 198.806 139.026 199.001 138.862C199.196 138.699 199.374 138.456 199.524 138.148C199.674 137.84 199.793 137.474 199.875 137.069C199.957 136.665 199.999 136.23 200 135.792V86.1042H196.827Z" fill="#010101"/>
</svg>
