<svg width="200" height="200" viewBox="0 0 200 200" fill="none" xmlns="http://www.w3.org/2000/svg">
<path d="M25.6563 141.412C15.638 126.862 9.74467 109.274 9.74467 90.2673C9.74467 40.4187 50.1462 0 99.9983 0C149.854 0 190.255 40.4187 190.255 90.2673C190.255 109.264 184.355 126.862 174.34 141.412C180.497 129.742 183.999 116.464 183.999 102.345C183.999 55.9677 146.409 18.3538 99.9983 18.3538C53.5871 18.3538 15.9971 55.9677 15.9971 102.345C15.9971 116.464 19.5235 129.742 25.6563 141.412ZM149.324 92.836C149.324 65.6166 127.245 43.5107 99.9983 43.5107C72.755 43.5107 50.673 65.6166 50.673 92.836C50.673 100.994 52.8312 108.549 56.3234 115.315C55.0989 111.173 54.2267 106.873 54.2267 102.338C54.2267 77.0749 74.6943 56.5765 99.9983 56.5765C125.302 56.5765 145.766 77.068 145.766 102.338C145.766 106.877 144.925 111.173 143.677 115.315C147.172 108.532 149.324 100.987 149.324 92.836ZM99.9983 77.8582C91.7278 77.8582 85.0341 84.5587 85.0341 92.8223C85.0341 101.1 91.7278 107.793 99.9983 107.793C108.269 107.793 114.962 101.1 114.962 92.8223C114.962 84.5587 108.269 77.8582 99.9983 77.8582ZM65.0865 200L82.8553 115.175H117.148L134.931 200H125.2L122.234 185.737H77.8L74.8209 200H65.0865ZM86.5083 144.121H113.502L109.432 124.666H90.5717L86.5083 144.121ZM79.7804 176.222H120.223L115.493 153.64H84.4971L79.7804 176.222Z" fill="#45484C"/>
</svg>
