<svg width="200" height="200" viewBox="0 0 200 200" fill="none" xmlns="http://www.w3.org/2000/svg">
<g clip-path="url(#clip0_34_289)">
<path d="M73.6777 180.211C69.5023 180.211 66.1051 176.814 66.1051 172.638V145.257C66.1051 141.082 69.5019 137.685 73.6777 137.685H143.164C147.339 137.685 150.736 141.082 150.736 145.257V172.638C150.736 176.813 147.339 180.211 143.164 180.211H73.6777Z" fill="#ECE5DD"/>
<path d="M83.1578 153.684H108.421C110.165 153.684 111.579 152.271 111.579 150.527C111.579 148.782 110.165 147.369 108.421 147.369H83.1578C81.4137 147.369 80 148.782 80 150.527C80 152.271 81.4141 153.684 83.1578 153.684Z" fill="#BABABA"/>
<path d="M133.684 147.368H121.053C119.309 147.368 117.895 148.782 117.895 150.526C117.895 152.271 119.309 153.684 121.053 153.684H133.684C135.429 153.684 136.842 152.271 136.842 150.526C136.842 148.782 135.428 147.368 133.684 147.368Z" fill="#BABABA"/>
<path d="M133.684 164.211H108.421C106.677 164.211 105.263 165.624 105.263 167.368C105.263 169.113 106.677 170.526 108.421 170.526H133.684C135.429 170.526 136.842 169.113 136.842 167.368C136.842 165.624 135.428 164.211 133.684 164.211Z" fill="#BABABA"/>
<path d="M95.7894 164.211H83.1578C81.4137 164.211 80 165.624 80 167.368C80 169.113 81.4141 170.526 83.1578 170.526H95.7894C97.5336 170.526 98.9473 169.113 98.9473 167.368C98.9473 165.624 97.5336 164.211 95.7894 164.211Z" fill="#BABABA"/>
<path d="M108.421 121.625C127.341 121.625 142.678 106.288 142.678 87.3684C142.678 68.4487 127.341 53.1113 108.421 53.1113C89.5015 53.1113 74.1641 68.4487 74.1641 87.3684C74.1641 106.288 89.5015 121.625 108.421 121.625Z" fill="#ECE5DD"/>
<path d="M143.164 134.737H127.42C125.675 134.737 124.262 136.151 124.262 137.895C124.262 139.639 125.676 141.052 127.42 141.052H143.164C145.486 141.052 147.368 142.935 147.368 145.257V172.637C147.368 174.959 145.486 176.841 143.164 176.841H73.6777C71.3555 176.841 69.4734 174.959 69.4734 172.637V145.257C69.4734 142.934 71.3559 141.052 73.6777 141.052H113.495C115.239 141.052 116.653 139.638 116.653 137.895C116.653 136.15 115.239 134.737 113.495 134.737H73.6777C67.8676 134.737 63.1578 139.447 63.1578 145.257V172.637C63.1578 178.447 67.8676 183.157 73.6777 183.157H143.164C148.974 183.157 153.684 178.447 153.684 172.637V145.257C153.684 139.447 148.974 134.737 143.164 134.737Z" fill="#45484C"/>
<path d="M108.421 124.211C128.736 124.211 145.263 107.683 145.263 87.3683C145.263 67.0535 128.736 50.5261 108.421 50.5261C88.1063 50.5261 71.5789 67.0535 71.5789 87.3683C71.5789 107.683 88.1067 124.211 108.421 124.211ZM108.421 117.895C98.7363 117.895 90.0973 113.356 84.5012 106.3C90.2774 99.021 99.0625 94.7371 108.421 94.7371C117.78 94.7371 126.565 99.0214 132.341 106.3C126.745 113.356 118.106 117.895 108.421 117.895ZM138.947 87.3683C138.947 92.148 137.841 96.6734 135.873 100.705C131.714 96.0562 126.478 92.5718 120.678 90.5234C125.385 86.8605 128.421 81.1484 128.421 74.7363C128.421 68.9113 125.916 63.6617 121.929 60.0027C132.003 64.9968 138.947 75.3843 138.947 87.3683ZM108.421 61.0527C115.966 61.0527 122.105 67.1914 122.105 74.7371C122.105 82.2828 115.966 88.4214 108.421 88.4214C100.876 88.4214 94.7367 82.2828 94.7367 74.7371C94.7367 67.1914 100.876 61.0527 108.421 61.0527ZM77.8949 87.3683C77.8949 75.3843 84.8395 64.9964 94.9125 60.0031C90.9254 63.6621 88.4211 68.9117 88.4211 74.7367C88.4211 81.148 91.4574 86.8601 96.1629 90.5226C90.3629 92.5711 85.127 96.0562 80.968 100.705C79.0012 96.6738 77.8949 92.1484 77.8949 87.3683Z" fill="#45484C"/>
<path d="M196.842 94.7367C198.007 94.7367 199.077 94.0957 199.627 93.0687C200.176 92.0422 200.116 90.7965 199.47 89.827L192.216 78.9469L199.47 68.0668C200.116 67.0977 200.176 65.8516 199.627 64.825C199.077 63.7984 198.007 63.157 196.842 63.157H178.768C178.027 56.4891 174.972 50.5125 170.424 46.0469C170.488 45.7953 170.526 45.5336 170.526 45.2625V30.8719C170.526 26.2992 168.831 22.1172 166.041 18.9129C170.902 18.5152 174.737 14.4355 174.737 9.47383C174.737 4.25 170.487 0 165.263 0H28.4211C20.7598 0 13.5762 3.00313 8.19375 8.45625C2.90039 13.8184 0.00625 20.8961 0.00664063 28.4211H0V171.579C0 187.25 12.7496 200 28.4211 200H150.526C163.65 200 174.719 191.057 177.973 178.947H196.842C198.007 178.947 199.077 178.306 199.627 177.279C200.176 176.253 200.116 175.007 199.47 174.038L192.216 163.157L199.47 152.277C200.116 151.308 200.176 150.062 199.627 149.036C199.077 148.009 198.007 147.368 196.842 147.368H178.947V136.841H196.842C198.007 136.841 199.077 136.2 199.627 135.173C200.176 134.147 200.116 132.901 199.47 131.932L192.216 121.052L199.47 110.171C200.116 109.202 200.176 107.956 199.627 106.93C199.077 105.903 198.007 105.262 196.842 105.262H178.947V94.7355H196.842V94.7367ZM178.947 69.4738H190.941L185.793 77.1961C185.086 78.257 185.086 79.6387 185.793 80.6992L190.941 88.4215H178.947V69.4738ZM46.3156 193.684H28.4211C16.232 193.684 6.31602 183.768 6.31602 171.579V46.1098C11.6109 52.6379 19.741 56.8418 28.798 56.8418H46.316L46.3156 193.684ZM46.3156 50.5266H28.798C16.5586 50.5266 6.47422 40.7426 6.31797 28.7156C6.24062 22.7527 8.50274 17.1332 12.6887 12.893C16.875 8.65195 22.4625 6.31602 28.4211 6.31602H165.263C167.005 6.31602 168.421 7.73242 168.421 9.47383C168.421 11.2152 167.005 12.6316 165.263 12.6316H152.286H121.053H28.6836C20.0676 12.6316 12.8691 19.5172 12.6379 27.9793C12.5199 32.2828 14.1059 36.35 17.1035 39.4309C20.1023 42.5133 24.1215 44.2105 28.4211 44.2105H46.316L46.3156 50.5266ZM164.211 30.8719V41.4148C160.149 39.1738 155.485 37.8945 150.526 37.8945H28.4211C25.8418 37.8945 23.4301 36.8762 21.6305 35.0262C19.832 33.1777 18.8805 30.7363 18.9512 28.152C19.0902 23.0766 23.4562 18.9469 28.684 18.9469H121.053H152.286C158.861 18.9473 164.211 24.2969 164.211 30.8719ZM172.632 91.5789V108.421V133.684V150.527V171.579C172.632 183.768 162.716 193.684 150.527 193.684H52.6316V44.2105H150.527C162.716 44.2105 172.632 54.1273 172.632 66.3156V91.5789ZM190.941 153.684L185.793 161.406C185.086 162.467 185.086 163.849 185.793 164.909L190.941 172.632H178.947V171.579V153.684H190.941V153.684ZM190.941 111.579L185.793 119.301C185.086 120.362 185.086 121.744 185.793 122.804L190.941 130.527H178.947V111.579H190.941V111.579Z" fill="#45484C"/>
</g>
<defs>
<clipPath id="clip0_34_289">
<rect width="200" height="200" fill="white"/>
</clipPath>
</defs>
</svg>
