<svg width="200" height="200" viewBox="0 0 200 200" fill="none" xmlns="http://www.w3.org/2000/svg">
<path d="M191.832 128.304C187.832 121.348 180.572 117.391 171.832 117.391C160.607 117.391 153.189 109.048 153.049 100C153.006 96.1305 154.31 92.1738 157.223 88.7391C160.527 84.8262 165.354 82.6086 170.441 82.6086C180.049 82.6086 187.832 78.5652 191.875 71.5652C195.702 64.9129 195.658 56.5652 191.745 49.8262C173.876 19.0871 140.745 0 105.224 0C57.3977 0 16.1801 33.6523 7.1801 80.0434C5.8762 86.6957 5.22346 93.3477 5.2676 100V100.261C5.35471 123.304 13.2676 145.696 28.0938 163.652C47.1371 186.739 75.2676 200 105.224 200C140.832 200 174.007 180.826 191.832 150C195.702 143.304 195.702 135 191.832 128.304ZM114.354 40.6957C119.745 31.348 131.658 28.0871 141.093 33.5219C150.44 38.9137 153.658 50.8703 148.266 60.2609C142.875 69.5652 130.918 72.8262 121.527 67.3914C112.18 62 108.963 50.0871 114.354 40.6957Z" fill="#FFC033"/>
<path d="M28.0934 163.652C47.1368 186.739 75.2672 200 105.224 200C140.832 200 174.007 180.826 191.832 150C195.702 143.304 195.702 135 191.832 128.304C187.832 121.348 180.572 117.391 171.832 117.391C160.607 117.391 153.189 109.048 153.049 100H5.26685V100.261C5.35435 123.304 13.2668 145.696 28.0934 163.652Z" fill="#F9A926"/>
<path d="M48.702 119.565C37.9133 119.565 29.1367 110.789 29.1367 100C29.1367 89.2113 37.9133 80.4348 48.702 80.4348C59.4906 80.4348 68.2672 89.2113 68.2672 100C68.2672 110.789 59.4906 119.565 48.702 119.565Z" fill="#88CC2A"/>
<path d="M67.1801 164.3C57.8352 158.909 54.5981 146.958 60.0215 137.572C65.3711 128.304 77.291 124.957 86.7453 130.416C96.0899 135.807 99.3274 147.756 93.9039 157.142C88.5242 166.466 76.5844 169.731 67.1801 164.3Z" fill="#736056"/>
<path d="M126.249 168.43C115.815 165.634 109.609 154.919 112.412 144.468C115.214 134.022 125.923 127.836 136.371 130.635C141.42 131.985 145.64 135.223 148.251 139.746C150.867 144.273 151.563 149.546 150.209 154.596C147.402 165.059 136.675 171.226 126.249 168.43Z" fill="#37AFCC"/>
<path d="M60.0215 62.4258C54.6094 53.064 57.8141 41.1058 67.1801 35.6976C76.5602 30.291 88.5078 33.5051 93.9039 42.8586C99.3246 52.2398 96.0942 64.1887 86.7453 69.5867C77.3207 75.0223 65.3899 71.7308 60.0215 62.4258Z" fill="#E6563A"/>
<path d="M48.702 119.565C59.4906 119.565 68.2672 110.789 68.2672 100H29.1367C29.1367 110.789 37.9129 119.565 48.702 119.565Z" fill="#7FB335"/>
</svg>
