<svg width="200" height="200" viewBox="0 0 200 200" fill="none" xmlns="http://www.w3.org/2000/svg">
<g clip-path="url(#clip0_34_257)">
<path d="M192.938 91.5355C185.945 80.8441 174.616 73.7039 161.857 71.9457C153.25 70.7594 145.441 66.8722 139.272 60.7031C133.103 54.5344 129.215 46.7238 128.029 38.1168C126.271 25.3594 119.136 14.0281 108.451 7.0285C98.0726 0.22889 85.2977 -1.75275 73.4 1.58983C56.8719 6.23397 41.6859 15.1406 29.4836 27.3469C-9.79493 66.6383 -9.77188 130.705 29.5348 170.161C48.6781 189.377 74.1379 199.974 101.225 200C101.259 200 101.289 200 101.324 200C128.276 199.999 153.603 189.518 172.64 170.48C184.805 158.315 193.695 143.18 198.346 126.711C201.721 114.77 199.749 101.948 192.938 91.5355ZM189.639 124.251C185.406 139.235 177.316 153.007 166.242 164.081C148.913 181.41 125.861 190.95 101.324 190.95C101.294 190.95 101.264 190.95 101.234 190.95C76.5668 190.927 53.3809 181.276 35.9465 163.775C0.153904 127.845 0.125386 69.5144 35.8832 33.7449C46.9906 22.6336 60.8105 14.5273 75.8477 10.3023C78.9109 9.44178 82.0039 9.016 85.0687 9.016C91.5269 9.016 97.8562 10.9058 103.492 14.598C111.988 20.1644 117.664 29.1867 119.065 39.3523C120.522 49.9305 125.296 59.5266 132.873 67.1027C140.449 74.6777 150.044 79.4527 160.621 80.9105C170.787 82.3117 179.805 87.9898 185.365 96.4894C190.822 104.832 192.34 114.691 189.639 124.251Z" fill="#45484C"/>
<path d="M157.979 102.934C145.697 102.934 135.705 112.927 135.705 125.209C135.705 137.491 145.697 147.484 157.979 147.484C170.261 147.484 180.254 137.492 180.254 125.209C180.254 112.927 170.261 102.934 157.979 102.934ZM157.979 138.435C150.686 138.435 144.754 132.502 144.754 125.209C144.754 117.916 150.687 111.984 157.979 111.984C165.272 111.984 171.204 117.917 171.204 125.209C171.205 132.502 165.271 138.435 157.979 138.435Z" fill="#45484C"/>
<path d="M73.1738 126.803C68.9664 122.596 63.3726 120.278 57.423 120.278C51.473 120.278 45.8793 122.596 41.6719 126.803C37.4648 131.01 35.1476 136.603 35.1476 142.553C35.1476 148.503 37.4648 154.097 41.6719 158.304C45.8793 162.511 51.4726 164.828 57.423 164.828C63.3726 164.828 68.9664 162.511 73.1738 158.304C81.8578 149.619 81.8578 135.488 73.1738 126.803ZM66.7746 151.905C64.2765 154.403 60.9555 155.778 57.423 155.778C53.8902 155.778 50.5691 154.403 48.0711 151.905C45.573 149.407 44.1973 146.086 44.1973 142.553C44.1973 139.02 45.5726 135.699 48.0711 133.201C50.5691 130.703 53.8902 129.328 57.423 129.328C60.9555 129.328 64.2765 130.703 66.7746 133.201C71.9308 138.358 71.9308 146.748 66.7746 151.905Z" fill="#45484C"/>
<path d="M74.7664 19.7215C62.4844 19.7215 52.4918 29.7137 52.4918 41.9965C52.4918 54.2793 62.4836 64.2715 74.7664 64.2715C87.0489 64.2715 97.0406 54.2793 97.0406 41.9965C97.0406 29.7137 87.0485 19.7215 74.7664 19.7215ZM74.7664 55.2227C67.4739 55.2227 61.5414 49.2899 61.5414 41.9973C61.5414 34.7043 67.4742 28.7719 74.7664 28.7719C82.0586 28.7719 87.9914 34.7047 87.9914 41.9973C87.9914 49.2899 82.0586 55.2227 74.7664 55.2227Z" fill="#45484C"/>
<path d="M112.143 133.969C99.8601 133.969 89.8683 143.962 89.8683 156.244C89.8683 168.527 99.8605 178.519 112.143 178.519C124.425 178.519 134.418 168.527 134.418 156.244C134.418 143.962 124.425 133.969 112.143 133.969ZM112.143 169.47C104.85 169.47 98.9176 163.537 98.9176 156.244C98.9176 148.952 104.85 143.019 112.143 143.019C119.436 143.019 125.368 148.952 125.368 156.244C125.368 163.537 119.436 169.47 112.143 169.47Z" fill="#45484C"/>
<path d="M43.7313 65.5579C31.4492 65.5579 21.457 75.55 21.457 87.8329C21.457 100.116 31.4492 110.108 43.7313 110.108C56.0133 110.108 66.0062 100.116 66.0062 87.8329C66.0062 75.55 56.0133 65.5579 43.7313 65.5579ZM43.7309 101.058C36.4383 101.058 30.5059 95.1254 30.5059 87.8329C30.5059 80.5399 36.4387 74.6075 43.7309 74.6075C51.0238 74.6075 56.9562 80.5403 56.9562 87.8329C56.9562 95.1254 51.0238 101.058 43.7309 101.058Z" fill="#45484C"/>
<path d="M116.389 83.5856C114.622 81.8188 111.758 81.8188 109.99 83.5856L81.4121 112.164C79.6453 113.931 79.6453 116.796 81.4121 118.563C82.2957 119.447 83.4535 119.888 84.6114 119.888C85.7692 119.888 86.927 119.447 87.8106 118.563L116.389 89.9848C118.156 88.218 118.156 85.3532 116.389 83.5856Z" fill="#45484C"/>
<path d="M127.001 76.5289C126.942 76.2395 126.852 75.9543 126.744 75.6828C126.63 75.4067 126.49 75.1446 126.327 74.9C126.16 74.6512 125.97 74.4203 125.762 74.2121C125.554 74.0039 125.322 73.8141 125.073 73.6512C124.829 73.4883 124.567 73.3481 124.295 73.2348C124.019 73.1215 123.739 73.0356 123.449 72.977C122.861 72.8594 122.264 72.8594 121.68 72.977C121.391 73.036 121.105 73.1219 120.834 73.2348C120.559 73.3481 120.296 73.4883 120.052 73.6512C119.803 73.8141 119.571 74.0043 119.363 74.2121C119.155 74.4199 118.965 74.6512 118.803 74.9C118.64 75.1442 118.499 75.4067 118.386 75.6828C118.273 75.9543 118.188 76.2395 118.129 76.5289C118.07 76.8184 118.038 77.1172 118.038 77.4114C118.038 77.7055 118.07 78.0039 118.129 78.2981C118.188 78.5832 118.273 78.868 118.386 79.1442C118.499 79.4156 118.64 79.6781 118.803 79.9223C118.965 80.1711 119.155 80.402 119.363 80.6102C119.571 80.8184 119.803 81.0082 120.052 81.1758C120.296 81.3387 120.558 81.4789 120.834 81.5922C121.106 81.7055 121.391 81.7914 121.68 81.85C121.97 81.909 122.268 81.936 122.563 81.936C122.857 81.936 123.155 81.9086 123.449 81.85C123.739 81.791 124.019 81.7051 124.295 81.5922C124.567 81.4789 124.829 81.3387 125.073 81.1758C125.322 81.0082 125.554 80.8184 125.762 80.6102C125.97 80.402 126.16 80.1711 126.327 79.9223C126.49 79.6781 126.63 79.4156 126.744 79.1442C126.852 78.868 126.943 78.5832 127.001 78.2981C127.055 78.0039 127.087 77.7055 127.087 77.4114C127.087 77.1172 127.055 76.8188 127.001 76.5289Z" fill="#45484C"/>
</g>
<defs>
<clipPath id="clip0_34_257">
<rect width="200" height="200" fill="white"/>
</clipPath>
</defs>
</svg>
