<svg width="200" height="200" viewBox="0 0 200 200" fill="none" xmlns="http://www.w3.org/2000/svg">
<g clip-path="url(#clip0_34_164)">
<path d="M193.333 15H33.3332C29.6664 15 26.6664 18 26.6664 21.6668V28.3336H20C16.3332 28.3336 13.3332 31.3336 13.3332 35.0004V41.6672H6.6668C3 41.6668 0 44.6668 0 48.3332V178.333C0 182 3 185 6.6668 185H166.667C170.334 185 173.334 182 173.334 178.333V171.666H180C183.667 171.666 186.667 168.666 186.667 165V158.333H193.334C197 158.333 200 155.333 200 151.666V21.666C200 18 197 15 193.333 15ZM166.667 178.333H6.6668V133.167L63.3336 82.8L121.134 134.167C121.767 134.734 122.667 135 123.534 135C124.434 134.933 125.267 134.533 125.834 133.867L146.667 110.067L166.667 132.934V178.333ZM166.667 122.8L149.167 102.8C147.9 101.367 145.434 101.367 144.167 102.8L123.034 126.933L65.5336 75.8332C64.3004 74.7332 62.3668 74.7332 61.1336 75.8332L6.6668 124.233V48.3332H166.667V122.8ZM180 165H173.333V48.3332C173.333 44.6664 170.333 41.6664 166.666 41.6664H20V35H180V165ZM193.333 151.667H186.666V35C186.666 31.3332 183.666 28.3332 180 28.3332H33.3332V21.6668H193.333V151.667Z" fill="#45484C"/>
<path d="M120 68.3333C112.633 68.3333 106.667 74.3 106.667 81.6665C106.667 89.0329 112.633 95 120 95C127.367 95 133.333 89.0333 133.333 81.6668C133.333 74.3004 127.367 68.3333 120 68.3333ZM120 88.3333C116.333 88.3333 113.333 85.3333 113.333 81.6665C113.333 77.9997 116.333 75 120 75C123.667 75 126.667 78 126.667 81.6668C126.667 85.3336 123.667 88.3333 120 88.3333Z" fill="#45484C"/>
</g>
<defs>
<clipPath id="clip0_34_164">
<rect width="200" height="200" fill="white"/>
</clipPath>
</defs>
</svg>
