<svg width="200" height="200" viewBox="0 0 200 200" fill="none" xmlns="http://www.w3.org/2000/svg">
<path d="M168.789 76.1719V94.082C168.789 96.9141 166.504 99.1992 163.672 99.1992H119.551V71.0547H163.672C166.484 71.0547 168.789 73.3594 168.789 76.1719ZM159.238 101.25V162.129C159.238 164.961 156.934 167.246 154.121 167.246H113.906V101.25H159.238Z" fill="#BCE1DB"/>
<path d="M133.301 41.9531C140.742 41.9531 146.836 48.0078 146.836 55.4883C146.836 62.9297 140.762 69.0234 133.301 69.0234H105.469L114.609 55.1758C121.25 46.0352 125.527 41.9531 133.301 41.9531ZM117.5 71.0547V99.1992H89.0039V71.0547H103.34L103.359 71.0742L103.379 71.0547H105.469H117.5ZM113.418 32.8906C117.285 39.5898 116.68 46.3672 111.406 55.5078L103.34 67.4219L89.6484 47.1094C87.8711 44.043 87.4414 40.1953 88.457 36.5039C89.4727 32.8516 91.8359 29.7266 94.9219 27.9492C97.0117 26.7383 99.3164 26.1328 101.68 26.1328C102.852 26.1328 104.023 26.2891 105.195 26.6016C108.691 27.5391 111.621 29.7656 113.418 32.8906ZM94.4727 101.25H111.875V167.246H94.4727V101.25ZM92.4609 55.1172L101.641 69.0039H73.8281C66.3672 69.0039 60.293 62.9297 60.293 55.4688C60.293 48.0078 66.3477 41.9336 73.8281 41.9336C81.6016 41.9531 85.8594 46.0352 92.4609 55.1172Z" fill="#F2C2B9"/>
<path d="M92.4219 101.25V167.246H52.9883C50.1562 167.246 47.8711 164.961 47.8711 162.129V101.25H92.4219ZM86.9727 71.0547V99.1992H43.4375C40.6055 99.1992 38.3203 96.9141 38.3203 94.082V76.1719C38.3203 73.3398 40.6055 71.0547 43.4375 71.0547H86.9727Z" fill="#BCE1DB"/>
<path d="M163.672 71.0547H119.551V99.1992H163.672C166.504 99.1992 168.789 96.914 168.789 94.082V76.1719C168.789 73.3594 166.484 71.0547 163.672 71.0547ZM154.121 167.246C156.934 167.246 159.238 164.961 159.238 162.129V101.25H113.906V167.246H154.121ZM86.9727 99.1992V71.0547H43.4375C40.6055 71.0547 38.3203 73.3398 38.3203 76.1719V94.082C38.3203 96.914 40.6055 99.1992 43.4375 99.1992H86.9727ZM73.8281 69.0234H101.66L92.4805 55.1367C85.8789 46.0547 81.6211 41.9726 73.8281 41.9726C66.3672 41.9726 60.293 48.0273 60.293 55.5078C60.293 62.9297 66.3477 69.0234 73.8281 69.0234ZM92.4219 167.246V101.25H47.8711V162.129C47.8711 164.961 50.1562 167.246 52.9883 167.246H92.4219ZM94.4727 167.246H111.875V101.25H94.4727V167.246ZM117.5 71.0547H103.379L103.359 71.0742L103.34 71.0547H89.0039V99.1992H117.5V71.0547ZM114.609 55.1562L105.469 69.0234H133.301C140.742 69.0234 146.836 62.9492 146.836 55.4883C146.836 48.0273 140.762 41.9531 133.301 41.9531C125.527 41.9531 121.25 46.0351 114.609 55.1562ZM113.418 32.8906C111.621 29.7656 108.691 27.5195 105.215 26.582C104.043 26.2695 102.871 26.1133 101.699 26.1133C99.3555 26.1133 97.0312 26.7187 94.9414 27.9297C91.8555 29.707 89.4922 32.832 88.4766 36.4844C87.4609 40.1758 87.8906 44.0234 89.668 47.0898L103.359 67.4023L111.426 55.4883C116.68 46.3867 117.285 39.5898 113.418 32.8906ZM105.742 24.6094C109.746 25.7031 113.105 28.2812 115.195 31.875C118.281 37.2656 118.75 42.7734 116.562 49.2383C121.797 42.832 126.172 39.9219 133.281 39.9219C141.855 39.9219 148.848 46.8945 148.848 55.4883C148.848 61.2891 145.664 66.3281 140.957 69.0234H163.672C167.617 69.0234 170.84 72.2461 170.84 76.1914V94.1015C170.84 98.0469 167.617 101.27 163.672 101.27H161.289V162.148C161.289 166.094 158.066 169.316 154.121 169.316H52.9883C49.043 169.316 45.8203 166.094 45.8203 162.148V101.25H43.418C39.4727 101.25 36.25 98.0273 36.25 94.082V76.1719C36.25 72.2266 39.4727 69.0039 43.418 69.0039H66.1133C61.4062 66.3281 58.2422 61.2695 58.2422 55.4687C58.2422 46.875 65.2148 39.9023 73.8086 39.9023C79.043 39.9023 82.8125 41.5039 86.543 44.9219C85.6836 42.0508 85.6641 38.9453 86.4844 35.957C87.6562 31.7773 90.3516 28.2226 93.9062 26.1523C97.5195 24.1016 101.719 23.5351 105.742 24.6094Z" fill="#D66474"/>
</svg>
