<svg width="200" height="200" viewBox="0 0 200 200" fill="none" xmlns="http://www.w3.org/2000/svg">
<path d="M168.289 76.1719V94.082C168.289 96.6379 166.228 98.6992 163.672 98.6992H120.051V71.5547H163.672C166.208 71.5547 168.289 73.6355 168.289 76.1719ZM158.738 101.75V162.129C158.738 164.684 156.659 166.746 154.121 166.746H114.406V101.75H158.738Z" stroke="#45484C"/>
<path d="M105.469 71.5547H117V98.6992H89.5039V71.5547H103.133L103.359 71.7813L103.586 71.5547H105.469ZM112.985 33.1399L112.985 33.1406C114.872 36.4096 115.659 39.6768 115.342 43.2393C115.024 46.8106 113.593 50.7135 110.982 55.2424L103.341 66.5287L90.0726 46.8441C88.3756 43.9064 87.9575 40.2051 88.9389 36.6372C89.922 33.1027 92.207 30.0898 95.1714 28.3825L95.1726 28.3818C97.1854 27.2155 99.4034 26.6328 101.68 26.6328C102.806 26.6328 103.935 26.783 105.066 27.0846C108.436 27.9884 111.255 30.1322 112.985 33.1399ZM133.301 42.4531C140.467 42.4531 146.336 48.2849 146.336 55.4883C146.336 62.654 140.485 68.5234 133.301 68.5234H106.398L115.02 55.4606C118.337 50.8967 121.027 47.6487 123.831 45.5361C126.613 43.4404 129.519 42.4531 133.301 42.4531ZM94.9727 101.75H111.375V166.746H94.9727V101.75ZM92.05 55.4022L100.711 68.5039H73.8281C66.6433 68.5039 60.793 62.6535 60.793 55.4688C60.793 48.2839 66.6236 42.4343 73.8269 42.4336C77.609 42.4431 80.5108 43.4353 83.2829 45.5261C86.0775 47.634 88.7533 50.8674 92.05 55.4022Z" stroke="#45484C"/>
<path d="M91.9219 101.75V166.746H52.9883C50.4324 166.746 48.3711 164.685 48.3711 162.129V101.75H91.9219ZM86.4727 71.5547V98.6992H43.4375C40.8816 98.6992 38.8203 96.6379 38.8203 94.082V76.1719C38.8203 73.616 40.8816 71.5547 43.4375 71.5547H86.4727Z" stroke="#45484C"/>
<path d="M163.672 71.0547H119.551V99.1992H163.672C166.504 99.1992 168.789 96.9141 168.789 94.082V76.1719C168.789 73.3594 166.484 71.0547 163.672 71.0547ZM154.121 167.246C156.934 167.246 159.238 164.961 159.238 162.129V101.25H113.906V167.246H154.121ZM86.9727 99.1992V71.0547H43.4375C40.6055 71.0547 38.3203 73.3398 38.3203 76.1719V94.082C38.3203 96.9141 40.6055 99.1992 43.4375 99.1992H86.9727ZM73.8281 69.0234H101.66L92.4805 55.1367C85.8789 46.0547 81.6211 41.9726 73.8281 41.9726C66.3672 41.9726 60.293 48.0273 60.293 55.5078C60.293 62.9297 66.3477 69.0234 73.8281 69.0234ZM92.4219 167.246V101.25H47.8711V162.129C47.8711 164.961 50.1562 167.246 52.9883 167.246H92.4219ZM94.4727 167.246H111.875V101.25H94.4727V167.246ZM117.5 71.0547H103.379L103.359 71.0742L103.34 71.0547H89.0039V99.1992H117.5V71.0547ZM114.609 55.1562L105.469 69.0234H133.301C140.742 69.0234 146.836 62.9492 146.836 55.4883C146.836 48.0273 140.762 41.9531 133.301 41.9531C125.527 41.9531 121.25 46.0351 114.609 55.1562ZM113.418 32.8906C111.621 29.7656 108.691 27.5195 105.215 26.582C104.043 26.2695 102.871 26.1133 101.699 26.1133C99.3555 26.1133 97.0312 26.7187 94.9414 27.9297C91.8555 29.707 89.4922 32.832 88.4766 36.4844C87.4609 40.1758 87.8906 44.0234 89.668 47.0898L103.359 67.4023L111.426 55.4883C116.68 46.3867 117.285 39.5898 113.418 32.8906ZM105.742 24.6094C109.746 25.7031 113.105 28.2812 115.195 31.875C118.281 37.2656 118.75 42.7734 116.562 49.2383C121.797 42.832 126.172 39.9219 133.281 39.9219C141.855 39.9219 148.848 46.8945 148.848 55.4883C148.848 61.2891 145.664 66.3281 140.957 69.0234H163.672C167.617 69.0234 170.84 72.2461 170.84 76.1914V94.1015C170.84 98.0469 167.617 101.27 163.672 101.27H161.289V162.148C161.289 166.094 158.066 169.316 154.121 169.316H52.9883C49.043 169.316 45.8203 166.094 45.8203 162.148V101.25H43.418C39.4727 101.25 36.25 98.0273 36.25 94.082V76.1719C36.25 72.2266 39.4727 69.0039 43.418 69.0039H66.1133C61.4062 66.3281 58.2422 61.2695 58.2422 55.4687C58.2422 46.875 65.2148 39.9023 73.8086 39.9023C79.043 39.9023 82.8125 41.5039 86.543 44.9219C85.6836 42.0508 85.6641 38.9453 86.4844 35.957C87.6562 31.7773 90.3516 28.2226 93.9062 26.1523C97.5195 24.1016 101.719 23.5351 105.742 24.6094Z" fill="#45484C"/>
</svg>
