<svg width="200" height="200" viewBox="0 0 200 200" fill="none" xmlns="http://www.w3.org/2000/svg">
<path d="M175.371 72.1094H40.0391C33.4375 72.1094 28.0469 66.7187 28.0469 60.1172C28.0469 53.5156 33.4375 48.125 40.0391 48.125H175.371C181.973 48.125 187.363 53.5156 187.363 60.1172C187.363 66.7187 181.973 72.1094 175.371 72.1094Z" fill="#FFB89A"/>
<path d="M157.617 33.3984H137.363C134.121 33.3984 131.504 36.0156 131.504 39.2578C131.504 42.5 134.121 45.1172 137.363 45.1172H157.617C163.789 45.1172 168.828 49.8047 168.828 55.5469V63.8086H24.4531V55.5469C24.4531 49.7852 29.4727 45.1172 35.6641 45.1172H57.2266C60.4688 45.1172 63.0859 42.5 63.0859 39.2578C63.0859 36.0156 60.4688 33.3984 57.2266 33.3984H35.6445C23.0078 33.3984 12.7148 43.3398 12.7148 55.5469V158.613C12.7148 170.82 23.0078 180.762 35.6445 180.762H157.617C170.254 180.762 180.547 170.82 180.547 158.613V55.5664C180.547 43.3398 170.254 33.3984 157.617 33.3984ZM157.617 169.062H35.6445C29.4727 169.062 24.4336 164.375 24.4336 158.633V75.5469H168.809V158.633C168.828 164.395 163.789 169.062 157.617 169.062Z" fill="#45484C"/>
<path d="M87.4219 42.4023C85 41.2109 82.1484 41.8555 80.4492 43.7891C80.0195 42.4805 79.668 40.625 79.668 38.3008C79.668 35.7617 80.0977 33.8086 80.5664 32.4805C82.4219 34.0625 85.1562 34.3555 87.3828 33.0273C90.1562 31.3672 91.0547 27.7539 89.3945 24.9805C86.3672 19.9219 82.3828 19.1797 80.293 19.1797C73.1445 19.1797 67.9688 27.2266 67.9688 38.2812C67.9688 49.3359 73.125 57.4219 80.2734 57.4219C84.2969 57.4219 87.8906 54.8047 90.1172 50.2539C91.543 47.3437 90.332 43.8281 87.4219 42.4023ZM124.199 42.6758C121.777 41.4844 118.926 42.1289 117.227 44.0625C116.797 42.7539 116.445 40.8984 116.445 38.5742C116.445 36.0352 116.875 34.082 117.344 32.7539C119.199 34.3359 121.934 34.6289 124.16 33.3008C126.934 31.6406 127.832 28.0273 126.172 25.2539C123.145 20.1953 119.16 19.4531 117.07 19.4531C109.922 19.4531 104.746 27.5 104.746 38.5547C104.746 49.6094 109.922 57.6563 117.07 57.6563C121.094 57.6563 124.687 55.0391 126.914 50.4883C128.301 47.6172 127.09 44.1016 124.199 42.6758Z" fill="#45484C"/>
<path d="M136.758 100.488H39.1602C35.918 100.488 33.3008 103.105 33.3008 106.348C33.3008 109.59 35.918 112.207 39.1602 112.207H136.758C140 112.207 142.617 109.59 142.617 106.348C142.617 103.105 139.98 100.488 136.758 100.488ZM130.547 134.727H116.094C112.852 134.727 110.234 137.344 110.234 140.586C110.234 143.828 112.852 146.445 116.094 146.445H130.547C133.789 146.445 136.406 143.828 136.406 140.586C136.406 137.344 133.789 134.727 130.547 134.727ZM93.6133 134.727H39.1602C35.918 134.727 33.3008 137.344 33.3008 140.586C33.3008 143.828 35.918 146.445 39.1602 146.445H93.6133C96.8555 146.445 99.4727 143.828 99.4727 140.586C99.4727 137.344 96.8555 134.727 93.6133 134.727Z" fill="#33CC99"/>
</svg>
