<svg width="200" height="200" viewBox="0 0 200 200" fill="none" xmlns="http://www.w3.org/2000/svg">
<path opacity="0.4" d="M140.998 183.334C117.665 183.334 98.665 164.417 98.665 141.001C98.665 117.668 117.582 98.6675 140.998 98.6675C164.332 98.6675 183.332 117.584 183.332 141.001C183.332 164.417 164.415 183.334 140.998 183.334Z" fill="#2979FF"/>
<path opacity="0.4" d="M41.8334 16.6667H74.5C91.75 16.6667 100.083 24.9999 99.6667 41.8333V74.5C100.083 91.75 91.75 100.083 74.5 99.6667H41.8334C25 100 16.6667 91.6667 16.6667 74.4166V41.7501C16.6667 25.0001 25 16.6667 41.8334 16.6667Z" fill="#2979FF"/>
<path d="M75.0807 68.8327C72.4974 68.8327 70.0808 67.8326 67.8308 66.1659C69.9141 62.8326 71.4142 59.0826 72.1642 54.9992H74.9974C78.4141 54.9992 81.2474 52.1659 81.2474 48.7492C81.2474 45.3326 78.4141 42.4992 74.9974 42.4992H66.7474C66.6641 42.4992 66.5808 42.4992 66.5808 42.4992H66.4142H64.2475C63.9142 39.3326 61.3308 36.8327 58.0808 36.8327C54.8308 36.8327 52.2474 39.3326 51.9141 42.4992H41.1642C37.7475 42.4992 34.9142 45.3326 34.9142 48.7492C34.9142 52.1659 37.7475 54.9992 41.1642 54.9992H59.2475C56.7475 62.9992 49.5807 68.8327 41.0807 68.8327C37.6641 68.8327 34.8307 71.666 34.8307 75.0827C34.8307 78.4993 37.6641 81.3327 41.0807 81.3327C47.8307 81.3327 54.0808 79.0827 59.2475 75.3327C63.8308 79.166 69.3307 81.3327 74.9974 81.3327C78.4141 81.3327 81.2474 78.4993 81.2474 75.0827C81.2474 71.666 78.4974 68.8327 75.0807 68.8327Z" fill="#292D32"/>
<path d="M75 189.583C39.4167 189.583 10.4167 160.583 10.4167 125C10.4167 121.583 13.25 118.75 16.6667 118.75C20.0834 118.75 22.9167 121.583 22.9167 125C22.9167 149.667 40.0834 170.333 63.1667 175.75L60.9167 172C59.1667 169 60.0834 165.167 63.0834 163.417C66.0001 161.667 69.9168 162.583 71.6668 165.583L80.4166 180.167C81.5833 182.083 81.5834 184.5 80.5 186.417C79.3334 188.333 77.25 189.583 75 189.583Z" fill="#292D32"/>
<path d="M183.337 81.25C179.92 81.25 177.087 78.4167 177.087 75C177.087 50.3333 159.92 29.6667 136.837 24.25L139.087 27.9999C140.837 30.9999 139.92 34.8334 136.92 36.5834C134.003 38.3334 130.087 37.4168 128.337 34.4167L119.587 19.8333C118.42 17.9167 118.42 15.5 119.503 13.5833C120.587 11.5833 122.67 10.4167 124.92 10.4167C160.503 10.4167 189.503 39.4167 189.503 75C189.587 78.4167 186.753 81.25 183.337 81.25Z" fill="#292D32"/>
<path d="M164.413 152.751L146.58 117.167C145.497 115.084 143.33 113.667 140.997 113.667C138.663 113.667 136.497 115.001 135.413 117.084L117.58 152.668C115.997 155.751 117.247 159.501 120.413 161.084C121.33 161.501 122.247 161.751 123.163 161.751C125.413 161.751 127.663 160.501 128.747 158.334L130.163 155.501H151.747L153.163 158.334C154.747 161.417 158.497 162.667 161.58 161.167C164.747 159.584 165.997 155.834 164.413 152.751ZM136.497 143.001L141.079 133.918L145.663 143.001H136.497Z" fill="#292D32"/>
</svg>
