<svg width="200" height="200" viewBox="0 0 200 200" fill="none" xmlns="http://www.w3.org/2000/svg">
<path d="M191.667 71.1334C191.667 42.3334 168.334 19 139.534 19C123.623 19 109.4 26.1111 99.8449 37.3332C90.2894 26.111 76.0449 19 60.156 19C31.356 19 8.02264 42.3334 8.02264 71.1334C8.02264 86.2445 14.9782 98.8891 24.7338 109.378L100.044 181.778L174.067 110.178C183.444 100.4 191.667 86.6666 191.667 71.1334H191.667Z" fill="#D1525C"/>
<path d="M100.044 181.778L24.7111 109.378C14.9334 98.8891 8 86.2447 8 71.1334C8 42.3334 31.3334 19 60.1334 19C76.0445 19 90.2668 26.1111 99.8223 37.3332L100.044 181.778L100.044 181.778Z" fill="#DB6574"/>
</svg>
