<svg width="200" height="200" viewBox="0 0 200 200" fill="none" xmlns="http://www.w3.org/2000/svg">
<g clip-path="url(#clip0_9_62)">
<path d="M166.667 0H33.3333C14.9238 0 0 14.9238 0 33.3333V166.667C0 185.076 14.9238 200 33.3333 200H166.667C185.076 200 200 185.076 200 166.667V33.3333C200 14.9238 185.076 0 166.667 0Z" fill="white"/>
<path d="M53.3334 173.333H146.667C157.712 173.333 166.667 164.379 166.667 153.333V60C166.667 48.9543 157.712 40 146.667 40H53.3334C42.2877 40 33.3334 48.9543 33.3334 60V153.333C33.3334 164.379 42.2877 173.333 53.3334 173.333Z" fill="#C1F7FD"/>
<path d="M33.3333 158.333C32.3441 158.334 31.3769 158.041 30.5543 157.491C29.7316 156.942 29.0904 156.161 28.7118 155.247C28.3332 154.333 28.2341 153.327 28.4273 152.357C28.6204 151.387 29.0969 150.496 29.7967 149.797L129.797 49.7967C130.735 48.8587 132.007 48.3317 133.333 48.3317C134.66 48.3317 135.932 48.8587 136.87 49.7967C137.808 50.7346 138.335 52.0068 138.335 53.3333C138.335 54.6598 137.808 55.932 136.87 56.87L36.87 156.87C36.4055 157.334 35.854 157.702 35.2472 157.953C34.6404 158.205 33.99 158.334 33.3333 158.333Z" fill="#F2BF80"/>
<path d="M166.667 158.333C166.01 158.334 165.36 158.205 164.753 157.953C164.146 157.702 163.595 157.334 163.13 156.87L63.13 56.87C62.192 55.932 61.6651 54.6598 61.6651 53.3333C61.6651 52.0068 62.192 50.7346 63.13 49.7967C64.068 48.8587 65.3402 48.3317 66.6667 48.3317C67.9932 48.3317 69.2654 48.8587 70.2033 49.7967L170.203 149.797C170.903 150.496 171.38 151.387 171.573 152.357C171.766 153.327 171.667 154.333 171.288 155.247C170.91 156.161 170.268 156.942 169.446 157.491C168.623 158.041 167.656 158.334 166.667 158.333Z" fill="#F2BF80"/>
<path d="M146.667 178.333H53.3333C46.7051 178.326 40.3504 175.69 35.6635 171.003C30.9766 166.316 28.3404 159.962 28.3333 153.333V60C28.3404 53.3718 30.9766 47.017 35.6635 42.3301C40.3504 37.6432 46.7051 35.0071 53.3333 35H146.667C153.295 35.0071 159.65 37.6432 164.337 42.3301C169.023 47.017 171.66 53.3718 171.667 60V153.333C171.66 159.962 169.023 166.316 164.337 171.003C159.65 175.69 153.295 178.326 146.667 178.333ZM53.3333 45C49.3564 45.0044 45.5437 46.5862 42.7316 49.3983C39.9195 52.2104 38.3378 56.0231 38.3333 60V153.333C38.3378 157.31 39.9195 161.123 42.7316 163.935C45.5437 166.747 49.3564 168.329 53.3333 168.333H146.667C150.644 168.329 154.456 166.747 157.268 163.935C160.08 161.123 161.662 157.31 161.667 153.333V60C161.662 56.0231 160.08 52.2104 157.268 49.3983C154.456 46.5862 150.644 45.0044 146.667 45H53.3333Z" fill="#7BCDD1"/>
<path d="M60 66.6667C59.9911 60.6143 61.3558 54.6388 63.9912 49.1903C66.6266 43.7418 70.4641 38.9625 75.2146 35.2122C79.9651 31.4619 85.5046 28.8386 91.416 27.5398C97.3274 26.2409 103.456 26.3005 109.341 27.7139C115.227 29.1274 120.714 31.8579 125.391 35.6998C130.067 39.5417 133.811 44.3947 136.34 49.8934C138.869 55.392 140.118 61.3929 139.991 67.444C139.865 73.495 138.367 79.4385 135.61 84.8267H135.667L105.957 143.027H105.927C105.375 144.121 104.531 145.042 103.488 145.685C102.444 146.328 101.242 146.668 100.017 146.668C98.7909 146.668 97.5893 146.328 96.5458 145.685C95.5022 145.042 94.6578 144.121 94.1067 143.027H94.0766L64.3666 84.8267H64.4067C61.5166 79.2091 60.0061 72.984 60 66.6667ZM100 80C102.637 80 105.215 79.218 107.408 77.7529C109.6 76.2878 111.309 74.2054 112.318 71.7691C113.328 69.3327 113.592 66.6519 113.077 64.0654C112.563 61.479 111.293 59.1033 109.428 57.2386C107.563 55.3739 105.188 54.104 102.601 53.5895C100.015 53.075 97.3339 53.3391 94.8975 54.3483C92.4612 55.3574 90.3788 57.0664 88.9137 59.2591C87.4486 61.4517 86.6666 64.0296 86.6666 66.6667C86.6666 70.2029 88.0714 73.5943 90.5719 76.0947C93.0724 78.5952 96.4638 80 100 80Z" fill="#F2C4BB"/>
<path d="M100 151.667C97.9704 151.668 95.9761 151.136 94.2161 150.125C92.4562 149.115 90.9921 147.66 89.97 145.907C89.8349 145.712 89.7124 145.51 89.6033 145.3L59.8967 87.1C59.8003 86.9114 59.7168 86.7165 59.6467 86.5167C56.5805 80.3495 54.9898 73.554 55 66.6667C55 54.7319 59.741 43.286 68.1802 34.8469C76.6193 26.4077 88.0652 21.6667 100 21.6667C111.935 21.6667 123.381 26.4077 131.82 34.8469C140.259 43.286 145 54.7319 145 66.6667C145.005 73.561 143.407 80.3621 140.333 86.5333C140.264 86.7277 140.182 86.917 140.087 87.1L110.393 145.3C110.287 145.511 110.166 145.714 110.03 145.907C109.008 147.66 107.544 149.114 105.784 150.125C104.024 151.136 102.029 151.667 100 151.667ZM98.27 140.283C98.3678 140.432 98.4579 140.585 98.54 140.743C98.6703 141.02 98.8768 141.255 99.1353 141.419C99.3938 141.583 99.6938 141.67 100 141.67C100.306 141.67 100.606 141.583 100.865 141.419C101.123 141.255 101.33 141.02 101.46 140.743C101.543 140.587 101.63 140.437 101.727 140.29L130.92 83.0933C130.989 82.9103 131.068 82.7312 131.157 82.5567C133.688 77.6428 135.006 72.1942 135 66.6667C135 57.3841 131.312 48.4817 124.749 41.9179C118.185 35.3541 109.283 31.6667 100 31.6667C90.7174 31.6667 81.815 35.3541 75.2512 41.9179C68.6875 48.4817 65 57.3841 65 66.6667C64.9938 72.1932 66.3117 77.6407 68.8433 82.5533C68.936 82.7325 69.0172 82.9173 69.0867 83.1067L98.27 140.283ZM100 85C96.374 85 92.8294 83.9248 89.8145 81.9103C86.7996 79.8958 84.4498 77.0325 83.0622 73.6825C81.6746 70.3325 81.3115 66.6463 82.0189 63.09C82.7263 59.5337 84.4724 56.267 87.0364 53.703C89.6003 51.1391 92.867 49.393 96.4233 48.6856C99.9796 47.9782 103.666 48.3413 107.016 49.7289C110.366 51.1165 113.229 53.4663 115.244 56.4812C117.258 59.4961 118.333 63.0407 118.333 66.6667C118.328 71.5273 116.395 76.1874 112.958 79.6244C109.521 83.0615 104.861 84.9947 100 85ZM100 58.3333C98.3518 58.3333 96.7406 58.8221 95.3702 59.7377C93.9998 60.6534 92.9317 61.9549 92.301 63.4776C91.6703 65.0003 91.5052 66.6759 91.8268 68.2924C92.1483 69.9089 92.942 71.3938 94.1074 72.5592C95.2729 73.7246 96.7577 74.5183 98.3742 74.8399C99.9907 75.1614 101.666 74.9964 103.189 74.3657C104.712 73.7349 106.013 72.6668 106.929 71.2964C107.845 69.926 108.333 68.3148 108.333 66.6667C108.333 64.4565 107.455 62.3369 105.893 60.7741C104.33 59.2113 102.21 58.3333 100 58.3333Z" fill="#F28080"/>
<path d="M60 71.6667C58.6739 71.6667 57.4022 71.1399 56.4645 70.2022C55.5268 69.2645 55 67.9927 55 66.6667C55.0132 54.736 59.7585 43.2977 68.1948 34.8615C76.6311 26.4252 88.0693 21.6799 100 21.6667C101.326 21.6667 102.598 22.1934 103.536 23.1311C104.473 24.0688 105 25.3406 105 26.6667C105 27.9927 104.473 29.2645 103.536 30.2022C102.598 31.1399 101.326 31.6667 100 31.6667C90.7207 31.6772 81.8244 35.3681 75.263 41.9296C68.7015 48.4911 65.0106 57.3873 65 66.6667C65 67.9927 64.4732 69.2645 63.5355 70.2022C62.5978 71.1399 61.3261 71.6667 60 71.6667Z" fill="#FFAFC5"/>
</g>
<defs>
<clipPath id="clip0_9_62">
<rect width="200" height="200" fill="white"/>
</clipPath>
</defs>
</svg>
