<svg width="200" height="200" viewBox="0 0 200 200" fill="none" xmlns="http://www.w3.org/2000/svg">
<path d="M33.3333 158.333C32.3441 158.334 31.3769 158.041 30.5543 157.491C29.7316 156.942 29.0904 156.161 28.7118 155.247C28.3332 154.333 28.2341 153.328 28.4273 152.357C28.6204 151.387 29.0969 150.496 29.7967 149.797L129.797 49.7967C130.735 48.8587 132.007 48.3318 133.333 48.3318C134.66 48.3318 135.932 48.8587 136.87 49.7967C137.808 50.7347 138.335 52.0069 138.335 53.3334C138.335 54.6599 137.808 55.9321 136.87 56.8701L36.87 156.87C36.4055 157.334 35.854 157.702 35.2472 157.954C34.6404 158.205 33.99 158.334 33.3333 158.333Z" fill="#45484C"/>
<path d="M166.667 158.333C166.01 158.334 165.36 158.205 164.753 157.954C164.146 157.702 163.594 157.334 163.13 156.87L63.13 56.8701C62.192 55.9321 61.665 54.6599 61.665 53.3334C61.665 52.0069 62.192 50.7347 63.13 49.7967C64.068 48.8587 65.3401 48.3318 66.6666 48.3318C67.9931 48.3318 69.2653 48.8587 70.2033 49.7967L170.203 149.797C170.903 150.496 171.38 151.387 171.573 152.357C171.766 153.328 171.667 154.333 171.288 155.247C170.91 156.161 170.268 156.942 169.446 157.491C168.623 158.041 167.656 158.334 166.667 158.333Z" fill="#45484C"/>
<path d="M146.667 178.333H53.3333C46.7051 178.326 40.3503 175.69 35.6634 171.003C30.9766 166.316 28.3404 159.962 28.3333 153.333V60C28.3404 53.3718 30.9766 47.017 35.6634 42.3301C40.3503 37.6432 46.7051 35.0071 53.3333 35H146.667C153.295 35.0071 159.65 37.6432 164.337 42.3301C169.023 47.017 171.66 53.3718 171.667 60V153.333C171.66 159.962 169.023 166.316 164.337 171.003C159.65 175.69 153.295 178.326 146.667 178.333ZM53.3333 45C49.3564 45.0044 45.5437 46.5862 42.7316 49.3983C39.9195 52.2104 38.3377 56.0231 38.3333 60V153.333C38.3377 157.31 39.9195 161.123 42.7316 163.935C45.5437 166.747 49.3564 168.329 53.3333 168.333H146.667C150.644 168.329 154.456 166.747 157.268 163.935C160.08 161.123 161.662 157.31 161.667 153.333V60C161.662 56.0231 160.08 52.2104 157.268 49.3983C154.456 46.5862 150.644 45.0044 146.667 45H53.3333Z" fill="#45484C"/>
<path d="M60 66.6667C59.9911 60.6143 61.3558 54.6388 63.9912 49.1904C66.6266 43.7419 70.4641 38.9625 75.2146 35.2123C79.9651 31.462 85.5046 28.8386 91.416 27.5398C97.3274 26.241 103.456 26.3005 109.341 27.714C115.227 29.1275 120.714 31.858 125.391 35.6999C130.067 39.5417 133.811 44.3948 136.34 49.8934C138.869 55.3921 140.118 61.393 139.991 67.444C139.865 73.4951 138.367 79.4386 135.61 84.8267H135.667L105.957 143.027H105.927C105.375 144.122 104.531 145.042 103.488 145.685C102.444 146.328 101.242 146.668 100.017 146.668C98.7909 146.668 97.5893 146.328 96.5458 145.685C95.5022 145.042 94.6578 144.122 94.1067 143.027H94.0766L64.3666 84.8267H64.4067C61.5166 79.2092 60.0061 72.9841 60 66.6667ZM100 80C102.637 80 105.215 79.2181 107.408 77.753C109.6 76.2879 111.309 74.2055 112.318 71.7692C113.328 69.3328 113.592 66.6519 113.077 64.0655C112.563 61.4791 111.293 59.1033 109.428 57.2386C107.563 55.3739 105.188 54.104 102.601 53.5896C100.015 53.0751 97.3339 53.3392 94.8975 54.3483C92.4612 55.3575 90.3788 57.0665 88.9137 59.2591C87.4486 61.4518 86.6666 64.0296 86.6666 66.6667C86.6666 70.2029 88.0714 73.5943 90.5719 76.0948C93.0724 78.5953 96.4638 80 100 80Z" fill="#BABABA"/>
<path d="M100 151.667C97.9704 151.668 95.9761 151.136 94.2161 150.125C92.4561 149.115 90.992 147.66 89.97 145.907C89.8349 145.713 89.7124 145.51 89.6033 145.3L59.8967 87.1C59.8003 86.9114 59.7168 86.7165 59.6467 86.5167C56.5805 80.3495 54.9898 73.554 55 66.6667C55 54.7319 59.741 43.286 68.1802 34.8469C76.6193 26.4077 88.0652 21.6667 100 21.6667C111.935 21.6667 123.381 26.4077 131.82 34.8469C140.259 43.286 145 54.7319 145 66.6667C145.005 73.561 143.407 80.3621 140.333 86.5333C140.264 86.7277 140.182 86.917 140.087 87.1L110.393 145.3C110.287 145.511 110.166 145.714 110.03 145.907C109.008 147.66 107.544 149.114 105.784 150.125C104.024 151.136 102.029 151.667 100 151.667ZM98.27 140.283C98.3678 140.432 98.4579 140.585 98.54 140.743C98.6703 141.02 98.8768 141.255 99.1353 141.419C99.3938 141.583 99.6938 141.67 100 141.67C100.306 141.67 100.606 141.583 100.865 141.419C101.123 141.255 101.33 141.02 101.46 140.743C101.543 140.587 101.63 140.437 101.727 140.29L130.92 83.0934C130.989 82.9104 131.068 82.7312 131.157 82.5567C133.688 77.6428 135.006 72.1942 135 66.6667C135 57.3841 131.312 48.4817 124.749 41.918C118.185 35.3542 109.283 31.6667 100 31.6667C90.7174 31.6667 81.815 35.3542 75.2512 41.918C68.6875 48.4817 65 57.3841 65 66.6667C64.9938 72.1932 66.3117 77.6408 68.8433 82.5534C68.936 82.7325 69.0172 82.9173 69.0867 83.1067L98.27 140.283ZM100 85C96.374 85 92.8294 83.9248 89.8145 81.9103C86.7996 79.8958 84.4498 77.0325 83.0622 73.6825C81.6746 70.3326 81.3115 66.6464 82.0189 63.09C82.7263 59.5337 84.4724 56.267 87.0364 53.7031C89.6003 51.1391 92.867 49.393 96.4233 48.6856C99.9797 47.9782 103.666 48.3413 107.016 49.7289C110.366 51.1165 113.229 53.4663 115.244 56.4812C117.258 59.4961 118.333 63.0407 118.333 66.6667C118.328 71.5274 116.395 76.1874 112.958 79.6245C109.521 83.0615 104.861 84.9947 100 85ZM100 58.3334C98.3518 58.3334 96.7406 58.8221 95.3702 59.7378C93.9998 60.6535 92.9317 61.9549 92.301 63.4777C91.6703 65.0004 91.5052 66.6759 91.8268 68.2924C92.1483 69.9089 92.942 71.3938 94.1074 72.5592C95.2729 73.7247 96.7577 74.5184 98.3742 74.8399C99.9907 75.1614 101.666 74.9964 103.189 74.3657C104.712 73.7349 106.013 72.6668 106.929 71.2964C107.845 69.926 108.333 68.3149 108.333 66.6667C108.333 64.4565 107.455 62.3369 105.893 60.7741C104.33 59.2113 102.21 58.3334 100 58.3334Z" fill="#45484C"/>
<path d="M60 71.6667C58.6739 71.6667 57.4022 71.1399 56.4645 70.2022C55.5268 69.2645 55 67.9928 55 66.6667C55.0132 54.736 59.7585 43.2978 68.1948 34.8615C76.6311 26.4252 88.0693 21.6799 100 21.6667C101.326 21.6667 102.598 22.1935 103.536 23.1312C104.473 24.0688 105 25.3406 105 26.6667C105 27.9928 104.473 29.2645 103.536 30.2022C102.598 31.1399 101.326 31.6667 100 31.6667C90.7207 31.6773 81.8244 35.3682 75.263 41.9296C68.7015 48.4911 65.0106 57.3874 65 66.6667C65 67.9928 64.4732 69.2645 63.5355 70.2022C62.5978 71.1399 61.3261 71.6667 60 71.6667Z" fill="#45484C"/>
</svg>
