<svg width="200" height="200" viewBox="0 0 200 200" fill="none" xmlns="http://www.w3.org/2000/svg">
<path fill-rule="evenodd" clip-rule="evenodd" d="M55.3571 185H144.643C147.589 185 150 182.705 150 179.9V20.1C150 17.295 147.589 15 144.643 15H55.3571C52.4107 15 50 17.295 50 20.1V179.9C50 182.705 52.4107 185 55.3571 185ZM55.3571 28.6102H144.643V164.61H55.3571V28.6102Z" fill="#45484C"/>
<path d="M110.714 174.3H89.2857C88.5562 174.3 88 173.736 88 173.1C88 172.464 88.5562 171.9 89.2857 171.9H110.714C111.444 171.9 112 172.464 112 173.1C112 173.736 111.444 174.3 110.714 174.3Z" fill="#45484C" stroke="#45484C"/>
<path d="M98.9107 22.8606H83.0607C82.3313 22.8606 81.775 22.2965 81.775 21.6606C81.775 21.0246 82.3313 20.4606 83.0607 20.4606H98.9107C99.6402 20.4606 100.196 21.0246 100.196 21.6606C100.196 22.2965 99.6402 22.8606 98.9107 22.8606Z" fill="#45484C" stroke="#45484C"/>
<path d="M112.075 21.6742C112.075 22.316 111.521 22.8776 110.786 22.8776C110.05 22.8776 109.496 22.3159 109.496 21.6742C109.496 21.0325 110.05 20.4708 110.786 20.4708C111.521 20.4708 112.075 21.0325 112.075 21.6742Z" fill="#45484C" stroke="#45484C"/>
<path d="M118.221 21.6742C118.221 22.3159 117.668 22.8776 116.932 22.8776C116.197 22.8776 115.643 22.316 115.643 21.6742C115.643 21.0325 116.197 20.4708 116.932 20.4708C117.668 20.4708 118.221 21.0325 118.221 21.6742Z" fill="#45484C" stroke="#45484C"/>
<path d="M87.0967 56.2863V87.5856" stroke="#45484C" stroke-linecap="round" stroke-linejoin="round"/>
<path d="M82.1687 62.762V81.1097" stroke="#45484C" stroke-linecap="round" stroke-linejoin="round"/>
<path d="M77.25 68.6981V75.1736" stroke="#45484C" stroke-linecap="round" stroke-linejoin="round"/>
<path d="M92.0579 62.762V81.1097" stroke="#45484C" stroke-linecap="round" stroke-linejoin="round"/>
<path d="M97.1889 68.6981V75.1736" stroke="#45484C" stroke-linecap="round" stroke-linejoin="round"/>
<path d="M111.729 56.2863V87.5856" stroke="#45484C" stroke-linecap="round" stroke-linejoin="round"/>
<path d="M106.801 62.762V81.1097" stroke="#45484C" stroke-linecap="round" stroke-linejoin="round"/>
<path d="M101.883 68.6981V75.1736" stroke="#45484C" stroke-linecap="round" stroke-linejoin="round"/>
<path d="M116.69 62.762V81.1097" stroke="#45484C" stroke-linecap="round" stroke-linejoin="round"/>
<path d="M121.821 68.6981V75.1736" stroke="#45484C" stroke-linecap="round" stroke-linejoin="round"/>
<path d="M107.726 117.3L112.634 114.001C114.145 112.986 114.9 112.478 115.522 112.543C116.064 112.6 116.558 112.913 116.88 113.405C117.25 113.968 117.25 114.955 117.25 116.928V126.204C117.25 128.177 117.25 129.164 116.88 129.728C116.558 130.219 116.064 130.533 115.522 130.589C114.9 130.654 114.145 130.147 112.634 129.131L107.726 125.833M89.0595 134.366H101.631C103.764 134.366 104.831 134.366 105.646 133.901C106.363 133.492 106.946 132.839 107.311 132.037C107.726 131.124 107.726 129.929 107.726 127.54V115.593C107.726 113.203 107.726 112.009 107.311 111.096C106.946 110.293 106.363 109.64 105.646 109.231C104.831 108.766 103.764 108.766 101.631 108.766H89.0595C86.926 108.766 85.8592 108.766 85.0443 109.231C84.3275 109.64 83.7447 110.293 83.3795 111.096C82.9643 112.009 82.9643 113.203 82.9643 115.593V127.54C82.9643 129.929 82.9643 131.124 83.3795 132.037C83.7447 132.839 84.3275 133.492 85.0443 133.901C85.8592 134.366 86.926 134.366 89.0595 134.366Z" stroke="#45484C" stroke-width="2" stroke-linecap="round" stroke-linejoin="round"/>
</svg>
