<svg width="200" height="200" viewBox="0 0 200 200" fill="none" xmlns="http://www.w3.org/2000/svg">
<path d="M144.643 185H55.3571C52.4107 185 50 182.705 50 179.9V20.1C50 17.295 52.4107 15 55.3571 15H144.643C147.589 15 150 17.295 150 20.1V179.9C150 182.705 147.589 185 144.643 185Z" fill="#2D2D2D"/>
<path d="M144.643 28.6102H55.3571V164.61H144.643V28.6102Z" fill="#8AD5DD"/>
<path d="M110.714 174.8H89.2857C88.3036 174.8 87.5 174.035 87.5 173.1C87.5 172.165 88.3036 171.4 89.2857 171.4H110.714C111.696 171.4 112.5 172.165 112.5 173.1C112.5 174.035 111.696 174.8 110.714 174.8Z" fill="#C9C9C9"/>
<path d="M98.9107 23.3606H83.0607C82.0786 23.3606 81.275 22.5956 81.275 21.6606C81.275 20.7256 82.0786 19.9606 83.0607 19.9606H98.9107C99.8929 19.9606 100.696 20.7256 100.696 21.6606C100.696 22.5956 99.8929 23.3606 98.9107 23.3606Z" fill="#C9C9C9"/>
<path d="M110.786 23.3776C111.774 23.3776 112.575 22.615 112.575 21.6742C112.575 20.7334 111.774 19.9708 110.786 19.9708C109.798 19.9708 108.996 20.7334 108.996 21.6742C108.996 22.615 109.798 23.3776 110.786 23.3776Z" fill="#C9C9C9"/>
<path d="M116.932 23.3776C117.92 23.3776 118.721 22.615 118.721 21.6742C118.721 20.7334 117.92 19.9708 116.932 19.9708C115.944 19.9708 115.143 20.7334 115.143 21.6742C115.143 22.615 115.944 23.3776 116.932 23.3776Z" fill="#C9C9C9"/>
<path d="M87.0967 56.2862V87.5855" stroke="#F9F9F9" stroke-linecap="round" stroke-linejoin="round"/>
<path d="M82.1687 62.762V81.1098" stroke="#F9F9F9" stroke-linecap="round" stroke-linejoin="round"/>
<path d="M77.25 68.6981V75.1736" stroke="#F9F9F9" stroke-linecap="round" stroke-linejoin="round"/>
<path d="M92.0579 62.762V81.1098" stroke="#F9F9F9" stroke-linecap="round" stroke-linejoin="round"/>
<path d="M97.1889 68.6981V75.1736" stroke="#F9F9F9" stroke-linecap="round" stroke-linejoin="round"/>
<path d="M111.729 56.2862V87.5855" stroke="#F9F9F9" stroke-linecap="round" stroke-linejoin="round"/>
<path d="M106.801 62.762V81.1098" stroke="#F9F9F9" stroke-linecap="round" stroke-linejoin="round"/>
<path d="M101.883 68.6981V75.1736" stroke="#F9F9F9" stroke-linecap="round" stroke-linejoin="round"/>
<path d="M116.69 62.762V81.1098" stroke="#F9F9F9" stroke-linecap="round" stroke-linejoin="round"/>
<path d="M121.821 68.6981V75.1736" stroke="#F9F9F9" stroke-linecap="round" stroke-linejoin="round"/>
<path d="M107.726 117.3L112.634 114.001C114.145 112.986 114.9 112.478 115.522 112.543C116.064 112.6 116.558 112.913 116.88 113.405C117.25 113.968 117.25 114.955 117.25 116.928V126.204C117.25 128.177 117.25 129.164 116.88 129.728C116.558 130.219 116.064 130.533 115.522 130.589C114.9 130.654 114.145 130.146 112.634 129.131L107.726 125.833M89.0595 134.366H101.631C103.764 134.366 104.831 134.366 105.646 133.901C106.363 133.492 106.946 132.839 107.311 132.037C107.726 131.124 107.726 129.929 107.726 127.54V115.593C107.726 113.203 107.726 112.009 107.311 111.096C106.946 110.293 106.363 109.64 105.646 109.231C104.831 108.766 103.764 108.766 101.631 108.766H89.0595C86.926 108.766 85.8592 108.766 85.0443 109.231C84.3275 109.64 83.7447 110.293 83.3795 111.096C82.9643 112.009 82.9643 113.203 82.9643 115.593V127.54C82.9643 129.929 82.9643 131.124 83.3795 132.037C83.7447 132.839 84.3275 133.492 85.0443 133.901C85.8592 134.366 86.926 134.366 89.0595 134.366Z" stroke="#F9F9F9" stroke-width="2" stroke-linecap="round" stroke-linejoin="round"/>
</svg>
