<svg width="200" height="200" viewBox="0 0 200 200" fill="none" xmlns="http://www.w3.org/2000/svg">
<path fill-rule="evenodd" clip-rule="evenodd" d="M72.8068 156.917C76.2586 156.917 79.0568 159.716 79.0568 163.167C79.0568 164.611 79.4223 166.102 80.2139 167.574C81.0112 169.057 82.2445 170.521 83.9417 171.828C85.64 173.136 87.7358 174.232 90.1367 174.998C92.5367 175.764 95.145 176.168 97.8033 176.168C100.462 176.168 103.07 175.764 105.469 174.998C107.871 174.232 109.967 173.136 111.665 171.828C113.362 170.521 114.595 169.057 115.392 167.574C116.184 166.102 116.55 164.611 116.55 163.167C116.55 159.716 119.348 156.917 122.8 156.917C126.252 156.917 129.05 159.716 129.05 163.167C129.05 166.78 128.122 170.295 126.402 173.495C124.687 176.683 122.237 179.463 119.292 181.732C116.348 183.999 112.932 185.738 109.268 186.907C105.602 188.077 101.71 188.668 97.8033 188.668C93.8967 188.668 90.0042 188.077 86.3383 186.907C82.6738 185.738 79.2584 183.999 76.3145 181.732C73.3694 179.463 70.9202 176.683 69.2052 173.495C67.4843 170.295 66.5568 166.78 66.5568 163.167C66.5568 159.716 69.355 156.917 72.8068 156.917Z" fill="#45484C"/>
<path fill-rule="evenodd" clip-rule="evenodd" d="M67.9392 20.8888C83.7958 12.9977 101.948 11.5308 118.685 16.5408C121.992 17.5307 123.87 21.0139 122.88 24.3206C121.89 27.6274 118.407 29.5056 115.1 28.5157C101.382 24.4094 86.5042 25.6123 73.5081 32.0796C59.0405 39.2793 49.8942 54.0471 49.8942 70.2071V81.2178C49.8942 93.0825 46.9378 104.76 41.2921 115.195L39.4054 118.683C31.8316 132.682 40.1119 149.998 55.7634 152.89C83.5542 158.027 112.052 158.027 139.842 152.89L141.177 152.643C156.827 149.751 165.545 132.877 158.85 118.439L156.645 113.683C153.408 106.703 151.304 99.2725 150.394 91.6692C149.984 88.2417 152.43 85.1309 155.857 84.7209C159.285 84.3109 162.396 86.7567 162.806 90.1842C163.56 96.4842 165.303 102.642 167.985 108.424L170.19 113.181C180.321 135.025 167.128 160.559 143.45 164.935L142.115 165.182C112.822 170.597 82.7844 170.597 53.4914 165.182C29.4945 160.747 16.7991 134.198 28.4113 112.734L30.298 109.247C34.9553 100.638 37.3942 91.005 37.3942 81.2178V70.2071C37.3942 49.3039 49.2251 30.2015 67.9392 20.8888Z" fill="#45484C"/>
<path fill-rule="evenodd" clip-rule="evenodd" d="M148.835 35.726C140.781 35.726 134.252 42.2551 134.252 50.3093C134.252 58.3635 140.781 64.8926 148.835 64.8926C156.889 64.8926 163.418 58.3635 163.418 50.3093C163.418 42.2551 156.889 35.726 148.835 35.726ZM121.752 50.3093C121.752 35.3515 133.878 23.226 148.835 23.226C163.793 23.226 175.918 35.3515 175.918 50.3093C175.918 65.267 163.793 77.3926 148.835 77.3926C133.878 77.3926 121.752 65.267 121.752 50.3093Z" fill="#45484C"/>
</svg>
