<svg width="200" height="200" viewBox="0 0 200 200" fill="none" xmlns="http://www.w3.org/2000/svg">
<g clip-path="url(#clip0_9_110)">
<path d="M160.285 136.906C142.862 136.906 128.738 151.029 128.738 168.452C128.738 185.877 142.862 200 160.285 200C177.708 200 191.832 185.877 191.832 168.452C191.831 151.029 177.707 136.906 160.285 136.906ZM180.78 183.73L175.845 188.664C175.44 189.07 174.779 189.07 174.374 188.664L164.654 178.944L164.286 179.312C163.879 179.718 163.221 179.718 162.814 179.312L160.457 176.955C160.052 176.549 160.052 175.889 160.457 175.483L162.874 173.067L160.723 170.916L155.313 176.328C156.318 179.192 155.678 182.511 153.391 184.797C151.843 186.345 149.786 187.192 147.597 187.183C147.41 187.182 147.232 187.106 147.106 186.977C147.042 186.912 146.99 186.836 146.954 186.75C146.846 186.489 146.906 186.188 147.106 185.99L149.378 183.717L148.021 178.648L142.953 177.29L140.679 179.564C140.48 179.763 140.179 179.823 139.92 179.715C139.659 179.607 139.488 179.353 139.487 179.072C139.477 176.883 140.325 174.825 141.871 173.278C144.159 170.993 147.477 170.352 150.343 171.357L155.753 165.946L148.611 158.806L143.553 155.55L141.297 151.568L143.684 149.183L147.664 151.439L150.921 156.497L158.061 163.638L162.903 158.795C161.898 155.93 162.538 152.612 164.825 150.325C166.374 148.777 168.43 147.93 170.619 147.939C170.902 147.941 171.155 148.111 171.262 148.372C171.37 148.634 171.31 148.934 171.11 149.133L168.837 151.405L170.195 156.474L175.264 157.832L177.538 155.559C177.736 155.359 178.037 155.299 178.297 155.407C178.558 155.515 178.728 155.769 178.729 156.05C178.739 158.239 177.891 160.297 176.346 161.844C174.058 164.13 170.739 164.771 167.874 163.766L163.032 168.608L165.181 170.759L167.597 168.343C168.004 167.936 168.663 167.936 169.07 168.343L171.426 170.699C171.833 171.106 171.833 171.766 171.426 172.172L171.059 172.539L180.778 182.259C181.187 182.664 181.187 183.323 180.78 183.73Z" fill="black"/>
<path d="M143.737 132.783L124.339 125.049L114.927 117.121C112.442 115.02 108.772 115.175 106.467 117.467L93.3828 130.475L80.2621 117.461C77.9553 115.174 74.2894 115.025 71.806 117.119L62.3956 125.047L22.2083 141.073C9.26789 146.227 9.2783 192.053 8.16775 196.26H131.807C124.511 189.227 119.958 179.364 119.958 168.451C119.957 152.408 129.786 138.62 143.737 132.783Z" fill="black"/>
<path d="M47.3582 75.8213L54.9053 75.8023C59.5672 100.159 76.1105 114.018 93.3771 114.018C110.644 114.018 120.675 105.81 127.328 90.6831C122.249 94.6671 114.866 98.3112 104.541 99.0639C103.593 100.477 101.98 101.408 100.15 101.408H95.327C92.4072 101.408 90.0412 99.0412 90.0412 96.1213C90.0412 93.2015 92.4072 90.8351 95.327 90.8351H100.15C101.86 90.8351 103.375 91.6507 104.342 92.9099C120.942 91.5773 128.749 81.5094 131.862 75.8251L139.396 75.8222C144.01 75.8222 147.749 72.0811 147.749 67.4689V48.5355C147.749 45.5787 146.209 42.986 143.89 41.5015C141.1 18.194 119.512 0 93.3771 0C67.2421 0 45.6549 18.194 42.8648 41.5005C40.5462 42.9855 39.0058 45.5778 39.0058 48.5345V67.4679C39.0049 72.0796 42.7441 75.8213 47.3582 75.8213ZM93.3767 9.46719C113.947 9.46719 131.054 23.0324 134.208 40.7299C133.222 41.1043 132.328 41.6572 131.562 42.3531C126.636 26.8001 112.403 17.5549 93.3767 17.5549C74.35 17.5549 60.1097 26.7949 55.177 42.3398C54.4144 41.6506 53.5249 41.1015 52.5455 40.7299C55.6996 23.0324 72.8068 9.46719 93.3767 9.46719Z" fill="black"/>
</g>
<defs>
<clipPath id="clip0_9_110">
<rect width="200" height="200" fill="white"/>
</clipPath>
</defs>
</svg>
