<svg width="200" height="200" viewBox="0 0 200 200" fill="none" xmlns="http://www.w3.org/2000/svg">
<g clip-path="url(#clip0_34_316)">
<path d="M173.042 172.401C173.418 171.481 173.233 170.385 172.487 169.638L170.131 167.282C169.138 166.29 167.529 166.29 166.537 167.282L165.182 168.637L165.153 168.608L168.306 165.455C171.464 166.218 174.939 165.37 177.406 162.905L177.407 162.904C179.234 161.075 180.241 158.633 180.229 156.043L180.229 156.04C180.224 155.157 179.691 154.362 178.873 154.023C178.051 153.68 177.103 153.87 176.476 154.5C176.475 154.501 176.474 154.502 176.473 154.502L174.816 156.159L171.42 155.25L170.51 151.854L172.167 150.197C172.168 150.196 172.169 150.195 172.17 150.194C172.801 149.565 172.985 148.62 172.65 147.803L172.65 147.801C172.31 146.976 171.511 146.445 170.629 146.439L170.625 146.439C168.036 146.429 165.596 147.434 163.765 149.264L163.765 149.264C161.298 151.731 160.452 155.206 161.214 158.364L158.061 161.516L152.095 155.55L148.925 150.627L148.725 150.317L148.404 150.135L144.423 147.878L143.43 147.315L142.623 148.122L140.237 150.507L139.429 151.314L139.992 152.308L142.248 156.29L142.431 156.611L142.742 156.812L147.664 159.98L153.632 165.946L149.911 169.668C146.753 168.905 143.278 169.752 140.811 172.217L140.811 172.218C138.982 174.047 137.976 176.488 137.987 179.077L173.042 172.401ZM173.042 172.401L181.835 181.194C181.836 181.195 181.837 181.196 181.838 181.196C182.835 182.189 182.832 183.8 181.84 184.791L176.908 189.723C176.907 189.723 176.907 189.724 176.906 189.724C175.915 190.717 174.302 190.716 173.312 189.723L164.516 180.926C163.596 181.304 162.5 181.119 161.754 180.372L159.397 178.015L159.396 178.015C158.406 177.023 158.406 175.415 159.395 174.424L159.397 174.422L160.752 173.067L160.723 173.037L157.002 176.759C157.764 179.916 156.918 183.392 154.452 185.858L154.452 185.858C152.621 187.689 150.18 188.694 147.591 188.683L147.586 188.683C147.006 188.679 146.446 188.446 146.036 188.028M173.042 172.401L146.036 188.028M146.036 188.028C145.849 187.838 145.683 187.602 145.567 187.322M146.036 188.028L147.106 185.99L149.378 183.717M145.567 187.322L146.954 186.75L145.568 187.324C145.568 187.323 145.568 187.322 145.567 187.322ZM145.567 187.322C145.229 186.503 145.416 185.557 146.046 184.928L146.045 184.929L147.106 185.99L146.049 184.925L147.705 183.268M147.705 183.268L147.929 184.104L149.378 183.717M147.705 183.268L146.796 179.873M147.705 183.268L148.317 182.656L149.378 183.717M149.378 183.717L146.796 179.873M146.796 179.873L147.633 180.097L148.021 178.648L146.572 179.036L146.796 179.873ZM146.796 179.873L143.401 178.963M146.796 179.873L144.014 178.351L143.401 178.963M143.401 178.963L141.74 180.624M143.401 178.963L141.74 180.624M141.74 180.624C141.74 180.624 141.74 180.624 141.74 180.624C141.115 181.249 140.17 181.444 139.344 181.1C138.527 180.761 137.99 179.965 137.987 179.078C137.987 179.078 137.987 179.079 137.987 179.079L141.74 180.624ZM130.238 168.452C130.238 151.858 143.69 138.406 160.285 138.406C176.879 138.406 190.331 151.858 190.332 168.452C190.332 185.048 176.88 198.5 160.285 198.5C143.69 198.5 130.238 185.048 130.238 168.452Z" stroke="#45484C" stroke-width="3"/>
<path d="M126.193 193.76H10.997C11.0155 193.54 11.0335 193.315 11.0514 193.089C11.1342 192.038 11.2216 190.786 11.3188 189.392C11.3766 188.562 11.438 187.683 11.5039 186.766C11.8604 181.811 12.3629 175.594 13.2281 169.366C14.0964 163.113 15.3145 156.971 17.0629 152.127C17.9365 149.707 18.9106 147.703 19.9766 146.195C21.0458 144.682 22.1121 143.803 23.1332 143.396L23.1343 143.395L63.3217 127.37L63.6972 127.22L64.0064 126.959L73.4168 119.031L73.4175 119.031C74.9109 117.771 77.1137 117.86 78.5015 119.236C78.5016 119.236 78.5017 119.236 78.5018 119.236L91.6223 132.25L93.3849 133.998L95.1455 132.248L108.229 119.24C108.229 119.24 108.229 119.24 108.229 119.24C109.618 117.86 111.822 117.769 113.313 119.03L113.317 119.033L122.728 126.961L123.037 127.221L123.413 127.371L137.657 133.05C125.578 140.223 117.457 153.401 117.458 168.451L126.193 193.76ZM126.193 193.76C120.727 186.779 117.458 177.993 117.458 168.451L126.193 193.76Z" stroke="#45484C" stroke-width="5"/>
<path d="M57.3607 75.3324L56.9712 73.2971L54.899 73.3023L47.3582 73.3213C47.3572 73.3213 47.3562 73.3213 47.3552 73.3213C44.1236 73.3197 41.5051 70.6984 41.5058 67.4685V67.4679V48.5345C41.5058 46.4698 42.5779 44.6531 44.2131 43.6058L45.2068 42.9693L45.3471 41.7977C47.969 19.8967 68.3522 2.5 93.3771 2.5C118.402 2.5 138.786 19.8967 141.408 41.7987L141.548 42.9705L142.542 43.6069C144.177 44.6536 145.249 46.4706 145.249 48.5355V67.4689C145.249 70.7006 142.629 73.3222 139.396 73.3222H139.395L131.861 73.3251L130.38 73.3256L129.669 74.6242C126.877 79.7222 119.989 88.6986 105.32 90.3062C103.95 89.0857 102.141 88.3351 100.15 88.3351H95.327C91.0262 88.3351 87.5412 91.8211 87.5412 96.1213C87.5412 100.422 91.0262 103.908 95.327 103.908H100.15C102.382 103.908 104.393 102.966 105.81 101.467C111.679 100.919 116.642 99.4711 120.799 97.5629C118.495 101.033 115.881 103.836 112.876 105.991C107.882 109.573 101.594 111.518 93.3771 111.518C77.5882 111.518 61.8538 98.8076 57.3607 75.3324ZM135.096 43.0669L137.033 42.331L136.669 40.2913C133.274 21.2393 114.986 6.96718 93.3767 6.96718C71.7674 6.96718 53.4798 21.2393 50.0843 40.2912L49.7206 42.332L51.6587 43.0673C52.3431 43.327 52.9657 43.711 53.5007 44.1946L56.3844 46.8008L57.5599 43.096C62.0956 28.8021 75.1984 20.0549 93.3767 20.0549C111.554 20.0549 124.649 28.8061 129.178 43.108L130.356 46.8249L133.242 44.204C133.78 43.716 134.406 43.3291 135.096 43.0669Z" stroke="#45484C" stroke-width="5"/>
</g>
<defs>
<clipPath id="clip0_34_316">
<rect width="200" height="200" fill="white"/>
</clipPath>
</defs>
</svg>
