<svg width="201" height="239" viewBox="0 0 201 239" fill="none" xmlns="http://www.w3.org/2000/svg">
<g clip-path="url(#clip0_14_78)">
<path d="M140.772 239H60.2278C51.6444 238.97 44.6942 230.706 44.6691 220.5V18.5001C44.6942 8.29405 51.6444 0.029875 60.2278 0H140.772C149.356 0.029875 156.306 8.29405 156.331 18.5001V220.5C156.303 230.702 149.352 238.966 140.772 239Z" fill="#54424A" stroke="#54424A"/>
<path d="M148.966 18.8586H52.0339V207.332H148.966V18.8586Z" fill="#BBA5AF" stroke="#54424A"/>
<path d="M115.038 11.401H95.2018C94.3067 11.3973 93.5844 10.5384 93.5812 9.4741C93.5844 8.40981 94.3067 7.5509 95.2018 7.54716H115.038C115.933 7.5509 116.655 8.40981 116.659 9.4741C116.655 10.5384 115.933 11.3973 115.038 11.401Z" fill="#BBA5AF" stroke="#54424A"/>
<path d="M85.9621 11.401C86.8571 11.401 87.5826 10.5383 87.5826 9.4741C87.5826 8.40988 86.8571 7.54716 85.9621 7.54716C85.067 7.54716 84.3415 8.40988 84.3415 9.4741C84.3415 10.5383 85.067 11.401 85.9621 11.401Z" fill="#BBA5AF" stroke="#54424A"/>
<path d="M100.5 232.263C96.2664 232.263 92.8369 228.185 92.8369 223.151C92.8369 218.117 96.2664 214.039 100.5 214.039C104.734 214.039 108.163 218.117 108.163 223.151C108.157 228.182 104.73 232.256 100.5 232.263ZM100.5 215.903C97.1364 215.903 94.4072 219.148 94.4072 223.148C94.4072 227.147 97.1364 230.392 100.5 230.392C103.864 230.392 106.593 227.147 106.593 223.148C106.59 219.148 103.864 215.907 100.5 215.903Z" fill="#BBA5AF" stroke="#54424A"/>
<path d="M74.6495 40.4545H58.9464V59.1264H74.6495V40.4545Z" fill="#FF9CCE" stroke="#54424A"/>
<path d="M97.1175 40.4545H81.4144V59.1264H97.1175V40.4545Z" fill="#FBF4D7" stroke="#54424A"/>
<path d="M119.595 40.4545H103.892V59.1264H119.595V40.4545Z" fill="#FF9CCE" stroke="#54424A"/>
<path d="M142.05 40.4545H126.347V59.1264H142.05V40.4545Z" fill="#54424A" stroke="#54424A"/>
<path d="M74.6495 70.8448H58.9464V89.5167H74.6495V70.8448Z" fill="#FBF4D7" stroke="#54424A"/>
<path d="M97.1175 70.8448H81.4144V89.5167H97.1175V70.8448Z" fill="#FF9CCE" stroke="#54424A"/>
<path d="M119.595 70.8448H103.892V89.5167H119.595V70.8448Z" fill="#54424A" stroke="#54424A"/>
<path d="M142.05 70.8448H126.347V89.5167H142.05V70.8448Z" fill="#FF9CCE" stroke="#54424A"/>
<path d="M74.6495 101.239H58.9464V119.911H74.6495V101.239Z" fill="#54424A" stroke="#54424A"/>
<path d="M97.1175 101.239H81.4144V119.911H97.1175V101.239Z" fill="#FBF4D7" stroke="#54424A"/>
<path d="M119.595 101.239H103.892V119.911H119.595V101.239Z" fill="#FBF4D7" stroke="#54424A"/>
<path d="M142.05 101.239H126.347V119.911H142.05V101.239Z" fill="#FF9CCE" stroke="#54424A"/>
<path d="M74.6495 131.637H58.9464V150.309H74.6495V131.637Z" fill="#FF9CCE" stroke="#54424A"/>
<path d="M97.1176 131.637H81.4144V150.309H97.1176V131.637Z" fill="#FF9CCE" stroke="#54424A"/>
<path d="M119.595 131.637H103.892V150.309H119.595V131.637Z" fill="#54424A" stroke="#54424A"/>
<path d="M142.05 131.637H126.347V150.309H142.05V131.637Z" fill="#FBF4D7" stroke="#54424A"/>
<path d="M74.6495 161.997H58.9464V180.669H74.6495V161.997Z" fill="#FBF4D7" stroke="#54424A"/>
<path d="M97.1175 161.997H81.4144V180.669H97.1175V161.997Z" fill="#54424A" stroke="#54424A"/>
<path d="M119.595 161.997H103.892V180.669H119.595V161.997Z" fill="#FF9CCE" stroke="#54424A"/>
<path d="M142.05 161.997H126.347V180.669H142.05V161.997Z" fill="#FF9CCE" stroke="#54424A"/>
</g>
<defs>
<clipPath id="clip0_14_78">
<rect width="201" height="239" fill="white"/>
</clipPath>
</defs>
</svg>
