<svg width="201" height="239" viewBox="0 0 201 239" fill="none" xmlns="http://www.w3.org/2000/svg">
<path d="M176.067 2.62561L13.5461 55.0811L35.4709 169.244L197.992 116.788L176.067 2.62561Z" fill="#D273A5"/>
<path d="M194.254 88.4988L183.014 29.8792L178.131 4.45482L177.278 0L175.211 0.66997L154.23 7.43601L34.5718 46.0917L11.5238 53.5277L15.3219 73.2572L15.7094 75.3673L16.1226 77.4441L17.2593 83.373L19.8172 96.738L28.5246 141.992L33.5371 168.12L34.2605 171.837L37.1027 170.933L57.2828 164.401L166.477 129.162L176.967 125.779L181.437 124.339L183.065 123.803L184.668 123.3L199.99 118.343L194.254 88.4988ZM168.984 123.905L106.352 144.137L95.5508 147.621L56.4828 160.249L36.6906 166.647L31.7554 140.955L22.2211 91.3793L20.4898 82.3354L19.3531 76.4065L18.9398 74.3302L18.5523 72.2195L15.5551 56.6436L35.373 50.2452L155.057 11.6234L174.85 5.22556L179.785 30.9179L191.05 89.5375L195.986 115.196L183.868 119.115L182.24 119.618L180.638 120.154L176.168 121.594L168.984 123.905Z" fill="#550035"/>
<path d="M112.675 121.893C97.3781 126.831 81.8344 114.715 78.025 94.8836C74.216 75.0523 83.5621 54.9016 98.8594 49.9632C114.157 45.0252 129.7 57.1414 133.51 76.9726C137.319 96.8038 127.973 116.955 112.675 121.893Z" fill="#550035"/>
<path d="M116.39 85.8225C115.787 84.6142 115.01 83.6835 114.06 83.0302C113.287 82.4286 112.429 82.0417 111.484 81.8665C110.539 81.6913 109.385 81.6928 108.023 81.8741L107.76 81.906L104.471 82.3005C103.836 82.3967 103.286 82.3871 102.822 82.2782C102.629 82.2347 102.444 82.1759 102.267 82.105C102.022 82.0063 101.796 81.8827 101.585 81.7358C101.216 81.4502 100.93 81.0998 100.72 80.6871C100.514 80.2739 100.362 79.8242 100.268 79.3365C100.021 78.0477 100.164 76.8293 100.698 75.6783C100.771 75.5208 100.853 75.3694 100.946 75.2276C101.52 74.3095 102.457 73.6425 103.755 73.2237C104.459 72.9964 105.208 72.8419 106.003 72.7629C106.27 72.7361 106.541 72.7173 106.817 72.7057C107.92 72.6647 109.022 73.0571 110.121 73.8836L112.79 68.1997C111.256 67.0335 109.688 66.3584 108.085 66.1741C107.057 66.0571 105.948 66.1063 104.765 66.3291C104.573 65.4555 104.132 64.7501 103.567 64.3121C102.978 63.8507 102.253 63.6826 101.538 63.9135C100.107 64.3754 99.2257 66.2718 99.5828 68.1298L99.6218 68.3324C99.2917 68.5542 98.9765 68.7902 98.6769 69.0459C97.5495 69.999 96.6523 71.1115 95.9839 72.378C95.3163 73.6471 94.8847 75.0427 94.6933 76.5635C94.4999 78.0847 94.566 79.6814 94.887 81.3515C95.4949 84.516 96.6464 86.7315 98.341 87.9924C99.1402 88.5854 100.028 88.9906 101.011 89.2098C101.787 89.3805 102.667 89.4327 103.66 89.3582C103.929 89.34 104.203 89.3142 104.487 89.2782L108.039 88.8518C108.438 88.8007 108.784 88.7733 109.078 88.7657C109.339 88.7622 109.56 88.7723 109.739 88.8017C110.121 88.8624 110.492 89.0199 110.855 89.2706C111.591 89.8464 112.085 90.7782 112.332 92.0639C112.619 93.5608 112.41 94.8476 111.705 95.9227C111.434 96.3405 111.088 96.7172 110.669 97.052C110.003 97.5883 109.151 98.0223 108.111 98.358C107.228 98.6431 106.353 98.8168 105.489 98.8771C105.069 98.9064 104.654 98.91 104.238 98.8882C102.972 98.8168 101.769 98.3388 100.629 97.45L97.9081 103.313C99.6574 104.709 101.451 105.486 103.293 105.649C104.389 105.747 105.544 105.689 106.759 105.478C107.136 107.292 108.582 108.399 109.995 107.943C111.428 107.48 112.307 105.582 111.951 103.727L111.942 103.68C112.44 103.394 112.917 103.075 113.374 102.725C114.58 101.803 115.565 100.708 116.334 99.4437C117.103 98.1792 117.623 96.7643 117.892 95.2001C118.162 93.6358 118.121 91.9495 117.774 90.1416C117.454 88.4715 116.993 87.0338 116.39 85.8225Z" fill="#D273A5"/>
<path d="M60.505 118.035C65.5984 118.035 69.7273 112.682 69.7273 106.079C69.7273 99.4762 65.5984 94.1235 60.505 94.1235C55.4117 94.1235 51.2828 99.4762 51.2828 106.079C51.2828 112.682 55.4117 118.035 60.505 118.035Z" fill="#550035"/>
<path d="M33.5129 67.3956C33.2027 68.2666 32.841 69.1036 32.4793 69.9412V69.9747C32.014 70.9125 31.5492 71.7835 31.0066 72.6545C29.1718 75.736 26.8464 78.349 24.1078 80.2582C22.9711 81.0958 21.7562 81.7991 20.4902 82.3349C19.9734 82.536 19.4308 82.7375 18.8882 82.9381C18.3457 83.1052 17.8031 83.2394 17.2605 83.3736L16.1238 77.4446L15.7105 75.3678L15.323 73.2577L11.525 53.5282L34.573 46.0922C34.7281 46.7622 34.8832 47.4322 35.0121 48.1356C35.1672 48.839 35.2707 49.5423 35.3738 50.2457C36.1738 56.241 35.4507 62.2034 33.5129 67.3956Z" fill="#550035"/>
<path d="M56.95 162.306C57.0848 163.007 57.1969 163.71 57.2902 164.414L34.2625 171.848L28.5285 141.995C29.0484 141.773 29.5801 141.571 30.1242 141.396C30.6648 141.221 31.207 141.076 31.75 140.955C42.523 138.556 53.0703 146.778 56.4883 160.237C56.6601 160.916 56.8156 161.605 56.95 162.306Z" fill="#550035"/>
<path d="M183.014 29.8792C182.472 30.0798 181.955 30.2808 181.412 30.4484C180.87 30.6495 180.327 30.7837 179.785 30.9174C175.108 31.9555 170.483 30.9842 166.452 28.4385C165.186 27.6683 163.997 26.7299 162.886 25.625C159.321 22.2417 156.53 17.4182 155.057 11.6229C154.877 10.953 154.721 10.2496 154.592 9.54619C154.437 8.8428 154.334 8.1394 154.23 7.43601L175.211 0.66997L177.278 0L178.131 4.45482L183.014 29.8792Z" fill="#550035"/>
<path d="M194.266 88.4928L200 118.346L176.972 125.779C176.8 125.101 176.645 124.411 176.51 123.711C176.375 123.01 176.263 122.307 176.17 121.602C174.32 107.636 180.662 93.9634 191.044 89.5324C191.564 89.3106 192.096 89.1091 192.64 88.9333C193.18 88.7596 193.723 88.6138 194.266 88.4928Z" fill="#550035"/>
<path d="M151.258 88.7389C156.351 88.7389 160.48 83.3862 160.48 76.7832C160.48 70.1803 156.351 64.8276 151.258 64.8276C146.165 64.8276 142.036 70.1803 142.036 76.7832C142.036 83.3862 146.165 88.7389 151.258 88.7389Z" fill="#550035"/>
<path d="M164.524 27.3277L2.00281 79.7832L23.9275 193.946L186.449 141.49L164.524 27.3277Z" fill="#FF9CCE"/>
<path d="M184.668 123.302L184.281 121.192L183.868 119.115L182.731 113.186L180.173 99.8205L171.465 54.5664L166.453 28.4391L165.729 24.721L162.887 25.6255L142.707 32.1571L33.5129 67.3956L23.0223 70.7788L18.552 72.219L16.9242 72.7553L15.3223 73.2577L0 78.2148L5.73633 108.061L16.9762 166.68L20.9039 187.113L22.7125 196.56L27.1051 195.152L45.7605 189.122L165.419 150.467L188.467 143.031L184.668 123.302ZM31.0063 72.6551L93.6387 52.4228L104.439 48.9387L143.507 36.3101L163.3 29.9127L168.235 55.6045L177.769 105.18L179.5 114.224L180.637 120.153L181.05 122.229L181.438 124.339L184.435 139.915L164.617 146.313L44.9328 184.935L25.141 191.334L20.2059 165.642L8.94023 107.023L4.00508 81.3637L16.1234 77.4446L17.7512 76.9422L19.3531 76.406L23.8234 74.9658L31.0063 72.6551Z" fill="#550035"/>
<path d="M101.133 146.595C85.8359 151.533 70.2922 139.417 66.4828 119.585C62.6738 99.7542 72.0199 79.6034 87.3172 74.665C102.614 69.727 118.158 81.8432 121.968 101.674C125.777 121.506 116.43 141.656 101.133 146.595Z" fill="#550035"/>
<path d="M104.848 110.524C104.245 109.316 103.468 108.385 102.518 107.732C101.745 107.13 100.888 106.743 99.9422 106.568C98.9973 106.393 97.8434 106.394 96.4809 106.575L96.2176 106.607L92.9293 107.002C92.2938 107.098 91.7438 107.088 91.2801 106.979C91.0863 106.935 90.902 106.877 90.725 106.806C90.4801 106.707 90.2543 106.583 90.0434 106.437C89.6734 106.151 89.3875 105.801 89.1781 105.388C88.9715 104.975 88.8199 104.525 88.7262 104.037C88.4785 102.749 88.6223 101.53 89.1563 100.379C89.2293 100.222 89.3109 100.07 89.4039 99.9284C89.9781 99.0102 90.9148 98.3433 92.2125 97.9245C92.9168 97.6971 93.666 97.5427 94.4613 97.4637C94.7277 97.4369 94.9984 97.4181 95.275 97.4065C96.3781 97.3655 97.4801 97.7574 98.5793 98.5844L101.248 92.9C99.7141 91.7338 98.1461 91.0587 96.543 90.8744C95.5152 90.7574 94.4066 90.8065 93.2231 91.0293C93.0313 90.1563 92.5902 89.4504 92.0254 89.0129C91.4367 88.5515 90.7117 88.3834 89.9961 88.6143C88.5652 89.0762 87.6836 90.9726 88.0406 92.8306L88.0797 93.0332C87.7496 93.255 87.4344 93.491 87.1348 93.7467C86.0074 94.6998 85.1102 95.8123 84.4422 97.0788C83.7746 98.3479 83.343 99.7435 83.1516 101.264C82.9582 102.785 83.0242 104.382 83.3449 106.052C83.9527 109.217 85.1043 111.432 86.7988 112.693C87.5981 113.286 88.4863 113.691 89.4688 113.911C90.2445 114.081 91.125 114.133 92.1184 114.059C92.3867 114.041 92.6605 114.015 92.9449 113.979L96.4965 113.553C96.8957 113.501 97.2414 113.474 97.5355 113.467C97.7969 113.463 98.0176 113.473 98.1965 113.502C98.5785 113.563 98.95 113.721 99.3133 113.971C100.049 114.547 100.543 115.479 100.79 116.765C101.078 118.262 100.868 119.548 100.163 120.623C99.8926 121.041 99.5465 121.418 99.1273 121.753C98.4609 122.289 97.609 122.723 96.5695 123.058C95.6863 123.343 94.8109 123.517 93.9473 123.577C93.5273 123.607 93.1121 123.61 92.6965 123.588C91.4301 123.517 90.2273 123.039 89.0875 122.15L86.3664 128.013C88.1156 129.41 89.9098 130.186 91.7516 130.349C92.8477 130.448 94.0027 130.389 95.2176 130.178C95.5949 131.992 97.041 133.1 98.4539 132.643C99.8871 132.181 100.766 130.283 100.409 128.427L100.4 128.38C100.898 128.094 101.376 127.775 101.833 127.425C103.038 126.503 104.023 125.408 104.793 124.144C105.562 122.88 106.081 121.465 106.351 119.9C106.62 118.336 106.58 116.65 106.233 114.842C105.912 113.173 105.45 111.735 104.848 110.524Z" fill="#FF9CCE"/>
<path d="M48.9625 142.737C54.0558 142.737 58.1848 137.384 58.1848 130.781C58.1848 124.178 54.0558 118.825 48.9625 118.825C43.8692 118.825 39.7402 124.178 39.7402 130.781C39.7402 137.384 43.8692 142.737 48.9625 142.737Z" fill="#550035"/>
<path d="M24.1074 80.2582C24.0816 84.1438 23.4098 87.9292 22.2211 91.3788C21.8852 92.384 21.4977 93.3553 21.0844 94.2936C20.6969 95.1312 20.2832 95.9683 19.8184 96.7385C17.2086 101.428 13.4621 105.079 8.94023 107.023C8.42344 107.257 7.90664 107.458 7.36406 107.625H7.33828C6.7957 107.793 6.25313 107.96 5.73633 108.061L0 78.2148L15.3223 73.2572L16.9242 72.7548L18.552 72.2185L23.0223 70.7783C23.2031 71.4483 23.3582 72.1517 23.4871 72.8551C23.6164 73.5585 23.7195 74.2624 23.823 74.9653C24.0559 76.7412 24.159 78.5167 24.1074 80.2582Z" fill="#550035"/>
<path d="M45.7601 189.123L27.1047 195.153L22.7121 196.56L20.9035 187.114L16.9758 166.681C17.5183 166.48 18.0351 166.279 18.5777 166.111C19.1203 165.91 19.6629 165.776 20.2055 165.643C24.882 164.604 29.5074 165.576 33.5383 168.121C34.8047 168.892 35.993 169.83 37.1039 170.935C40.6695 174.318 43.4601 179.141 44.9332 184.937C45.114 185.607 45.2691 186.31 45.3984 187.013C45.5535 187.716 45.6566 188.42 45.7601 189.123Z" fill="#550035"/>
<path d="M165.728 24.7119L171.462 54.5648C170.938 54.7882 170.407 54.9892 169.866 55.1639C169.322 55.3396 168.78 55.485 168.24 55.605C157.467 58.0033 146.92 49.7824 143.502 36.3222C143.33 35.6436 143.175 34.9544 143.04 34.2536C142.905 33.5527 142.793 32.8498 142.7 32.1454L165.728 24.7119Z" fill="#550035"/>
<path d="M182.723 113.194L188.457 143.047L165.43 150.481C165.257 149.802 165.102 149.113 164.968 148.412C164.833 147.711 164.721 147.009 164.628 146.304C162.778 132.338 169.119 118.665 179.502 114.234C180.022 114.012 180.553 113.811 181.098 113.636C181.638 113.461 182.18 113.316 182.723 113.194Z" fill="#550035"/>
<path d="M139.716 113.44C144.809 113.44 148.938 108.087 148.938 101.485C148.938 94.8816 144.809 89.5289 139.716 89.5289C134.623 89.5289 130.494 94.8816 130.494 101.485C130.494 108.087 134.623 113.44 139.716 113.44Z" fill="#550035"/>
<path opacity="0.06" d="M194.254 92.5648L183.014 33.9487L178.131 8.52427L177.278 4.06894L175.321 4.70346L24.6746 200L27.1047 199.222L45.7602 193.192L165.419 154.537L165.427 154.535C165.428 154.54 165.429 154.544 165.43 154.55L188.458 147.116L188.456 147.104L188.467 147.101L184.669 127.371L193.665 124.46L200 122.415L194.266 92.5617C194.262 92.5622 194.258 92.5642 194.254 92.5648Z" fill="#040000"/>
<path d="M96.2434 168.153C96.2434 181.583 100.91 194.462 109.215 203.959C117.521 213.455 128.787 218.79 140.533 218.79C152.279 218.79 163.544 213.455 171.85 203.959C180.156 194.462 184.822 181.583 184.822 168.153C184.822 154.723 180.156 141.843 171.85 132.347C163.544 122.85 152.279 117.515 140.533 117.515C128.787 117.515 117.521 122.85 109.215 132.347C100.91 141.843 96.2434 154.723 96.2434 168.153Z" fill="#980060"/>
<path d="M104.543 168.153C104.543 173.556 105.474 178.907 107.282 183.9C109.091 188.892 111.742 193.428 115.084 197.249C118.426 201.07 122.393 204.101 126.76 206.169C131.127 208.237 135.807 209.301 140.533 209.301C145.259 209.301 149.939 208.237 154.306 206.169C158.672 204.101 162.64 201.07 165.982 197.249C169.324 193.428 171.975 188.892 173.784 183.9C175.592 178.907 176.523 173.556 176.523 168.153C176.523 157.239 172.731 146.773 165.982 139.056C159.232 131.339 150.078 127.004 140.533 127.004C130.988 127.004 121.833 131.339 115.084 139.056C108.334 146.773 104.543 157.239 104.543 168.153Z" fill="#FDE0EF"/>
<path d="M140.718 213.168C119.067 213.168 101.453 193.03 101.453 168.276C101.453 143.522 119.067 123.383 140.718 123.383C162.368 123.383 179.983 143.522 179.983 168.276C179.983 193.03 162.368 213.168 140.718 213.168ZM140.718 127.766C121.181 127.766 105.287 145.939 105.287 168.276C105.287 190.612 121.181 208.785 140.718 208.785C160.254 208.785 176.149 190.613 176.149 168.276C176.149 145.939 160.254 127.766 140.718 127.766Z" fill="#300604"/>
<path d="M140.718 222.656C114.491 222.656 93.1547 198.262 93.1547 168.276C93.1547 138.29 114.491 113.895 140.718 113.895C166.944 113.895 188.282 138.29 188.282 168.276C188.282 198.262 166.944 222.656 140.718 222.656ZM140.718 118.277C116.605 118.277 96.9883 140.707 96.9883 168.276C96.9883 195.845 116.605 218.273 140.718 218.273C164.83 218.273 184.448 195.845 184.448 168.276C184.448 140.707 164.83 118.277 140.718 118.277Z" fill="#300604"/>
<path d="M140.718 222.656C114.491 222.656 93.1546 198.262 93.1546 168.276C93.1546 138.29 114.491 113.895 140.718 113.895C166.944 113.895 188.282 138.29 188.282 168.276C188.282 198.262 166.944 222.656 140.718 222.656ZM140.718 118.277C116.605 118.277 96.9883 140.707 96.9883 168.276C96.9883 195.845 116.605 218.273 140.718 218.273C164.83 218.273 184.448 195.845 184.448 168.276C184.448 140.707 164.83 118.277 140.718 118.277ZM95.2649 129.407L92.1974 126.779C98.3536 117.383 106.538 109.879 115.864 105.078L117.439 109.076C108.7 113.573 101.034 120.603 95.2649 129.407ZM186.364 129.703C175.692 113.222 158.628 103.383 140.718 103.383V99C159.837 99 178.054 109.503 189.446 127.095L186.364 129.703Z" fill="#300604"/>
<path d="M138.801 131.038H142.634V136.501H138.801V131.038ZM126.09 134.934L128.48 139.665L125.16 141.857L122.771 137.126L126.09 134.934ZM113.473 147.761L117.611 150.494L115.694 154.289L111.556 151.556L113.473 147.761ZM108.149 166.084H112.927V170.467H108.149V166.084ZM115.693 182.269L117.61 186.065L113.472 188.797L111.555 185.001L115.693 182.269ZM125.161 194.701L128.48 196.892L126.09 201.624L122.771 199.432L125.161 194.701ZM138.801 200.049H142.634V205.513H138.801V200.049ZM156.271 194.7L158.66 199.432L155.341 201.624L152.951 196.892L156.271 194.7ZM165.749 182.268L169.887 185L167.97 188.795L163.832 186.063L165.749 182.268ZM168.509 166.084H173.288V170.467H168.509V166.084ZM167.968 147.763L169.885 151.558L165.747 154.291L163.83 150.495L167.968 147.763ZM155.343 134.936L158.663 137.128L156.273 141.859L152.953 139.668L155.343 134.936Z" fill="#300604"/>
<path d="M135.172 183.103L131.885 180.849L138.801 167.669V144.985H142.634V168.882L135.172 183.103Z" fill="#300604"/>
<path d="M102.364 196.558C100.302 198.227 97.7901 199.217 95.0713 199.217C88.0868 199.217 82.4248 192.744 82.4248 184.758C82.4248 176.773 88.0868 170.299 95.0713 170.299C95.0864 170.299 95.101 170.301 95.1162 170.301C95.0935 169.628 95.0713 168.955 95.0713 168.275C95.0713 161.209 96.3059 154.475 98.5314 148.329C98.3214 148.087 98.0339 147.935 97.7166 147.935H92.426C92.1489 147.935 91.8812 148.05 91.6719 148.257C91.4625 148.465 91.3257 148.752 91.2866 149.065L90.5922 154.621C90.5231 155.175 90.1533 155.609 89.6746 155.725C87.3145 156.296 85.0364 157.244 82.9072 158.541C82.4751 158.804 81.9479 158.743 81.5836 158.369L77.9287 154.624C77.7224 154.412 77.4563 154.293 77.1793 154.288C76.9023 154.283 76.6329 154.392 76.4207 154.596L72.3677 158.484C72.1555 158.687 72.0146 158.972 71.9709 159.284C71.9273 159.597 71.9838 159.918 72.13 160.187L74.7239 164.957C74.9822 165.432 74.9433 166.036 74.642 166.477C73.1544 168.649 71.9398 171.048 71.0335 173.605C70.85 174.123 70.4125 174.463 69.924 174.445L65.0224 174.262C64.7454 174.252 64.4746 174.356 64.2594 174.555C64.0443 174.755 63.8994 175.037 63.8513 175.349L62.9326 181.306C62.8845 181.618 62.9364 181.939 63.0788 182.211C63.2212 182.482 63.4446 182.686 63.7079 182.785L68.3773 184.533C68.8423 184.707 69.1526 185.198 69.1695 185.758C69.2495 188.424 69.6378 191.166 70.3721 193.94C70.5107 194.465 70.3634 195.033 69.9866 195.371L66.1764 198.79C65.9584 198.986 65.8095 199.265 65.757 199.576C65.7044 199.887 65.7518 200.209 65.8903 200.484L68.5355 205.722C68.674 205.996 68.8945 206.204 69.1565 206.308C69.4184 206.411 69.7041 206.403 69.9613 206.285L74.167 204.355C74.6142 204.15 75.1308 204.28 75.4489 204.694C77.1166 206.865 79.0814 208.713 81.2667 210.165C81.6907 210.447 81.9018 211.014 81.8008 211.563L80.8505 216.732C80.7935 217.042 80.8362 217.365 80.9708 217.642C81.1054 217.919 81.3228 218.131 81.5832 218.24L86.5549 220.308C86.8152 220.417 87.101 220.414 87.3598 220.301C87.6186 220.188 87.833 219.972 87.9636 219.692L90.277 214.745C90.5062 214.255 90.9792 213.991 91.4607 214.066C93.9352 214.448 96.3536 214.432 98.6738 214.063C99.1577 213.986 99.6339 214.25 99.8642 214.743L102.179 219.692C102.309 219.972 102.524 220.188 102.783 220.301C103.042 220.414 103.327 220.417 103.588 220.308L108.559 218.24C108.82 218.131 109.037 217.919 109.172 217.642C109.306 217.365 109.349 217.042 109.292 216.732L108.282 211.241C108.182 210.694 108.399 210.142 108.812 209.846C109.61 209.274 110.369 208.64 111.106 207.976C107.723 204.675 104.778 200.828 102.364 196.558Z" fill="#FFAE9B"/>
<path d="M103.194 222.58C102.639 222.581 102.094 222.408 101.617 222.082C101.14 221.755 100.75 221.287 100.489 220.727L98.4222 216.307C96.3295 216.606 93.982 216.615 91.7183 216.312L89.653 220.725C88.9516 222.229 87.3069 222.955 85.8992 222.368L80.9288 220.299C79.5012 219.707 78.6612 217.979 78.9757 216.279L79.8131 211.725C77.8033 210.321 75.9756 208.602 74.3834 206.618L70.6757 208.319C69.288 208.955 67.6182 208.288 66.8757 206.819L64.2312 201.58C63.4711 200.078 63.7994 198.137 64.9937 197.066L68.3931 194.014C67.7679 191.5 67.3923 188.953 67.2762 186.426L63.1119 184.868C61.6693 184.327 60.7818 182.631 61.0466 180.923L61.9636 174.967C62.0879 174.155 62.4589 173.419 63.0114 172.889C63.5639 172.359 64.2624 172.068 64.9836 172.069L69.4562 172.235C70.3378 169.876 71.4658 167.647 72.8157 165.597L70.5021 161.344C69.7007 159.871 69.9729 157.919 71.1361 156.804L75.1892 152.916C76.315 151.834 78.1058 151.864 79.2064 152.99L82.4674 156.332C84.4677 155.169 86.5844 154.288 88.7707 153.709L89.3884 148.755C89.6042 147.038 90.9096 145.743 92.4258 145.743H97.7171C98.5381 145.743 99.312 146.114 99.8936 146.788L100.788 147.822L100.302 149.166C98.1027 155.24 96.9883 161.669 96.9883 168.275C96.9883 168.926 97.0108 169.572 97.0319 170.217L97.1081 172.493L95.0065 172.49C89.1199 172.53 84.3416 178.018 84.3416 184.758C84.3416 191.522 89.1549 197.026 95.0713 197.026C97.2938 197.026 99.4329 196.245 101.257 194.768L102.89 193.448L103.974 195.368C106.287 199.46 109.109 203.145 112.35 206.308L114.127 208.042L112.293 209.696C111.574 210.344 110.906 210.9 110.266 211.382L111.167 216.282C111.48 217.977 110.642 219.705 109.215 220.298L104.242 222.367C103.907 222.509 103.552 222.581 103.194 222.58ZM98.8404 211.859C99.9798 211.859 101.019 212.567 101.555 213.707L103.556 217.99L107.279 216.441L106.407 211.692C106.145 210.258 106.703 208.771 107.796 207.988C107.883 207.925 107.973 207.861 108.062 207.794C105.737 205.282 103.639 202.51 101.799 199.519C99.7277 200.761 97.4351 201.409 95.0716 201.409C87.0413 201.409 80.5082 193.94 80.5082 184.758C80.5082 176.32 86.0266 169.327 93.1546 168.251C93.1573 162.023 94.0707 155.941 95.874 150.127H93.0899L92.4909 154.931C92.3062 156.385 91.3341 157.565 90.0699 157.87C87.8858 158.399 85.7774 159.276 83.8065 160.475C82.697 161.153 81.2419 160.965 80.3036 160L77.1437 156.763L74.1088 159.675L76.3526 163.8C77.029 165.045 76.9479 166.663 76.1505 167.828C74.774 169.839 73.65 172.061 72.811 174.428C72.3355 175.769 71.2173 176.637 69.962 176.637L65.6242 176.477L64.9365 180.938L68.9737 182.45C70.1942 182.906 71.0427 184.206 71.0852 185.686C71.1614 188.212 71.5382 190.778 72.2072 193.307C72.5791 194.71 72.171 196.197 71.17 197.094L67.883 200.046L69.8635 203.969L73.4536 202.322C74.633 201.778 76.0557 202.161 76.8906 203.251C78.4214 205.243 80.2248 206.939 82.2304 208.271C83.3684 209.024 83.95 210.529 83.6768 212.015L82.8644 216.44L86.5858 217.988L88.5874 213.712C89.1877 212.431 90.4293 211.699 91.7172 211.894C93.9586 212.24 96.2211 212.237 98.4113 211.893C98.5535 211.871 98.6968 211.859 98.8404 211.859Z" fill="#300604"/>
<path d="M95.0715 201.409C87.0411 201.409 80.508 193.94 80.508 184.759C80.508 175.577 87.0409 168.108 95.0715 168.108L96.9621 168.111L97.0319 170.218C97.3301 179.167 99.7312 187.863 103.974 195.369L104.971 197.133L103.471 198.348C100.997 200.351 98.0915 201.409 95.0715 201.409ZM93.3181 172.655C88.2328 173.613 84.3416 178.676 84.3416 184.758C84.3416 191.523 89.155 197.026 95.0713 197.026C96.6782 197.028 98.2647 196.613 99.7112 195.813C96.0786 188.755 93.8921 180.83 93.3181 172.655Z" fill="#300604"/>
<path d="M119.66 225.284L122.25 228.516L118.622 232.314L120.124 237.657L116.475 239L114.219 230.979L119.66 225.284Z" fill="#231F20"/>
<path d="M189.774 135.408L193.111 133.252C198.163 143.473 200.884 155.057 200.982 166.75L197.147 166.792C197.056 155.837 194.506 144.986 189.774 135.408Z" fill="#300604"/>
<path d="M140.6 238.472C132.148 238.472 123.969 236.524 116.287 232.683L117.802 228.723C125.003 232.325 132.673 234.15 140.6 234.15C154.781 234.15 168.369 228.154 178.86 217.265C189.28 206.451 195.807 191.721 197.24 175.79L201 176.231C199.471 193.224 192.511 208.933 181.401 220.465C170.212 232.077 155.722 238.472 140.6 238.472Z" fill="#300604"/>
</svg>
