<svg width="200" height="164" viewBox="0 0 200 164" fill="none" xmlns="http://www.w3.org/2000/svg">
<path d="M194.573 82.6062C193.973 82.4888 183.211 80.4067 168.771 79.3419C168.841 78.0152 168.878 76.6796 168.878 75.3351C168.878 33.7954 135.082 0 93.5427 0C52.0026 0 18.2067 33.7954 18.2067 75.3351C18.2067 84.0933 19.7145 92.5041 22.474 100.33C12.842 101.14 5.84127 102.495 5.42731 102.576L0 103.64L2.36384 108.641C3.09258 110.182 20.4644 146.525 42.2235 157.518C50.0759 161.485 57.42 163.497 64.0527 163.498C64.0542 163.498 64.0546 163.498 64.0556 163.498C73.9338 163.498 82.023 159.036 87.1128 150.863C93.7904 158.841 103.189 163.14 114.311 163.14C123.17 163.14 133.021 160.434 143.587 155.096C173.002 140.234 196.644 90.7699 197.636 88.671L200 83.6709L194.573 82.6062ZM155.61 50.8386C152.771 48.5138 149.5 46.3379 145.819 44.3441C141.262 41.8762 136.221 39.7743 130.826 38.0529C129.104 32.6566 127.003 27.6157 124.534 23.0582C122.54 19.377 120.365 16.1068 118.039 13.2673C135.16 20.049 148.829 33.7184 155.61 50.8386ZM159.714 71.0302H136.248C136.001 63.1152 135.07 55.4287 133.512 48.1916C147.495 53.6554 157.339 61.8359 159.714 71.0302ZM97.8476 9.16377C107.042 11.5385 115.223 21.3836 120.687 35.3664C113.45 33.8087 105.764 32.8777 97.8476 32.63V9.16377ZM97.8476 41.2427C107.104 41.5614 115.916 42.898 123.846 45.0314C125.98 52.9627 127.316 61.7737 127.636 71.0297H97.8476V41.2427ZM97.8476 79.6399H127.636C127.622 80.0203 127.608 80.4007 127.592 80.7797C120.412 82.1118 114.207 84.0864 109.034 86.6999C104.903 88.7864 101.174 91.0136 97.8476 93.374V79.6399ZM89.2374 9.16377V32.63C81.3219 32.8777 73.6353 33.8087 66.3978 35.3664C71.8621 21.3836 80.043 11.5385 89.2374 9.16377ZM89.2374 41.2427V71.0302H59.4493C59.7681 61.7742 61.1047 52.9627 63.2386 45.0314C71.1694 42.898 79.9814 41.5619 89.2374 41.2427ZM69.0453 13.2683C66.72 16.1078 64.5446 19.378 62.5508 23.0592C60.0823 27.6161 57.9805 32.6576 56.2591 38.0534C50.8628 39.7753 45.8223 41.8767 41.2649 44.3451C37.5837 46.3389 34.3135 48.5143 31.474 50.8391C38.2557 33.7179 51.9246 20.049 69.0453 13.2683ZM53.573 48.1911C52.0154 55.4287 51.0839 63.1147 50.8367 71.0302H27.3709C29.7451 61.8359 39.5903 53.6554 53.573 48.1911ZM50.8367 79.6399C51.0676 87.023 51.8915 94.2073 53.2651 101.014C51.7904 100.768 50.2638 100.556 48.685 100.381C37.3172 95.0214 29.4575 87.7222 27.3709 79.6399H50.8367ZM77.6683 149.139C74.8131 152.29 70.5048 154.887 64.0556 154.887H64.0537C58.7818 154.887 52.7431 153.186 46.106 149.833C31.4557 142.431 18.2392 120.228 12.7887 110.098C18.2175 109.321 26.9071 108.339 36.1306 108.339C48.4092 108.339 57.9672 110.023 64.5397 113.343C70.4618 116.334 74.9936 119.683 78.1025 123.291C77.4843 129.568 78.6813 135.993 81.6791 142.292L38.1545 121.913L77.6683 149.139ZM72.0145 107.604C70.864 106.938 69.6694 106.289 68.4217 105.658C66.6533 104.764 64.7178 103.977 62.6357 103.284C60.8535 95.9771 59.7375 87.9901 59.4493 79.6394H89.2374V100.699C86.6792 103.35 84.5447 106.134 82.8371 109.042C79.1273 108.721 75.5097 108.237 72.0145 107.604ZM139.704 147.41C130.353 152.135 121.809 154.529 114.311 154.529C104.306 154.529 97.8278 150.257 93.6764 145.279L153.453 106.989L89.8457 139.416C89.8329 139.391 89.8186 139.365 89.8058 139.339C81.2943 122.489 89.7179 106.104 112.916 94.3849C122.177 89.7066 135.558 87.3344 152.689 87.3344C166.799 87.3344 180.045 89.0015 187.261 90.1038C180.49 102.985 161.295 136.502 139.704 147.41Z" fill="#FDE0EF"/>
</svg>
