<svg width="289" height="255" viewBox="0 0 289 255" fill="none" xmlns="http://www.w3.org/2000/svg">
<path d="M142.46 118.39L67.069 145.153C61.1455 147.255 54.1737 142.989 51.5761 135.672L27.9621 69.1504C25.3646 61.833 28.0859 54.1257 34.0095 52.0229L109.4 25.2604C115.324 23.1576 122.296 27.4241 124.893 34.7414L148.507 101.263C151.105 108.58 148.383 116.287 142.46 118.39Z" fill="#A74C7D"/>
<path d="M119.22 104.169L43.8297 130.931C37.9061 133.034 30.9343 128.767 28.3368 121.45L4.7228 54.9288C2.12526 47.6115 4.84655 39.9041 10.7701 37.8014L86.1609 11.0388C92.0844 8.93606 99.0562 13.2025 101.654 20.5199L125.268 87.0411C127.865 94.3585 125.144 102.066 119.22 104.169Z" fill="#FF9CCE"/>
<path d="M85.6859 52.4046C90.147 50.8209 92.1776 45.0698 90.2214 39.559C88.2651 34.0482 83.0628 30.8645 78.6017 32.4482C74.1406 34.0318 72.11 39.783 74.0662 45.2938C76.0225 50.8046 81.2248 53.9882 85.6859 52.4046Z" fill="#FBF4D7"/>
<path d="M49.3843 61.1713L40.6187 113.345L89.0842 96.1405L49.3843 61.1713Z" fill="#550035"/>
<path d="M85.614 69.2834L78.3141 99.9637L110.624 88.4941L85.614 69.2834Z" fill="#7D2458"/>
<path fill-rule="evenodd" clip-rule="evenodd" d="M244.798 43.0829L205.187 38.041C185.1 35.4842 175.056 34.2058 168.667 39.3614C162.278 44.5169 162.45 53.7606 162.795 72.2474L163.122 89.7786C163.392 104.276 163.527 111.525 168.325 116.466C173.122 121.407 180.998 122.41 196.751 124.415L231.327 128.816C247.08 130.821 254.956 131.824 260.839 128.242C266.721 124.66 268.667 117.676 272.561 103.709L277.269 86.8183C282.234 69.0073 284.716 60.1014 279.823 53.5098C274.928 46.9181 264.885 45.6397 244.798 43.0829ZM234.104 91.6347C237.69 89.9972 238.369 84.6636 235.307 82.1799L216.823 67.1853C213.848 64.7719 209.547 66.8731 209.022 70.996L205.855 95.8772C205.33 100 208.968 103.112 212.453 101.521L234.104 91.6347Z" fill="#A74C7D"/>
<path opacity="0.4" d="M208.416 4.93168L249.962 10.2198C251.345 10.3955 252.406 10.5304 253.322 10.7391C259.834 12.2234 264.726 16.8748 266.335 22.5062L189.487 12.7246C192.455 7.67577 198.357 4.39833 205.033 4.59259C205.971 4.61992 207.032 4.7552 208.416 4.93168Z" fill="#A74C7D"/>
<path opacity="0.7" d="M193.263 19.4707C184.986 18.4171 177.563 22.5515 174.454 28.894C174.389 29.0262 174.326 29.1594 174.265 29.2934C176.726 28.8775 179.252 28.7225 181.79 28.7203C188.325 28.7144 196.451 29.7492 205.891 30.9513L246.913 36.1727C256.353 37.3737 264.48 38.4077 270.805 40.0506C273.261 40.6884 275.668 41.4712 277.946 42.4905C277.921 42.3454 277.892 42.2006 277.863 42.0564C276.442 35.1374 270.291 29.2753 262.015 28.2218L193.263 19.4707Z" fill="#A74C7D"/>
<path d="M210 192.588V197.422C210 199.264 209.248 201.105 207.741 202.552C190.287 219.323 172.826 236.087 155.372 252.858C153.901 254.272 152.158 254.999 150.085 254.999V250.165C152.158 250.165 153.901 249.438 155.372 248.024C172.826 231.253 190.286 214.488 207.741 197.718C209.248 196.271 210 194.43 210 192.588Z" fill="#7D2458"/>
<path d="M90.0001 197.399V196.915V196.674V196.19V195.707V195.465V194.982V194.498V194.256V193.773V193.29V193.048V192.564C90.0001 194.596 90.8347 196.613 92.371 198.092C109.614 214.675 126.875 231.241 144.126 247.818C145.746 249.374 147.706 250.093 150.086 250.166V255C147.706 254.927 145.746 254.208 144.126 252.653C126.875 236.075 109.614 219.51 92.371 202.926C90.8346 201.448 90.0001 199.43 90.0001 197.399Z" fill="#7D2458"/>
<path d="M149.849 135C151.874 135 153.902 135.741 155.446 137.223C172.876 153.962 190.306 170.701 207.732 187.442C210.751 190.342 210.757 194.82 207.742 197.718C190.287 214.489 172.826 231.254 155.373 248.025C153.901 249.439 152.158 250.166 150.086 250.166C147.706 250.093 145.745 249.374 144.126 247.819C126.875 231.241 109.614 214.675 92.3709 198.092C89.9323 195.746 89.2623 192.041 90.8895 189.079C91.3776 188.19 91.9692 187.446 92.691 186.752C109.891 170.239 127.087 153.723 144.284 137.205C145.816 135.736 147.831 135 149.849 135Z" fill="#FF9CCE"/>
<path d="M169.048 173.618V175.939C169.048 176.261 168.954 176.403 168.627 176.503C159.087 179.404 149.553 182.317 140.017 185.226C139.896 185.264 139.77 185.286 139.616 185.321V183.001C139.77 182.965 139.896 182.943 140.017 182.906C149.553 179.997 159.088 177.083 168.627 174.182C168.954 174.083 169.048 173.941 169.048 173.618Z" fill="#550035"/>
<path d="M169.048 173.618V175.939C169.048 175.964 169.047 175.988 169.046 176.011V173.69C169.047 173.668 169.048 173.643 169.048 173.618Z" fill="#550035"/>
<path d="M169.046 173.691L169.046 176.011C169.039 176.139 169.013 176.235 168.955 176.311V173.99C169.013 173.915 169.039 173.818 169.046 173.691ZM168.955 173.99V176.311C168.93 176.343 168.9 176.372 168.867 176.395V174.074C168.902 174.049 168.931 174.021 168.955 173.99ZM168.867 174.074V176.395C168.825 176.424 168.779 176.448 168.732 176.466V174.146C168.779 174.127 168.825 174.103 168.867 174.074ZM168.732 174.145V176.466C168.7 176.479 168.665 176.491 168.627 176.503C159.087 179.404 149.553 182.317 140.017 185.226C139.896 185.264 139.77 185.285 139.616 185.321V183.001C139.77 182.965 139.896 182.943 140.017 182.906C149.553 179.996 159.088 177.083 168.627 174.182C168.665 174.171 168.7 174.158 168.732 174.145Z" fill="#550035"/>
<path d="M140.214 177.866V177.862V177.857V177.853V177.848V177.844V177.839V177.835V177.831V177.564V177.28V176.986V176.687V176.388V176.094V175.812V175.545C149.662 172.672 159.105 169.788 168.551 166.905L168.66 166.872C168.765 166.84 168.875 166.831 169.012 166.806V169.126C168.875 169.151 168.765 169.161 168.66 169.192C159.178 172.086 149.698 174.982 140.214 177.866Z" fill="#550035"/>
<path d="M169.011 166.806V169.126C168.875 169.151 168.764 169.161 168.66 169.193C159.105 172.108 149.553 175.026 139.997 177.932C139.961 177.943 139.928 177.954 139.897 177.967V175.646C139.93 175.633 139.963 175.622 139.997 175.611C149.553 172.706 159.105 169.788 168.66 166.872C168.764 166.841 168.875 166.831 169.011 166.806Z" fill="#550035"/>
<path d="M169.012 166.806C169.023 166.948 169.04 167.068 169.04 167.188C169.04 167.456 169.04 167.724 169.04 167.992C169.04 168.662 169.04 169.332 169.04 170.002C169.04 171.208 169.041 172.413 169.048 173.618C169.047 173.941 168.953 174.083 168.627 174.183C159.087 177.083 149.553 179.997 140.017 182.906C139.896 182.944 139.77 182.965 139.616 183.001C139.607 182.85 139.592 182.73 139.592 182.61C139.592 182.208 139.592 181.807 139.592 181.405L139.592 179.797C139.592 178.591 139.591 177.385 139.584 176.179C139.584 175.863 139.666 175.712 139.996 175.611C149.552 172.705 159.105 169.787 168.659 166.872C168.764 166.841 168.875 166.831 169.012 166.806Z" fill="#D273A5"/>
<path d="M169.01 177.328V179.649C168.787 179.711 168.581 179.766 168.378 179.828C158.966 182.703 149.554 185.581 140.137 188.442C139.699 188.575 139.58 188.754 139.58 189.183V186.863C139.58 186.434 139.699 186.254 140.137 186.121C149.554 183.26 158.966 180.382 168.378 177.508C168.581 177.445 168.787 177.391 169.01 177.328Z" fill="#550035"/>
<path d="M169.01 177.328V179.649C168.787 179.711 168.581 179.766 168.378 179.828C158.966 182.703 149.554 185.581 140.137 188.442C140.083 188.458 140.034 188.475 139.989 188.494V186.173C140.034 186.155 140.083 186.138 140.137 186.121C149.554 183.26 158.966 180.382 168.378 177.508C168.581 177.445 168.787 177.391 169.01 177.328ZM139.989 186.173V188.494C139.927 188.518 139.868 188.549 139.812 188.587V186.267C139.868 186.229 139.927 186.198 139.989 186.173ZM139.812 186.267V188.587C139.77 188.617 139.732 188.653 139.699 188.695V186.374C139.73 186.335 139.767 186.299 139.812 186.267ZM139.699 186.375V188.695C139.625 188.792 139.591 188.916 139.583 189.083V186.763C139.592 186.596 139.625 186.472 139.699 186.375ZM139.582 186.763V189.083C139.581 189.115 139.58 189.148 139.58 189.184V186.863C139.58 186.828 139.581 186.794 139.582 186.763Z" fill="#550035"/>
<path d="M162.809 198.995C162.573 198.996 162.34 199.004 162.109 199.021C162.077 198.25 162.033 197.48 161.997 196.71C162.267 196.687 162.538 196.675 162.809 196.674H162.853V198.995H162.809Z" fill="#550035"/>
<path d="M162.853 196.674V198.995H162.809C162.338 198.996 161.876 199.029 161.425 199.097V196.777C161.876 196.709 162.338 196.676 162.809 196.674H162.853Z" fill="#550035"/>
<path d="M162.109 199.021C160.804 199.117 159.582 199.479 158.496 200.209C158.478 199.407 158.471 198.718 158.47 197.906C159.531 197.185 160.724 196.819 161.997 196.71C162.033 197.48 162.078 198.25 162.109 199.021Z" fill="#550035"/>
<path d="M162.853 196.674V198.995H162.809C162.338 198.996 161.876 199.029 161.425 199.097V196.777C161.876 196.709 162.338 196.676 162.809 196.674H162.853ZM161.425 196.777V199.097C160.832 199.187 160.259 199.339 159.711 199.562V197.241C160.259 197.018 160.832 196.867 161.425 196.777Z" fill="#550035"/>
<path d="M159.711 197.242V199.562C159.238 199.754 158.784 200.002 158.359 200.303V197.982C158.784 197.682 159.238 197.433 159.711 197.242Z" fill="#550035"/>
<path d="M139.582 189.417V191.737C139.582 195.298 139.57 198.858 139.57 202.418V200.098C139.57 196.538 139.582 192.977 139.582 189.417Z" fill="#550035"/>
<path d="M139.582 189.417V191.737C139.582 195.298 139.57 198.858 139.57 202.418V200.098C139.57 196.538 139.582 192.977 139.582 189.417Z" fill="#550035"/>
<path d="M163.032 198.996C162.973 198.995 162.913 198.994 162.853 198.995V196.674C162.913 196.674 162.973 196.675 163.032 196.676C164.655 196.703 166.187 197.105 167.494 198.1C168.546 198.901 169.044 199.823 169.05 200.73V203.05C169.044 202.143 168.546 201.222 167.494 200.42C166.187 199.425 164.655 199.024 163.032 198.996Z" fill="#550035"/>
<path d="M169.05 200.73V203.05C169.044 202.143 168.546 201.221 167.494 200.42C166.187 199.425 164.655 199.024 163.032 198.996C162.973 198.995 162.913 198.994 162.853 198.994V196.674C162.913 196.674 162.973 196.674 163.032 196.675C164.655 196.703 166.187 197.104 167.494 198.099C168.546 198.901 169.044 199.822 169.05 200.73Z" fill="#550035"/>
<path d="M169.05 200.73V203.05C169.058 204.145 168.35 205.22 167.037 206.038C165.891 206.752 164.613 207.09 163.243 207.145V204.825C164.612 204.77 165.891 204.432 167.037 203.717C168.35 202.899 169.058 201.825 169.05 200.73Z" fill="#550035"/>
<path d="M169.05 200.73V203.05C169.05 203.102 169.049 203.153 169.047 203.204V200.884C169.049 200.833 169.05 200.781 169.05 200.73ZM169.046 200.884V203.204C169.016 203.767 168.796 204.322 168.403 204.836V202.516C168.796 202.002 169.016 201.447 169.046 200.884Z" fill="#550035"/>
<path d="M168.404 202.516V204.837C168.133 205.19 167.78 205.525 167.351 205.829V203.509C167.78 203.204 168.133 202.87 168.404 202.516ZM167.35 203.509V205.829C167.248 205.902 167.143 205.971 167.037 206.038C166.696 206.25 166.341 206.431 165.974 206.58V204.26C166.341 204.111 166.696 203.929 167.037 203.717C167.143 203.651 167.248 203.581 167.35 203.509Z" fill="#550035"/>
<path d="M165.974 204.26V206.58C165.419 206.806 164.84 206.961 164.239 207.052V204.731C164.84 204.64 165.42 204.486 165.974 204.26ZM164.239 204.731V207.052C163.909 207.101 163.576 207.133 163.243 207.146V204.825C163.576 204.812 163.909 204.781 164.239 204.731Z" fill="#550035"/>
<path d="M162.853 196.674C162.912 196.674 162.973 196.675 163.032 196.675C164.655 196.703 166.187 197.105 167.494 198.1C168.546 198.901 169.044 199.823 169.05 200.73C169.058 201.825 168.349 202.9 167.037 203.717C165.891 204.432 164.612 204.77 163.243 204.825H163.188C163.136 204.825 163.086 204.825 163.034 204.825C160.909 204.804 158.94 204.357 157.474 202.712C156.912 202.08 156.641 201.387 156.645 200.703C156.65 199.877 157.058 199.063 157.844 198.386C159.264 197.161 160.968 196.682 162.809 196.674H162.853Z" fill="#D273A5"/>
<path d="M163.188 204.825V207.146C163.137 207.146 163.086 207.146 163.035 207.145C160.91 207.125 158.94 206.677 157.475 205.032V202.712C158.94 204.357 160.909 204.804 163.035 204.824C163.086 204.825 163.137 204.825 163.188 204.825Z" fill="#550035"/>
<path d="M163.188 204.825V207.146C163.137 207.146 163.086 207.146 163.035 207.145C160.91 207.125 158.94 206.677 157.475 205.032V202.712C158.94 204.357 160.909 204.804 163.035 204.824C163.086 204.825 163.137 204.825 163.188 204.825Z" fill="#550035"/>
<path d="M153.418 203.112V200.792C153.418 203.055 154.57 204.807 156.5 206.069C158.485 207.369 160.569 207.998 162.704 207.998C164.242 207.998 165.807 207.672 167.382 207.034C170.621 205.723 172.325 203.404 172.303 199.863V202.184C172.325 205.724 170.621 208.044 167.382 209.355C165.807 209.992 164.242 210.318 162.704 210.318C160.569 210.318 158.485 209.689 156.5 208.39C154.571 207.127 153.418 205.376 153.418 203.112Z" fill="#550035"/>
<path d="M172.303 199.863V202.184C172.304 202.396 172.299 202.604 172.288 202.807V200.487C172.299 200.283 172.304 200.075 172.303 199.863ZM172.288 200.487V202.807C172.201 204.407 171.734 205.738 170.906 206.823V204.503C171.734 203.417 172.201 202.086 172.288 200.487ZM170.906 204.503V206.823C170.487 207.373 169.974 207.86 169.372 208.286V205.966C169.975 205.539 170.487 205.052 170.906 204.503Z" fill="#550035"/>
<path d="M169.373 205.966V208.286C168.799 208.693 168.144 209.044 167.409 209.344V207.023C168.144 206.724 168.799 206.372 169.373 205.966Z" fill="#550035"/>
<path d="M167.409 207.023V209.344L167.382 209.355C166.381 209.76 165.384 210.04 164.395 210.189V207.869C165.384 207.719 166.381 207.439 167.382 207.034L167.409 207.023ZM164.395 207.869V210.189C163.829 210.275 163.265 210.319 162.704 210.319C160.569 210.319 158.486 209.689 156.5 208.39C154.571 207.127 153.418 205.376 153.418 203.113V200.792C153.418 203.056 154.571 204.807 156.5 206.069C158.485 207.369 160.569 207.998 162.704 207.998C163.264 207.998 163.829 207.955 164.395 207.869Z" fill="#550035"/>
<path d="M125.276 210.631C125.277 209.471 125.277 209.471 125.276 208.31C125.339 208.26 125.403 208.21 125.468 208.161C126.435 207.433 127.479 207.002 128.581 206.81C128.355 208.368 128.354 208.384 128.301 209.184C127.302 209.398 126.353 209.816 125.468 210.481C125.404 210.53 125.34 210.58 125.276 210.631Z" fill="#550035"/>
<path d="M128.75 206.782V209.103C128.182 209.189 127.628 209.338 127.092 209.556V207.236C127.628 207.017 128.182 206.868 128.75 206.782Z" fill="#550035"/>
<path d="M127.092 207.235V209.556C126.585 209.762 126.1 210.029 125.646 210.352V208.031C126.101 207.709 126.585 207.442 127.092 207.235ZM125.646 208.031V210.352C125.586 210.394 125.527 210.437 125.468 210.482C125.393 210.539 125.317 210.598 125.242 210.658C124.989 210.864 124.773 211.085 124.595 211.317V208.997C124.773 208.764 124.989 208.543 125.242 208.338C125.317 208.278 125.392 208.219 125.468 208.161C125.527 208.117 125.586 208.074 125.646 208.031Z" fill="#550035"/>
<path d="M125.242 210.658C124.395 211.346 123.973 212.205 123.968 213.067V210.747C123.973 209.885 124.394 209.025 125.242 208.337C125.253 208.328 125.265 208.319 125.276 208.31C125.277 209.47 125.277 209.47 125.276 210.631C125.265 210.64 125.253 210.649 125.242 210.658Z" fill="#550035"/>
<path d="M125.646 208.031V210.352C125.586 210.394 125.527 210.437 125.468 210.482C125.393 210.539 125.317 210.598 125.242 210.658C124.989 210.864 124.773 211.085 124.595 211.317V208.997C124.773 208.764 124.989 208.543 125.242 208.338C125.317 208.278 125.392 208.219 125.468 208.161C125.527 208.117 125.586 208.074 125.646 208.031ZM124.595 208.997V211.317C124.209 211.822 124.002 212.378 123.972 212.938V210.617C124.002 210.057 124.209 209.501 124.595 208.997ZM123.972 210.617V212.938C123.97 212.981 123.969 213.024 123.968 213.067V210.747C123.968 210.704 123.97 210.661 123.972 210.617Z" fill="#550035"/>
<path d="M131.892 209.188C131.714 209.156 131.535 209.128 131.356 209.104C131.356 208.33 131.357 207.557 131.354 206.783C131.532 206.807 131.712 206.835 131.892 206.868C133.29 207.12 134.548 207.68 135.49 208.746C136.073 209.407 136.358 210.123 136.355 210.825V213.146C136.357 212.444 136.073 211.728 135.49 211.067C134.549 210.001 133.291 209.44 131.892 209.188Z" fill="#550035"/>
<path d="M136.355 210.825V213.146C136.358 212.443 136.073 211.728 135.49 211.067C134.549 210 133.291 209.44 131.892 209.188C131.258 209.074 130.635 209.012 130.026 209.01C129.98 209.01 129.953 209.01 129.926 209.011C129.533 209.013 129.14 209.044 128.75 209.103V206.782C129.14 206.724 129.533 206.693 129.926 206.69C129.953 206.69 129.98 206.69 130.026 206.69C130.635 206.691 131.258 206.753 131.892 206.867C133.291 207.119 134.549 207.68 135.49 208.746C136.073 209.407 136.358 210.123 136.355 210.825Z" fill="#550035"/>
<path d="M130.162 214.863V217.184C128.366 217.126 126.694 216.709 125.275 215.558C124.402 214.849 123.964 213.957 123.969 213.067V210.747C123.964 211.636 124.402 212.528 125.275 213.238C126.694 214.389 128.366 214.805 130.162 214.863Z" fill="#550035"/>
<path d="M130.162 214.863V217.184C128.366 217.126 126.694 216.709 125.275 215.558C124.402 214.849 123.964 213.957 123.969 213.067V210.747C123.964 211.636 124.402 212.528 125.275 213.238C126.694 214.389 128.366 214.805 130.162 214.863Z" fill="#550035"/>
<path d="M136.355 210.825V213.145C136.351 213.993 135.929 214.822 135.107 215.512C133.691 216.701 132 217.122 130.162 217.184V214.863C132 214.802 133.691 214.381 135.107 213.192C135.929 212.501 136.351 211.673 136.355 210.825Z" fill="#550035"/>
<path d="M136.355 210.825V213.145C136.355 213.188 136.353 213.231 136.351 213.273V210.953C136.353 210.91 136.355 210.868 136.355 210.825ZM136.351 210.953V213.273C136.321 213.825 136.114 214.367 135.733 214.864V212.544C136.113 212.046 136.321 211.505 136.351 210.953ZM135.733 212.544V214.864C135.559 215.09 135.351 215.307 135.107 215.512C134.968 215.629 134.826 215.739 134.679 215.843V213.523C134.826 213.419 134.968 213.308 135.107 213.192C135.351 212.987 135.56 212.77 135.733 212.544Z" fill="#550035"/>
<path d="M134.679 213.522V215.843C134.256 216.143 133.811 216.382 133.348 216.571V214.251C133.811 214.061 134.256 213.822 134.679 213.522Z" fill="#550035"/>
<path d="M133.348 214.25V216.571C132.763 216.809 132.148 216.967 131.51 217.063V214.743C132.148 214.646 132.763 214.488 133.348 214.25ZM131.51 214.743V217.063C131.071 217.13 130.621 217.168 130.162 217.183V214.863C130.621 214.847 131.071 214.81 131.51 214.743Z" fill="#550035"/>
<path d="M130.007 206.69C130.635 206.692 131.258 206.753 131.892 206.868C133.291 207.12 134.549 207.68 135.49 208.746C136.073 209.407 136.358 210.123 136.355 210.825C136.351 211.673 135.929 212.501 135.107 213.192C133.691 214.381 132 214.801 130.162 214.863C128.366 214.805 126.693 214.389 125.275 213.238C124.402 212.529 123.963 211.637 123.968 210.747C123.973 209.885 124.395 209.026 125.242 208.338C125.317 208.278 125.392 208.219 125.468 208.162C126.821 207.143 128.326 206.705 129.926 206.691C129.953 206.69 129.98 206.69 130.007 206.69Z" fill="#D273A5"/>
<path d="M172.289 165.135C172.269 176.711 172.232 188.287 172.303 199.864C172.324 203.404 170.621 205.724 167.382 207.034C165.807 207.672 164.242 207.998 162.704 207.998C160.568 207.998 158.485 207.369 156.5 206.069C154.46 204.735 153.289 202.854 153.429 200.399C153.554 198.243 154.686 196.577 156.51 195.431C158.565 194.141 160.657 193.514 162.773 193.514C164.711 193.514 166.669 194.04 168.637 195.066C168.734 195.118 168.831 195.171 168.928 195.22C169.01 189.269 169.01 183.33 169.01 177.328C168.787 177.391 168.581 177.445 168.377 177.508C158.966 180.382 149.554 183.26 140.137 186.121C139.699 186.254 139.58 186.434 139.58 186.863C139.595 194.545 139.528 202.226 139.619 209.907C139.66 213.409 137.963 215.698 134.783 217.018C133.189 217.68 131.604 218.016 130.046 218.016C127.917 218.016 125.838 217.389 123.845 216.108C121.102 214.344 120.046 211.32 121.158 208.621C122.043 206.475 123.77 205.126 125.957 204.34C127.405 203.818 128.839 203.553 130.253 203.553C132.223 203.553 134.154 204.069 136.034 205.126C136.098 205.163 136.163 205.195 136.231 205.225C136.358 205.017 136.358 204.813 136.358 204.609C136.358 194.783 136.356 184.958 136.358 175.132C136.358 173.784 136.674 173.374 138.017 172.964C148.687 169.71 159.356 166.456 170.025 163.199C170.11 163.172 170.189 163.125 170.271 163.088H171.052C171.992 163.477 172.29 164.172 172.289 165.135ZM168.627 174.182C168.953 174.083 169.048 173.941 169.048 173.633C169.042 172.423 169.039 171.212 169.04 170.002C169.04 169.332 169.041 168.662 169.041 167.992C169.041 167.724 169.041 167.456 169.04 167.188C169.04 167.069 169.023 166.948 169.012 166.806C168.875 166.831 168.765 166.841 168.66 166.872C159.105 169.787 149.553 172.705 139.997 175.611C139.667 175.712 139.585 175.863 139.585 176.165C139.591 177.385 139.592 178.591 139.592 179.797L139.592 181.405C139.592 181.807 139.592 182.208 139.593 182.61C139.593 182.73 139.608 182.85 139.617 183.001C139.77 182.965 139.896 182.944 140.017 182.906C149.553 179.996 159.088 177.084 168.627 174.182ZM135.107 213.192C135.929 212.501 136.351 211.673 136.355 210.825C136.358 210.123 136.073 209.407 135.49 208.746C134.548 207.68 133.291 207.12 131.892 206.867C131.258 206.753 130.635 206.692 130.026 206.69C129.979 206.69 129.953 206.69 129.926 206.69C128.325 206.705 126.821 207.143 125.468 208.161C125.392 208.218 125.317 208.277 125.242 208.337C124.395 209.025 123.973 209.884 123.968 210.746C123.963 211.636 124.402 212.528 125.275 213.237C126.694 214.388 128.366 214.804 130.162 214.862C132 214.801 133.691 214.38 135.107 213.192ZM167.037 203.717C168.349 202.899 169.058 201.825 169.05 200.73C169.044 199.823 168.546 198.901 167.494 198.099C166.187 197.104 164.655 196.703 163.032 196.675C162.973 196.674 162.913 196.674 162.853 196.674H162.809C160.967 196.681 159.264 197.161 157.844 198.386C157.058 199.063 156.65 199.876 156.645 200.702C156.641 201.387 156.912 202.08 157.475 202.711C158.94 204.357 160.909 204.804 163.034 204.824C163.086 204.825 163.136 204.825 163.188 204.825H163.243C164.613 204.769 165.891 204.432 167.037 203.717Z" fill="#A74C7D"/>
<path d="M139.62 210.032V212.352C139.62 215.784 137.925 218.035 134.783 219.339C133.189 220.001 131.604 220.337 130.046 220.337C127.918 220.337 125.838 219.71 123.845 218.429C121.827 217.131 120.722 215.151 120.722 213.121V210.8C120.722 212.83 121.827 214.81 123.845 216.109C125.838 217.389 127.918 218.016 130.046 218.016C131.604 218.016 133.189 217.68 134.783 217.019C137.925 215.714 139.62 213.463 139.62 210.032Z" fill="#550035"/>
<path d="M139.62 210.032V212.352C139.62 212.536 139.615 212.716 139.605 212.892V210.572C139.615 210.395 139.62 210.215 139.62 210.032ZM139.605 210.572V212.892C139.52 214.459 139.057 215.763 138.243 216.829V214.509C139.057 213.442 139.52 212.138 139.605 210.572ZM138.243 214.509V216.83C137.823 217.38 137.309 217.868 136.705 218.295V215.975C137.309 215.547 137.823 215.06 138.243 214.509ZM136.705 215.975V218.295C136.142 218.694 135.5 219.041 134.783 219.339L134.697 219.375V217.054L134.783 217.019C135.5 216.721 136.142 216.374 136.705 215.975Z" fill="#550035"/>
<path d="M134.697 217.054V219.375C133.701 219.781 132.71 220.059 131.726 220.209V217.888C132.71 217.739 133.701 217.46 134.697 217.054ZM131.726 217.888V220.209C131.163 220.294 130.603 220.337 130.046 220.337C127.917 220.337 125.838 219.71 123.845 218.429C121.827 217.131 120.722 215.151 120.722 213.121V210.8C120.722 212.831 121.827 214.811 123.845 216.109C125.837 217.389 127.917 218.017 130.046 218.017C130.608 218.016 131.169 217.973 131.726 217.888Z" fill="#550035"/>
</svg>
