<svg width="200" height="200" viewBox="0 0 200 200" fill="none" xmlns="http://www.w3.org/2000/svg">
<g clip-path="url(#clip0_15_113)">
<path d="M144.958 0H58.2918C50.9586 0 44.9586 6 44.9586 13.3332V186.666C44.9586 194 50.9586 200 58.2918 200H144.959C152.292 200 158.292 194 158.292 186.666V13.3332C158.292 6 152.292 0 144.958 0ZM151.625 186.667C151.625 190.334 148.625 193.334 144.958 193.334H58.2918C54.625 193.334 51.625 190.334 51.625 186.667V13.3332C51.625 9.66641 54.625 6.66641 58.2918 6.66641H144.959C148.625 6.66641 151.625 9.66641 151.625 13.3332V186.667H151.625Z" fill="#FDE0EF" stroke="#D273A5" stroke-width="0.390625"/>
<path d="M44.9582 20V173.333H158.291V20H44.9582ZM151.625 166.667H51.625V26.6668H151.625V166.667Z" fill="#FDE0EF" stroke="#D273A5" stroke-width="0.390625"/>
<path d="M114.958 10H98.2914C96.2914 10 94.9582 11.3332 94.9582 13.3332C94.9582 15.3332 96.2914 16.6664 98.2914 16.6664H114.958C116.958 16.6664 118.291 15.3332 118.291 13.3332C118.292 11.3332 116.958 10 114.958 10Z" fill="#FDE0EF" stroke="#D273A5" stroke-width="0.390625"/>
<path d="M88.2918 10H84.9586C82.9586 10 81.6254 11.3332 81.6254 13.3332C81.6254 15.3332 82.9586 16.6664 84.9586 16.6664H88.2918C90.2918 16.6664 91.625 15.3332 91.625 13.3332C91.625 11.3332 90.2918 10 88.2918 10Z" fill="#FDE0EF" stroke="#D273A5" stroke-width="0.390625"/>
<path d="M44.9582 30C42.9582 30 41.625 31.3332 41.625 33.3332V36.6664C41.625 38.6664 42.9582 39.9996 44.9582 39.9996C46.9582 39.9996 48.2914 38.6664 48.2914 36.6664V33.3332C48.2918 31.3332 46.9582 30 44.9582 30Z" fill="#FDE0EF" stroke="#D273A5" stroke-width="0.390625"/>
<path d="M44.9582 43.3332C42.9582 43.3332 41.625 44.6664 41.625 46.6664V50C41.625 52 42.9582 53.3332 44.9582 53.3332C46.9582 53.3332 48.2914 52 48.2914 50V46.6668C48.2918 44.6668 46.9582 43.3332 44.9582 43.3332Z" fill="#FDE0EF" stroke="#D273A5" stroke-width="0.390625"/>
<path d="M44.9582 56.6668C42.9582 56.6668 41.625 58 41.625 60V63.3332C41.625 65.3332 42.9582 66.6664 44.9582 66.6664C46.9582 66.6664 48.2914 65.3332 48.2914 63.3332V60C48.2918 58 46.9582 56.6668 44.9582 56.6668Z" fill="#FDE0EF" stroke="#D273A5" stroke-width="0.390625"/>
<path d="M101.625 170C94.2918 170 88.2918 176 88.2918 183.333C88.2918 190.666 94.2918 196.666 101.625 196.666C108.958 196.666 114.958 190.666 114.958 183.333C114.958 176 108.958 170 101.625 170ZM101.625 190C97.9582 190 94.9582 187 94.9582 183.333C94.9582 179.666 97.9582 176.666 101.625 176.666C105.292 176.666 108.292 179.666 108.292 183.333C108.292 187 105.292 190 101.625 190Z" fill="#FDE0EF" stroke="#D273A5" stroke-width="0.390625"/>
<path d="M101.625 63.3332C81.2918 63.3332 64.9582 79.6664 64.9582 100C64.9582 120.334 81.2914 136.667 101.625 136.667C121.959 136.667 138.292 120.334 138.292 100C138.292 79.6664 121.958 63.3332 101.625 63.3332ZM101.625 130C84.9582 130 71.625 116.667 71.625 100C71.625 83.3332 84.9582 70 101.625 70C118.292 70 131.625 83.3332 131.625 100C131.625 116.667 118.292 130 101.625 130Z" fill="#FDE0EF" stroke="#D273A5" stroke-width="0.390625"/>
<path d="M101.625 83.3332C99.625 83.3332 98.2918 84.6664 98.2918 86.6664V100C98.2918 102 99.625 103.333 101.625 103.333C103.625 103.333 104.958 102 104.958 100V86.6668C104.958 84.6668 103.625 83.3332 101.625 83.3332Z" fill="#FDE0EF" stroke="#D273A5" stroke-width="0.390625"/>
<path d="M114.958 96.6668H101.625C99.625 96.6668 98.2918 98 98.2918 100C98.2918 102 99.625 103.333 101.625 103.333H114.958C116.958 103.333 118.291 102 118.291 100C118.291 98 116.958 96.6668 114.958 96.6668Z" fill="#FDE0EF" stroke="#D273A5" stroke-width="0.390625"/>
<path d="M83.9582 124.333C82.625 123 80.625 123 79.2914 124.333L69.2914 134.333C67.9582 135.666 67.9582 137.666 69.2914 139C70.6246 140.333 72.6246 140.333 73.9582 139L83.9582 129C85.2918 127.667 85.2918 125.667 83.9582 124.333Z" fill="#FDE0EF" stroke="#D273A5" stroke-width="0.390625"/>
<path d="M133.958 134.333L123.958 124.333C122.625 123 120.625 123 119.291 124.333C117.958 125.666 117.958 127.666 119.291 129L129.291 139C130.625 140.333 132.625 140.333 133.958 139C135.292 137.667 135.292 135.667 133.958 134.333Z" fill="#FDE0EF" stroke="#D273A5" stroke-width="0.390625"/>
<path d="M80.9582 55C79.9582 53.3332 77.9582 53 76.2914 54L66.2914 60.6668C64.6246 61.6668 64.2914 63.6668 65.2914 65.3336C66.2914 67.0004 68.2914 67.3336 69.9582 66.3336L79.9582 59.6668C81.625 58.6668 81.9582 56.6668 80.9582 55Z" fill="#FDE0EF" stroke="#D273A5" stroke-width="0.390625"/>
<path d="M136.625 60.3332L126.625 53.6664C124.958 52.6664 122.958 52.9996 121.958 54.6664C121.291 56.3332 121.625 58.3332 122.958 59.3332L132.958 66C134.625 67 136.625 66.6668 137.625 65C138.625 63.3332 138.292 61.3332 136.625 60.3332Z" fill="#FDE0EF" stroke="#D273A5" stroke-width="0.390625"/>
<path d="M174.292 87.6668C172.959 86.3336 170.959 86 169.625 87.3336C168.292 88.6668 167.958 90.6668 169.292 92.0004C172.625 96.0004 172.625 103.667 169.292 107.667C167.959 109 168.292 111.334 169.625 112.334C170.958 113.334 172.958 113.667 174.292 112.001C179.625 105.333 179.958 94 174.292 87.6668Z" fill="#FDE0EF" stroke="#D273A5" stroke-width="0.390625"/>
<path d="M184.292 77.6668C182.959 76.3336 180.959 76 179.625 77.3336C178.291 78.6672 177.958 80.6668 179.292 82.0004C187.292 91.0004 186.959 108 179.292 117.667C177.959 119 178.292 121.334 179.625 122.334C180.958 123.667 182.958 123.667 184.292 122.001C194.292 110 194.625 89.3332 184.292 77.6668Z" fill="#FDE0EF" stroke="#D273A5" stroke-width="0.390625"/>
<path d="M34.2918 92.3332C35.625 91 35.2918 89 33.9586 87.6664C32.6254 86.3328 30.6254 86.6664 29.2918 87.9996C23.625 94.3328 23.625 105.666 29.2918 112.333C30.625 113.666 32.625 114 33.9586 112.666C35.2922 111.332 35.2918 109.333 34.2918 107.999C30.9582 104 30.625 96.3332 34.2918 92.3332Z" fill="#FDE0EF" stroke="#D273A5" stroke-width="0.390625"/>
<path d="M24.2918 82.3332C25.625 81 25.2918 79 23.9586 77.6664C22.6254 76.3328 20.6254 76.6664 19.2918 77.9996C8.9586 89.6664 9.2918 110.333 19.2918 122.333C20.625 123.666 22.625 124 23.9586 122.666C25.2922 121.332 25.2918 119.333 24.2918 117.999C16.2918 108.333 15.9582 91.3332 24.2918 82.3332Z" fill="#FDE0EF" stroke="#D273A5" stroke-width="0.390625"/>
<path d="M31.625 13.3332C25.9582 13.3332 21.625 9 21.625 3.3332C21.625 -1 14.9582 -1 14.9582 3.3332C14.9582 9 10.625 13.3332 4.9582 13.3332C0.624997 13.3332 0.624997 20 4.9582 20C10.625 20 14.9582 24.3332 14.9582 30C14.9582 34.3332 21.625 34.3332 21.625 30C21.625 24.3332 25.9582 20 31.625 20C35.9582 20 35.9582 13.3332 31.625 13.3332ZM18.2918 20C17.2918 18.6668 16.2918 17.6668 14.9586 16.6668C16.2918 15.6668 17.2918 14.6668 18.2918 13.3336C19.2918 14.6668 20.2918 15.6668 21.625 16.6668C20.2918 17.6668 19.2918 18.6668 18.2918 20Z" fill="#FDE0EF" stroke="#D273A5" stroke-width="0.390625"/>
<path d="M181.625 46.6668C179.625 46.6668 178.292 48 178.292 50V63.3332C178.292 65.3332 179.625 66.6664 181.625 66.6664C183.625 66.6664 184.958 65.3332 184.958 63.3332V50C184.958 48 183.625 46.6668 181.625 46.6668Z" fill="#FDE0EF" stroke="#D273A5" stroke-width="0.390625"/>
<path d="M188.292 53.3332H174.959C172.959 53.3332 171.625 54.6664 171.625 56.6664C171.625 58.6664 172.959 59.9996 174.959 59.9996H188.292C190.292 59.9996 191.625 58.6664 191.625 56.6664C191.625 54.6668 190.292 53.3332 188.292 53.3332Z" fill="#FDE0EF" stroke="#D273A5" stroke-width="0.390625"/>
<path d="M24.9582 143.333C22.9582 143.333 21.625 144.666 21.625 146.666C21.625 148.666 22.9582 150 24.9582 150C26.9582 150 28.2914 148.667 28.2914 146.667C28.2914 144.667 26.9582 143.333 24.9582 143.333Z" fill="#FDE0EF" stroke="#D273A5" stroke-width="0.390625"/>
<path d="M194.958 186.667C192.958 186.667 191.625 188 191.625 190C191.625 192 192.958 193.333 194.958 193.333C196.958 193.333 198.291 192 198.291 190C198.291 188 196.958 186.667 194.958 186.667Z" fill="#FDE0EF" stroke="#D273A5" stroke-width="0.390625"/>
</g>
<defs>
<clipPath id="clip0_15_113">
<rect width="200" height="200" fill="white"/>
</clipPath>
</defs>
</svg>
