<svg width="200" height="154" viewBox="0 0 200 154" fill="none" xmlns="http://www.w3.org/2000/svg">
<g clip-path="url(#clip0_5_86)">
<path d="M37.8176 0.0102158C35.0099 0.0102158 33.3743 5.21771 33.3743 12.6777V17.4979V64.796V69.7528C33.3743 77.0468 35.0099 82.332 37.8176 82.332C40.572 82.332 42.2804 77.0468 42.2804 69.7528V64.796V17.4979V12.6777C42.2804 5.21771 40.5718 0.0102158 37.8176 0.0102158Z" fill="#1756C2"/>
<path d="M58.6982 22.6127H56.6048V19.4821C56.6048 15.9694 57.4555 14.4897 59.706 15.1045C62.101 15.6401 62.6393 11.9738 62.6393 9.04471C62.6393 6.77906 62.3637 5.62867 61.6371 3.60012C60.0855 -0.101322 56.1589 0.00844767 56.1589 0.00844767C56.1589 0.00844767 52.5997 -0.386724 50.1861 4.22362C47.7822 8.71102 47.9921 16.8819 47.9921 16.8819V22.6114H47.607C46.0097 22.6114 44.3135 25.0044 44.3135 29.9133C44.3135 34.8578 46.2377 37.1239 47.782 37.1239H47.9919V71.1873C47.9919 77.0455 49.4851 82.3307 52.4295 82.3307C55.4344 82.3307 56.6045 77.2115 56.6045 71.5175V37.1239H58.6978C59.8552 37.1239 62.1535 35.7671 62.1535 30.2C62.1535 24.4204 60.3409 22.6114 58.6978 22.6114" fill="#1756C2"/>
<path d="M83.8144 20.726C82.3741 20.726 81.2223 22.2847 80.4682 24.647C79.0827 22.333 77.2575 20.726 75.1292 20.726C66.0601 20.726 62.0424 37.1252 62.0424 52.9589C62.0424 69.9109 66.9237 83.0258 75.1292 83.0258C77.0733 83.0258 78.946 81.467 80.4572 79.074C81.1965 81.4978 82.3557 83.0258 83.8144 83.0258C86.6348 83.0258 88.2428 77.7968 88.2428 70.4158V33.3799C88.2428 26.1258 86.6346 20.726 83.8144 20.726ZM70.8506 52.1409C70.8506 38.6523 73.5719 36.2607 75.399 36.2607C75.472 36.2607 75.5633 36.2607 75.6272 36.2607C77.7279 36.6558 79.3822 40.0236 79.3822 52.7249C79.3822 65.222 77.5897 67.7251 75.7308 67.9745C75.6213 67.9745 75.5666 67.9745 75.4497 67.9745C73.3633 67.9745 70.8499 65.5816 70.8499 52.1409" fill="#1756C2"/>
<path d="M29.9374 66.1172C29.4756 62.7802 21.9819 11.3903 21.6097 8.96613C21.1971 6.52924 20.8175 4.76413 19.9121 3.24141C18.4152 0.510327 15.2099 0.672786 15.2099 0.672786C15.2099 0.672786 12.048 0.497155 10.5237 3.24141C9.63293 4.76501 9.25324 6.53011 8.86077 8.96613C8.48108 11.3899 0.987737 62.7807 0.471143 66.1172C0.0512947 69.3796 -0.311963 73.3757 0.471143 76.6332C1.33091 79.6848 2.7489 82.332 4.58162 82.332C6.44008 82.332 8.08862 80.3913 8.80802 74.948C9.50898 69.3796 9.87589 66.6577 9.87589 66.6577H15.2099H20.5729C20.5729 66.6577 20.9215 69.38 21.6279 74.948C22.3344 80.3926 24.0229 82.332 25.8306 82.332C27.7321 82.332 29.1855 79.6844 29.9378 76.6332C30.7519 73.3752 30.4361 69.3796 29.9378 66.1172H29.9374ZM11.8908 48.9575L15.2099 22.8946L18.5392 48.9575H11.8908Z" fill="#1756C2"/>
<path d="M188.343 144.221H0V154H188.343C194.123 154 198.964 143.781 199.847 130.544C197.257 138.873 193.042 144.221 188.343 144.221Z" fill="#EFCF00"/>
<path d="M199.991 109.468V101.631H11.6829C5.25411 101.631 0 114.279 0 129.757V137.595H188.343C194.783 137.595 199.991 124.927 199.991 109.468Z" fill="#D60F27"/>
<path d="M126.728 20.0924C121.964 20.0924 117.331 35.4383 115.688 41.3755C115.761 40.0231 115.884 37.9595 116.146 35.6007C116.493 31.6929 116.794 26.157 115.688 22.8946C115.04 21.0066 114.085 20.0933 112.804 20.0933C108.392 20.0933 104.033 33.6315 102.169 40.2563C102.39 38.32 102.653 35.8962 102.83 34.496C103.119 31.238 103.688 26.1579 102.775 23.1976C102.231 21.371 101.335 20.5499 100.065 20.5499C97.9893 20.5499 95.6801 22.8946 95.5834 22.8946L95.1124 23.404L95.5432 24.0143C95.5432 24.0143 96.1785 25.5423 95.6893 33.6301C94.8514 47.8467 92.9221 64.7956 92.17 71.5184C91.7374 74.9476 91.8031 77.748 92.3727 79.6053C92.9732 81.4978 94.0666 82.5823 95.4308 82.5823C97.3325 82.5823 99.0615 81.0543 99.1581 80.8348L99.4392 80.6591L99.2165 79.9698C99.2165 79.9259 98.2235 76.3781 99.5323 69.485C103.942 45.8879 107.508 36.4916 108.504 34.8885C108.74 34.6251 108.876 34.309 109.046 34.309C109.156 34.309 109.211 34.4846 109.211 34.6163C109.32 34.748 109.338 35.3276 109.32 35.8589C108.96 44.0605 107.52 57.7567 106.593 66.9155C106.394 69.0099 106.181 70.7135 106.068 72.1449C105.728 75.6532 105.841 78.375 106.394 80.184C106.946 81.6813 107.837 82.5463 109.098 82.5463C111.075 82.5463 112.823 80.7988 112.895 80.768L113.254 80.4168L112.986 79.8328C112.986 79.6132 112.031 76.6187 113.371 69.3216C116.631 51.1705 121.034 36.9882 122.178 34.925C122.565 34.2708 122.763 34.1873 122.879 34.1873C122.916 34.1873 122.934 34.1873 123.007 34.4508C123.098 34.6703 123.135 35.4475 123.098 36.3871C123.08 36.7384 122.952 37.8668 122.85 39.5485C122.197 45.8309 121.038 58.8193 120.402 67.856C120.023 73.2523 120.207 77.2953 121.038 79.597C121.711 81.4543 122.766 82.5388 124.048 82.5388C126.286 82.5388 128.354 79.1843 128.445 79.0613L128.772 78.5256L128.473 78.0383C128.473 78.0383 126.888 74.4466 127.666 63.856C128.217 56.7556 128.929 48.5892 129.466 42.6519C129.721 39.675 129.885 37.2029 130.022 35.8506L130.059 35.3193C130.345 32.0613 130.778 26.1122 129.606 22.7401C128.985 20.7906 128.049 20.0485 126.748 20.0485" fill="#D60F27"/>
<path d="M154.571 20.726C153.219 20.726 152.118 21.5954 151.366 23.3517C150.815 22.535 148.936 20.0937 146.47 20.0937C145.063 20.0937 142.994 20.726 140.673 24.265C138.095 28.1069 135.921 34.2448 134.149 42.6497C130.138 61.4604 132.06 75.1983 133.068 78.5704C133.946 81.4991 135.162 82.8207 136.916 82.8207C139.396 82.8207 142.695 80.476 147.726 61.4604C147.58 64.1387 147.414 67.9012 147.414 71.1105C147.414 81.4684 150.447 82.5836 151.698 82.5836C154.938 82.5836 156.068 78.948 156.077 78.8251L156.205 78.4299L156.077 78.0347C156.041 77.903 154.567 74.285 155.537 55.0186C156.471 36.6646 159.12 24.0112 159.12 23.8562L159.248 23.3469L159.023 22.9956C158.932 22.9078 156.747 20.73 154.575 20.73L154.571 20.726ZM140.574 68.7166C139.914 68.7166 139.561 65.9943 139.561 63.1447C139.561 60.0579 140.202 42.2879 143.329 33.1735C144.023 31.3996 144.848 30.28 145.671 30.28C147.674 30.28 149.547 35.4378 150.01 36.7652C147.583 48.6335 144.173 60.9277 141.746 66.9519C141.301 68.1506 140.87 68.7166 140.574 68.7166Z" fill="#D60F27"/>
<path d="M179.432 20.0924C175.929 20.0924 171.723 34.038 169.943 40.5066C170.237 37.7096 170.67 33.5858 171.002 29.7877C171.232 26.9425 171.075 24.7208 170.617 23.2279C170.014 21.5945 169.021 20.7251 167.632 20.7251C165.644 20.7251 163.244 22.8152 163.158 22.8942L162.809 23.2455L163.118 23.8777C163.118 23.9655 163.766 26.1741 163.366 33.9335C162.809 42.3863 160.573 63.4617 159.63 71.9934C159.197 75.4227 159.303 77.9245 159.827 79.7028C160.625 82.3022 162.176 82.6007 163.244 82.6007C165.06 82.6007 166.867 81.0727 166.946 80.8532L167.293 80.6776L167.085 79.9882C167.072 79.9443 166.219 76.6775 167.213 70.3675C169.888 54.122 172.862 44.633 174.647 41.3755C175.06 40.6818 175.48 40.2559 175.892 40.2559C176.872 40.2559 177.495 42.9035 177.495 42.9035L177.641 43.5665L177.858 43.0308C178.793 40.7959 180.461 36.0525 181.069 31.7728C181.489 29.2086 182.033 24.6461 181.215 21.9989C180.876 20.6773 180.268 20.0933 179.43 20.0933" fill="#D60F27"/>
<path d="M199.658 27.7289C198.676 28.5456 196.262 29.0813 193.022 29.0813C192.657 29.0813 192.356 29.0813 192.153 29.0813C192.299 27.0659 192.885 21.3706 193.521 15.9708C193.92 12.7128 193.875 10.0384 193.303 8.30795C192.741 6.65262 191.819 5.91058 190.419 5.91058C188.455 5.91058 185.628 8.02255 185.518 8.14549L185.098 8.45285L185.459 9.24319C186.544 11.9128 185.368 24.7778 184.863 29.5599C184.808 29.8233 182.05 55.3427 182.05 67.539C182.05 77.77 184.379 82.8414 188.842 82.8414C190.923 82.8414 193.959 81.489 195.999 77.2343C196.89 75.3814 197.283 72.7342 197.047 69.9324C196.919 67.9214 196.505 66.3451 196.505 66.2661L196.359 65.524L196.098 66.108C196.061 66.108 195.143 68.2815 193.308 69.7743C192.616 70.2617 192.072 70.5954 191.51 70.5954C190.921 70.5954 190.424 70.0114 189.959 69.0674C188.925 66.5164 189.592 57.4054 189.813 54.4763C190.159 49.8493 191.008 41.2385 191.193 39.0826C191.514 39.0826 192.187 39.0515 193.051 39.0515C193.792 39.0515 194.426 39.0826 195.046 39.0826C198.887 39.2583 199.962 32.0793 200 28.2861V27.3377L199.658 27.7289Z" fill="#D60F27"/>
</g>
<defs>
<clipPath id="clip0_5_86">
<rect width="200" height="154" fill="white"/>
</clipPath>
</defs>
</svg>
