<svg width="154" height="154" viewBox="0 0 154 154" fill="none" xmlns="http://www.w3.org/2000/svg">
<g clip-path="url(#clip0_3_67)">
<path d="M83.5078 75.8419C93.239 71.4281 94.6782 57.0247 80.8363 57.0247H64.8064L58.8825 68.6404H61.6703L54.5846 96.4018H73.1697C86.7285 96.5177 92.8263 80.5518 83.5078 75.8419ZM73.1697 86.2962H68.5235L70.2657 80.0239H74.6795C79.9067 81.0691 76.6546 86.5284 73.1697 86.2962ZM75.9575 72.9379H72.0083L73.1697 67.4786H77.5835C81.8485 68.5241 78.1647 73.1704 75.9575 72.9379Z" fill="#005FAF" stroke="#005FAF"/>
<path d="M121.56 71.8595L127.646 61.1167L119.411 56.8215L118.337 58.1471C113.895 55.7957 90.6341 59.0424 89.1776 81.9883C90.0482 101.237 111.617 97.7747 113.733 96.5533L119.665 84.2902C113.855 88.1171 101.959 89.9543 101.455 78.4585C102.499 68.9788 113.691 65.4386 121.56 71.8595ZM151.927 57.0247H133.219L127.273 68.2926H130.328L116.229 96.4018H129.876L132.677 89.6219H141.054L141.263 96.4018H153.825L151.927 57.0247ZM136.473 80.4935L141.054 69.558L141.263 80.4935H136.473Z" fill="#005FAF" stroke="#005FAF"/>
<path d="M35.0989 94.522L35.8256 94.3111L35.0286 93.2097L35.0989 94.522ZM23.1678 94.3345L23.0272 95.319C23.3889 95.2837 23.8342 95.5954 24.0118 94.897C23.9984 94.3528 23.5841 94.3228 23.1678 94.3345ZM28.9578 94.3111C28.8975 94.043 28.6737 93.8455 28.1138 94.03L28.3013 95.0376C28.7613 94.9356 28.9978 94.6635 28.9578 94.3111ZM15.878 93.4865L15.6541 94.3817C16.0138 94.3967 16.4352 94.6885 16.674 94.1579C16.69 93.8255 16.7036 93.4945 15.878 93.4865ZM28.4655 95.788L28.6297 96.8195C29.0138 96.8291 29.3641 96.5983 29.2626 96.1164C29.1646 95.6527 28.7753 95.726 28.4655 95.788Z" fill="#005FAF"/>
<path d="M43.7093 57.5556C31.2969 51.2323 16.4731 51.4082 4.64661 57.2798C-1.45184 68.0155 -1.64602 83.0365 4.64661 96.3405C17.6758 102.934 32.0863 102.5 43.8009 96.6163C49.3065 85.321 50.2158 71.7292 43.7093 57.5556ZM22.7461 89.6126L22.0104 89.6209C21.8282 87.5879 21.3422 85.8792 20.2997 84.5716C15.5192 78.5767 5.74706 83.0901 8.25805 72.902C9.56367 67.6935 24.4561 64.6216 22.7461 89.6126ZM8.2757 79.55C9.31954 81.6746 15.8593 82.0226 18.1295 83.649C21.7306 86.2286 21.2137 89.6219 21.2137 89.6219H20.3644C18.6924 84.497 13.9998 88.5547 10.2411 87.1745C7.88135 86.3352 6.16806 82.6971 8.2757 79.55ZM20.1908 96.2569L20.5425 93.4675L21.1754 93.5144L20.8939 96.585C20.6102 97.9376 18.5934 97.7567 18.339 96.4677L18.667 93.28L19.4171 93.3975L19.089 96.0694C19.1307 96.9537 20.0176 96.9007 20.1908 96.2569ZM16.8232 97.0186L16.1018 96.8444C16.1864 96.2483 16.8935 95.0352 15.4959 95.0352L15.1069 96.6206L14.3109 96.4714L15.1565 92.6655C17.2235 92.8906 17.4044 93.4658 17.4454 94.0833C17.3638 94.5623 17.2362 94.8967 16.8235 94.9786C17.3065 95.4169 16.8292 96.3355 16.8232 97.0186ZM12.2412 92.7557C12.0424 93.0195 11.6443 93.9411 11.5867 94.6755C11.5254 95.4539 12.2732 95.29 12.4594 95.1991C12.6096 95.1262 12.7211 94.501 12.7211 94.501L12.1976 94.3265L12.3721 93.8032L13.5505 94.1959L12.9833 96.1597L12.5033 96.0284L12.547 95.723C11.9594 95.9908 10.8839 95.79 10.7577 95.1122C10.6315 94.5676 11.0138 92.9166 11.6304 92.1452C12.2295 91.3951 13.6894 92.1282 13.725 92.5815C13.7603 93.0332 13.5821 93.5414 13.5821 93.5414L13.0326 93.4378C13.0326 93.4378 13.0662 93.2746 13.1142 93.0175C13.1648 92.7451 12.4544 92.4723 12.2412 92.7557ZM22.9569 95.9518L22.8164 97.6398L22.2305 97.6165L22.4414 93.608C23.9045 93.6383 24.7432 93.8409 24.7152 94.874C24.6279 96.2856 23.4849 95.9681 22.9569 95.9518ZM24.4154 89.6216H23.4352C23.3483 86.1503 24.0158 79.8011 22.1919 75.1285C20.81 71.5863 17.3128 69.9929 16.5378 67.1316C15.3107 62.6025 17.3991 57.7021 24.4154 57.3248C30.4982 57.9493 32.3671 62.6452 31.3296 67.0173C29.5457 71.3888 27.7614 70.7607 25.5402 75.1152C23.726 79.7831 24.4168 85.8985 24.4154 89.6216ZM35.2864 96.0457L34.6066 96.2802L34.3955 92.2485L35.1925 92.0376L37.1616 95.366L36.6223 95.7177L35.9659 94.7804L35.2158 95.0615L35.2864 96.0457ZM27.3558 89.6216H26.5717C27.2179 80.7067 38.4206 82.6435 39.4444 79.55C41.215 82.6168 40.5785 85.2028 38.7297 86.5284C34.1353 89.8237 29.7299 84.0897 27.3558 89.6216ZM31.5128 94.124L31.8645 95.9758C32.0833 96.4025 32.2319 96.3235 32.5676 96.2806C32.9569 95.9988 32.8757 95.7243 32.8021 95.3663L33.4819 95.2727C33.659 96.6143 33.0212 96.7512 32.5443 96.8431C31.5214 96.9164 31.3209 96.7172 31.0441 95.3899C30.8829 94.2539 30.6045 93.0541 31.5597 92.835C33.1278 92.5955 33.0352 93.3013 33.1771 93.7959L32.4973 93.9135C32.3887 93.4885 32.2325 93.3199 31.8878 93.3512C31.5737 93.4955 31.4448 93.7289 31.5128 94.124ZM30.0829 96.0457C30.1155 96.6296 29.9174 97.0173 29.5437 97.1475L27.9496 97.4756L27.3168 93.608C27.6439 93.5547 29.2476 92.9672 29.6373 94.0304C29.8294 94.6795 29.6303 94.9123 29.4028 95.2021C29.8341 95.3406 29.9797 95.6764 30.0829 96.0457ZM25.9895 76.637C29.5407 66.6383 37.6665 68.4052 39.4687 72.9023C41.9377 81.9261 33.9874 79.4514 28.8949 83.1517C26.9701 84.8257 25.9572 86.7462 25.9422 89.6575H25.0696C25.0173 83.7936 24.9224 79.6412 25.9895 76.637Z" fill="#005FAF"/>
</g>
<defs>
<clipPath id="clip0_3_67">
<rect width="154" height="154" fill="white"/>
</clipPath>
</defs>
</svg>
