<svg width="154" height="154" viewBox="0 0 154 154" fill="none" xmlns="http://www.w3.org/2000/svg">
<path d="M141.167 77C141.167 112.433 112.433 141.167 77 141.167C41.5672 141.167 12.8333 112.433 12.8333 77C12.8333 41.5672 41.5672 12.8333 77 12.8333C112.433 12.8333 141.167 41.5672 141.167 77Z" fill="#FFC107"/>
<path d="M54.5417 109.083V44.9167H80.8468C88.5789 44.9167 94.4309 46.4085 98.4285 49.3923C102.426 52.376 104.418 56.749 104.418 62.5015C104.418 65.6457 103.616 68.4177 102.025 70.8111C100.421 73.2045 98.191 74.9595 95.3324 76.076C98.5921 76.9037 101.159 78.556 103.039 81.0649C104.922 83.5546 105.875 86.5993 105.875 90.2215C105.875 96.3879 103.921 101.062 100.01 104.232C96.0992 107.402 90.536 109.019 83.3044 109.083H54.5417ZM67.375 70.5833H81.373C87.9918 70.471 91.3124 67.9397 91.3124 62.7389C91.3124 59.8322 90.4718 57.7372 88.7938 56.4602C87.1159 55.1833 84.469 54.5417 80.8468 54.5417H67.375V70.5833ZM67.375 80.2083V99.4583H82.9162C85.9994 99.4583 93.0417 97.9536 93.0417 91.0878C93.0417 84.222 89.458 80.2949 83.4167 80.2083H67.375Z" fill="#FFF8E1"/>
<path d="M64.1667 35.2917H73.7917V51.3333H64.1667V35.2917ZM80.2083 35.2917H89.8333V51.3333H80.2083V35.2917ZM64.1667 102.667H73.7917V118.708H64.1667V102.667ZM80.2083 102.667H89.8333V118.708H80.2083V102.667Z" fill="#FFF8E1"/>
</svg>
