<svg width="154" height="154" viewBox="0 0 154 154" fill="none" xmlns="http://www.w3.org/2000/svg">
<path fill-rule="evenodd" clip-rule="evenodd" d="M46.1515 102.094H8.40515V48.9031H46.1515V102.094Z" fill="white"/>
<path fill-rule="evenodd" clip-rule="evenodd" d="M23.5268 84.8004L27.5289 80.2248C26.8654 79.0416 26.2323 77.8214 25.6283 76.5893C20.9819 67.1058 18.244 57.4418 20.2281 48.9031H8.40503V58.1239L23.5268 84.8004Z" fill="#E94D11"/>
<path fill-rule="evenodd" clip-rule="evenodd" d="M29.8536 71.0115C30.1023 68.0047 30.7432 62.3198 34.6512 58.1091C38.0357 54.4616 42.2621 53.7632 46.0125 56.0125V48.9032H25.1435C23.7647 57.5634 27.3881 67.0733 29.8536 71.0115Z" fill="#E94D11"/>
<path fill-rule="evenodd" clip-rule="evenodd" d="M34.9099 62.3405L34.8962 62.3569C30.9703 66.8644 31.9368 73.9428 35.5857 80.2962C38.4062 85.2082 42.1741 88.6478 46.0125 86.0401V65.1131C42.5652 60.1209 38.4267 58.3003 34.9099 62.3405Z" fill="#E94D11"/>
<path fill-rule="evenodd" clip-rule="evenodd" d="M8.40509 69.0364V102.093H8.40732L19.7871 89.0779L8.40509 69.0364Z" fill="#E94D11"/>
<path fill-rule="evenodd" clip-rule="evenodd" d="M29.0967 82.8551C27.9866 84.1555 26.6017 85.7538 25.0647 87.5121L26.5405 90.1158C28.6837 93.8984 31.8059 100.437 35.6827 98.6681L35.8252 98.9171L33.0733 102.093H46.0126V89.5065C39.3544 94.6276 33.6351 89.9676 29.0967 82.8551Z" fill="#E94D11"/>
<path fill-rule="evenodd" clip-rule="evenodd" d="M22.8516 94.4764L21.3225 91.7824C18.1886 95.3437 14.8795 99.0815 12.2049 102.093H26.6866C25.745 99.2656 24.0347 96.5611 22.8516 94.4764Z" fill="#E94D11"/>
<path fill-rule="evenodd" clip-rule="evenodd" d="M77.3473 71.1271C80.8091 70.2699 83.0598 66.0325 83.0598 60.6192C83.0598 53.4325 78.6609 48.9032 71.118 48.9032H56.1991V49.1447C59.2452 51.5112 59.1766 55.3245 59.1766 58.9601V91.9439C59.1766 95.6582 59.2452 99.5115 56.1991 101.835V102.077H63.3826C70.4036 102.077 75.778 102.246 79.8028 99.5738C84.0695 96.7375 86.6621 91.6534 86.6621 85.4304C86.6621 77.5115 82.4887 72.6631 77.3473 71.1271ZM65.0291 53.8033L69.7466 53.9176C73.2481 53.9176 76.8317 56.3388 76.8317 61.9167C76.8317 68.5427 73.6655 70.3204 69.148 70.3204L65.0291 70.3322V70.3204V53.8033ZM69.5786 96.6055L65.0291 96.616V75.6539V75.354L69.9175 75.3275C75.6155 75.3275 80.3173 78.3211 80.3173 86.1584C80.3173 93.8388 75.3816 96.6055 69.5786 96.6055Z" fill="#006383"/>
<path fill-rule="evenodd" clip-rule="evenodd" d="M98.0956 91.9543C98.0956 96.4824 98.0378 99.7164 101.066 102.219V102.461H90.9521V102.219C93.9829 99.7164 93.9304 96.4824 93.9304 91.9543V59.642C93.9304 55.1171 93.9829 51.5687 90.9573 49.1447V48.9031H99.3527V48.9847C99.5812 49.9556 99.9459 50.4865 100.211 51.004C100.474 51.52 101.009 52.6187 101.009 52.6187L120.263 89.33V59.3292C120.263 54.8038 120.322 51.5687 117.291 49.1447V48.9031H127.349V49.1447C124.377 51.5687 124.377 54.8038 124.377 59.3292V105.097C122.548 104.066 117.421 98.0422 113.776 91.1077C107.239 78.6696 98.0956 61.3932 98.0956 61.3932V91.9543Z" fill="#006383"/>
<path fill-rule="evenodd" clip-rule="evenodd" d="M136.723 58.5376C136.723 54.8219 136.685 51.5139 133.763 49.1447V48.9031H145.595V49.1447C142.666 51.4442 142.64 54.902 142.64 58.5376V92.5342C142.64 96.165 142.573 99.8317 145.595 102.21V102.45H133.763V102.21C136.803 99.8068 136.723 96.1934 136.723 92.5594V58.5376Z" fill="#006383"/>
</svg>
