<svg width="231" height="154" viewBox="0 0 231 154" fill="none" xmlns="http://www.w3.org/2000/svg">
<g clip-path="url(#clip0_5_99)">
<path fill-rule="evenodd" clip-rule="evenodd" d="M0 0.00480652H231V153.995H0V0.00480652Z" fill="white"/>
<path fill-rule="evenodd" clip-rule="evenodd" d="M10.2589 9.63943H220.741C223.7 9.63943 226.12 14.2498 226.12 19.8869V51.5082H199.778C198.395 22.8738 129.026 16.7716 117.039 16.6015C97.7152 16.3256 31.1585 24.8469 31.1585 50.9531V51.5082H4.88028V19.8869C4.88028 14.2498 7.29987 9.63943 10.2589 9.63943Z" fill="#FF0000"/>
<path fill-rule="evenodd" clip-rule="evenodd" d="M31.1396 98.3178H4.88028V55.8041H31.1533C31.1311 69.1251 31.0352 85.4588 31.1396 98.3178ZM226.12 55.8041V98.3178H199.838C200.045 85.0256 199.58 69.215 199.749 55.8041H226.12Z" fill="#0000FF"/>
<path fill-rule="evenodd" clip-rule="evenodd" d="M226.12 102.614V134.113C226.12 139.75 223.7 144.361 220.741 144.361H10.2589C7.29987 144.361 4.88028 139.75 4.88028 134.113V102.614H31.316C34.5627 128.345 89.0814 138.454 116.356 138.74C131.72 138.9 195.68 129.747 199.604 102.614H226.12Z" fill="#F9CD09"/>
<path fill-rule="evenodd" clip-rule="evenodd" d="M116.714 24.1122C131.696 24.3721 195.865 36.5894 195.275 51.7552C194.78 64.4891 195.787 89.1804 195.275 101.914C194.68 116.673 131.24 129.577 116.308 129.339C100.212 129.086 35.9463 119.105 35.6826 100.548C35.5028 87.788 35.6826 65.9232 35.6826 53.1605C35.6826 34.2185 100.369 23.8331 116.714 24.1122ZM116.647 35.736C101.215 35.5146 40.1365 42.4928 40.1365 57.2479C40.1365 67.1937 39.9704 86.8351 40.1365 96.7778C40.3831 111.607 101.066 117.52 116.264 117.719C130.363 117.901 190.264 109.338 190.826 97.8397C191.309 87.9196 190.358 66.4494 190.826 56.526C191.382 44.7129 130.793 35.9349 116.647 35.736Z" fill="#E6252D"/>
<path fill-rule="evenodd" clip-rule="evenodd" d="M91.1414 78.3716C91.9291 79.0357 91.7784 82.613 90.8058 86.3346C89.8331 90.0531 88.3982 92.5428 87.6088 91.8786C86.8211 91.2113 86.9718 87.634 87.9444 83.9123C88.917 80.1939 90.352 77.7042 91.1414 78.3716ZM144.533 78.6924C145.321 79.3597 145.172 82.937 144.199 86.6555C143.227 90.3739 141.79 92.8636 141.002 92.1995C140.213 91.5321 140.364 87.9581 141.336 84.2364C142.309 80.5179 143.746 78.0283 144.533 78.6924ZM170.743 77.6465C171.175 78.2593 170.786 80.5949 169.877 82.8472C168.967 85.0994 167.875 86.4373 167.445 85.8277C167.014 85.2181 167.402 82.8825 168.311 80.6302C169.221 78.378 170.312 77.0369 170.743 77.6465ZM171.296 72.8276C168.3 72.3976 166.293 76.2958 165.241 80.1426C164.407 83.1937 164.159 87.5795 164.755 91.2402C163.892 92.5492 162.813 93.6785 161.099 94.3202C160.248 94.6378 159.779 93.4315 159.787 92.3246C159.808 89.1355 159.991 86.4662 160.479 83.476C160.679 82.2408 161.363 82.6611 161.594 81.6152C162.07 79.4463 162.128 77.3513 160.601 77.6946C159.621 77.9128 158.558 78.1919 158.52 75.7054C158.484 73.2799 160.066 71.9838 159.83 71.772C158.957 70.986 158.219 71.7656 157.306 71.156C157.051 70.986 157.26 69.8983 157.003 69.7347C156.654 69.5198 156.039 70.2096 155.839 70.7838C155.397 72.0543 155.434 73.2126 155.106 74.7108C154.832 75.9653 154.803 77.3609 154.652 78.6892C154.176 81.3008 151.157 89.3922 148.939 91.5033C147.693 92.6871 146.908 91.6444 147.294 89.2061C147.809 85.9496 149.52 78.0251 150.631 72.4361C149.544 72.4843 148.58 72.6447 147.492 72.6928C147.366 73.4018 147.177 73.8863 147.052 74.5953C144.616 71.6726 143.133 72.7923 140.922 75.7728C139.275 77.993 137.831 81.3489 137.054 85.3689C136.745 86.9635 136.576 88.5805 136.554 90.0948C135.208 91.006 133.87 92.3567 132.67 92.023C132.377 91.9396 132.177 91.1022 132.244 90.56C132.646 87.31 133.495 84.3038 134.019 81.1147C134.348 79.1127 135.004 77.0593 134.8 74.9964C134.526 72.2212 132.636 72.1378 131.605 73.1356C130.732 73.9858 130.064 75.4712 129.192 76.3278C129.018 76.4979 128.769 76.3086 128.624 76.0616C128.249 75.4263 128.071 74.4478 127.701 73.8029C127.374 73.2318 127.002 72.6383 126.564 72.4714C126.029 72.2629 125.437 72.3431 124.932 72.7345C123.863 73.5687 123.101 75.8434 121.951 76.0616C121.452 76.1578 121.772 74.1237 121.452 73.4018C120.683 71.6597 119.945 72.2629 119.039 73.0008C117.178 74.5151 115.337 76.1257 113.49 77.6946C113.671 78.394 113.827 79.1223 113.952 79.8763C114.69 79.4014 115.452 78.7983 116.2 78.455C116.545 78.2978 116.964 77.9673 117.264 78.3234C117.536 78.6443 117.644 79.4752 117.548 80.0527C116.538 86.1486 115.181 92.023 113.998 98.0098C115.229 97.9648 116.459 97.9199 117.69 97.8782C118.803 92.5107 119.579 86.8576 121.028 81.782C121.288 80.8676 122.045 80.5147 122.589 80.7168C122.963 80.858 123.091 81.8751 123.158 82.5777C123.24 83.4568 123.168 84.3936 123.016 85.2406C122.24 89.5205 121.264 93.6625 120.389 97.8782C121.738 97.8301 123.158 98.0547 124.505 98.0098C125.807 92.4208 126.319 86.694 127.913 81.381C128.112 80.7201 129.158 80.5051 129.547 80.7168C129.805 80.858 130.1 81.4195 130.043 81.9136C129.699 84.9037 128.817 87.5987 128.411 90.56C128.221 91.9364 128.062 93.4507 128.269 94.8143C128.442 95.9693 128.905 97.0729 129.476 97.6119C129.963 98.0675 130.605 97.8686 131.108 97.4772C133.019 95.9917 134.79 93.9512 136.619 92.1321C136.939 95.9789 138.415 98.6161 141.227 97.4483C142.208 97.0376 142.742 95.8377 143.653 95.0324C144.112 97.7884 145.128 98.9177 146.761 97.6601C150.794 94.5576 153.157 89.1644 156.14 81.0762C156.621 81.2783 157.568 80.7682 158.049 80.781C157.535 83.691 154.356 94.0796 157.679 97.2077C158.607 98.0803 159.318 97.7948 160.34 97.4483C162.637 96.6623 164.053 94.8367 165.157 93.1267C165.717 95.1864 166.616 96.8291 167.914 97.5734C170.558 99.0942 173.582 96.473 175.471 94.9105C176.478 98.167 179.074 98.7669 180.593 97.7306C182.192 96.6398 183.637 94.7308 184.916 92.6166C185.182 92.177 185.153 91.0605 184.887 90.6242C184.637 90.2167 184.221 90.945 183.956 91.3172C182.851 92.8604 180.637 96.7585 179.389 93.486C178.831 92.0166 179.202 89.5398 179.755 86.7325C180.295 83.9926 180.815 80.4506 181.343 77.7042C182.098 77.5887 182.944 77.7395 183.697 77.624C184.023 75.9076 184.161 74.5408 184.488 72.8243C183.98 72.7473 183.283 72.8468 182.774 72.7698C183.245 68.1723 184.257 63.4913 185.115 58.8938C183.959 58.9355 182.988 59.0638 181.831 59.1055C181.019 63.5747 180.38 67.9573 179.274 72.4297C178.517 72.4714 177.712 72.5998 176.957 72.6415C176.757 74.313 176.557 75.9846 176.356 77.6561C176.935 77.6144 177.747 77.5727 178.326 77.531C177.591 82.7734 176.791 87.5057 175.154 91.5674C174.572 93.0112 173.563 93.8357 172.616 94.1983C169.719 95.3116 168.603 93.5534 168.142 91.0926C169.366 89.1708 170.582 88.2628 171.683 86.1004C173.459 82.6194 175.639 73.4468 171.296 72.8276ZM70.5946 52.4097C65.9951 53.4011 59.1798 54.3476 55.2876 59.1504C52.9964 61.9738 50.9416 67.3991 52.9981 72.9206C55.0068 78.3138 58.5959 76.0295 60.048 72.4426C58.387 72.0351 57.0616 71.4544 56.9572 69.2246C56.4828 59.0863 61.4282 61.1845 66.1715 58.2842C63.7091 69.1989 61.4915 88.6607 55.2157 91.0637C50.6522 92.8123 48.5579 89.0328 47.4928 83.7102C44.9637 92.8315 48.5802 96.9927 51.8269 97.9296C54.827 98.799 58.6695 95.2891 60.7912 91.1279C62.2912 89.2991 63.7896 87.2105 65.1543 84.8396C65.5122 84.2171 70.5141 77.0433 70.0534 82.9787C69.6459 88.2083 68.538 92.023 67.7092 97.0793C68.9404 97.1211 70.1716 97.166 71.4011 97.2109C72.3001 92.1995 72.9628 87.018 74.0998 82.1798C74.2984 81.3361 74.819 80.7136 75.307 80.5821C75.7591 80.4634 76.4184 80.7201 76.5845 81.5157C76.8773 82.921 76.4612 84.7048 76.2471 86.1582C75.9012 88.5356 73.9868 96.2773 76.4749 96.8708C78.9184 97.4515 81.6651 94.1758 83.1138 91.9717C83.3158 94.2753 83.9631 96.2805 85.2577 97.4355C86.1498 98.2247 87.2543 97.7178 88.2149 97.3071C88.9958 96.9703 89.6362 95.9308 90.3469 95.2442C90.2201 98.5841 91.9222 98.1894 93.061 97.1756C95.6364 94.8848 97.0748 93.2743 98.8334 92.177C98.6519 91.5835 98.4909 90.9675 98.3505 90.329C97.0851 90.9322 95.8385 92.0808 94.5422 91.8947C94.1089 91.8305 93.9925 90.3451 94.1295 89.5751C95.9463 79.3597 98.2563 69.4748 100.318 59.4231C99.2427 59.5547 98.4156 59.5547 97.3368 59.683C96.4892 63.9758 95.3915 68.4001 94.5422 72.696C90.4941 71.3068 86.7252 73.4275 84.0898 82.8729C83.5264 84.8909 83.1275 87.2522 83.0538 89.5237C82.1377 90.6498 81.2832 91.8081 80.2044 92.3118C79.8037 92.5011 79.4955 91.3236 79.5657 90.56C79.8003 88.0222 80.2712 85.5871 80.7284 83.1488C81.0401 81.4836 82.1942 76.6391 81.7661 74.9964C81.0281 72.1538 79.9459 72.1698 78.8482 73.0136C77.4372 74.1013 76.0005 76.5556 75.2351 76.0616C74.1084 75.3333 74.4286 72.0768 72.7367 72.4426C72.2025 72.5613 71.6597 72.9655 71.1888 73.4018C68.7743 75.6316 66.4831 78.8271 64.1766 81.5735C66.3907 73.5943 68.4918 62.9651 70.5946 52.4097Z" fill="#0000FF"/>
<path d="M106.031 68.9359H106.034C108.317 68.9391 110.39 70.6844 111.892 73.4981V73.5013C113.392 76.315 114.324 80.1971 114.324 84.4706V84.477C114.324 88.7569 113.392 92.6422 111.89 95.4559H111.889C110.387 98.2664 108.317 100.012 106.034 100.012H106.031C103.746 100.012 101.673 98.2664 100.172 95.4527C98.6707 92.639 97.7392 88.7569 97.7392 84.4802V84.4706C97.7392 80.1939 98.6707 76.3086 100.172 73.4949C101.674 70.6844 103.746 68.9391 106.029 68.9359H106.031ZM106.034 70.832H106.029C104.025 70.832 102.205 72.3656 100.888 74.836C99.568 77.3064 98.7495 80.7168 98.7495 84.4706V84.4802C98.7512 88.234 99.568 91.6444 100.887 94.1148C102.205 96.5853 104.027 98.1188 106.031 98.1188H106.034C108.037 98.1156 109.858 96.5853 111.176 94.1148H111.175C112.495 91.6444 113.313 88.234 113.313 84.477V84.4706C113.312 80.7168 112.495 77.3064 111.178 74.836H111.176C109.858 72.3656 108.037 70.832 106.034 70.832Z" fill="#FF0000"/>
<path fill-rule="evenodd" clip-rule="evenodd" d="M106.031 72.7217C109.496 72.7217 112.305 77.9833 112.305 84.4738C112.305 90.9643 109.496 96.2291 106.031 96.2291C102.566 96.2291 99.7581 90.9643 99.7581 84.4738C99.7581 77.9833 102.566 72.7217 106.031 72.7217ZM106.031 75.1408C108.782 75.1408 111.014 79.3212 111.014 84.4738C111.014 89.6296 108.782 93.8101 106.031 93.8101C103.28 93.8101 101.051 89.6296 101.051 84.4738C101.051 79.3212 103.28 75.1408 106.031 75.1408Z" fill="#FF0000"/>
<path fill-rule="evenodd" clip-rule="evenodd" d="M106.031 77.4283C108.108 77.4283 109.793 80.5821 109.793 84.4738C109.793 88.3655 108.108 91.5225 106.031 91.5225C103.953 91.5225 102.27 88.3655 102.27 84.4738C102.27 80.5821 103.953 77.4283 106.031 77.4283Z" fill="#FF0000"/>
</g>
<defs>
<clipPath id="clip0_5_99">
<rect width="231" height="154" fill="white"/>
</clipPath>
</defs>
</svg>
