<svg width="154" height="154" viewBox="0 0 154 154" fill="none" xmlns="http://www.w3.org/2000/svg">
<path fill-rule="evenodd" clip-rule="evenodd" d="M70.1996 77.6803L70.87 73.4094L69.3765 73.3746H62.2449L67.2011 41.8589C67.2165 41.7635 67.2664 41.6749 67.3394 41.6119C67.4127 41.5489 67.5059 41.5143 67.6036 41.5143H79.6289C83.6212 41.5143 86.3762 42.3473 87.8145 43.9916C88.4889 44.763 88.9183 45.5693 89.1262 46.4563C89.3442 47.3872 89.3479 48.4993 89.1352 49.8559L89.1198 49.9545V50.824L89.7942 51.2071C90.3619 51.5093 90.8133 51.855 91.1595 52.2506C91.7362 52.9104 92.1093 53.7489 92.267 54.7425C92.43 55.7645 92.3761 56.9811 92.1092 58.358C91.8015 59.9418 91.3042 61.3215 90.6324 62.4502C90.0146 63.4902 89.2276 64.3531 88.2927 65.0215C87.4006 65.6568 86.3404 66.139 85.1418 66.4475C83.9799 66.7508 82.6558 66.9037 81.2031 66.9037H80.2672C79.5983 66.9037 78.9484 67.1456 78.438 67.5787C77.9264 68.021 77.5881 68.6253 77.4843 69.2859L77.4137 69.6707L76.2289 77.1983L76.1753 77.4745C76.161 77.5621 76.1365 77.6056 76.1007 77.6351C76.0688 77.6622 76.0229 77.6803 75.9778 77.6803H70.1996Z" fill="#28356A"/>
<path fill-rule="evenodd" clip-rule="evenodd" d="M90.4322 50.0548C90.3967 50.2849 90.3555 50.52 90.3093 50.7619C88.7236 58.9273 83.2981 61.7482 76.3689 61.7482H72.8407C71.9931 61.7482 71.2789 62.365 71.1472 63.2032L68.8292 77.9487C68.7435 78.4994 69.1664 78.9951 69.72 78.9951H75.9777C76.7185 78.9951 77.3481 78.4553 77.4649 77.7225L77.5262 77.4039L78.7043 69.9056L78.7803 69.4944C78.8955 68.7589 79.5264 68.2188 80.2672 68.2188H81.2031C87.2657 68.2188 92.0118 65.7506 93.3991 58.6071C93.9782 55.6229 93.6784 53.1313 92.1451 51.3789C91.6812 50.8508 91.1056 50.412 90.4322 50.0548Z" fill="#298FC2"/>
<path fill-rule="evenodd" clip-rule="evenodd" d="M88.7736 49.3917C88.5311 49.3207 88.2813 49.2566 88.0248 49.1986C87.767 49.1421 87.503 49.0921 87.2312 49.0481C86.2801 48.894 85.2377 48.8209 84.1212 48.8209H74.6958C74.4635 48.8209 74.2431 48.8735 74.0458 48.9685C73.6109 49.1781 73.2881 49.5908 73.21 50.0961L71.2048 62.8323L71.1472 63.2035C71.2791 62.3652 71.9934 61.7482 72.8407 61.7482H76.3688C83.2981 61.7482 88.7236 58.926 90.3096 50.7618C90.3568 50.5202 90.3967 50.2851 90.4322 50.055C90.031 49.8415 89.5967 49.6589 89.1288 49.5033C89.013 49.4648 88.8938 49.4277 88.7736 49.3917Z" fill="#22284F"/>
<path fill-rule="evenodd" clip-rule="evenodd" d="M73.21 50.0961C73.2883 49.5909 73.6109 49.1782 74.0458 48.97C74.2445 48.8746 74.4635 48.822 74.6958 48.822H84.1212C85.2377 48.822 86.2801 48.8955 87.2314 49.0496C87.5031 49.0932 87.767 49.1436 88.0248 49.2001C88.2813 49.2578 88.5311 49.3222 88.7736 49.3928C88.8938 49.4288 89.0131 49.4663 89.1299 49.5034C89.5977 49.659 90.0326 49.843 90.4338 50.0551C90.9057 47.0376 90.4299 44.9831 88.803 43.1227C87.0095 41.0743 83.7725 40.1977 79.6302 40.1977H67.6047C66.7587 40.1977 66.0371 40.8146 65.9062 41.6544L60.8974 73.4941C60.7987 74.1239 61.2832 74.6924 61.9168 74.6924H69.3406L73.21 50.0961Z" fill="#28356A"/>
<path fill-rule="evenodd" clip-rule="evenodd" d="M34.7684 86.3486H26.0007C25.4006 86.3486 24.8904 86.7856 24.7966 87.3799L21.2505 109.927C21.1802 110.372 21.5238 110.772 21.9738 110.772H26.1594C26.7593 110.772 27.2697 110.336 27.3634 109.74L28.3198 103.659C28.4119 103.064 28.9233 102.627 29.5223 102.627H32.2978C38.0733 102.627 41.4063 99.8236 42.2772 94.2698C42.6694 91.8398 42.2937 89.9307 41.1589 88.5935C39.9128 87.1252 37.7026 86.3486 34.7684 86.3486ZM35.7798 94.5836C35.3002 97.7385 32.8965 97.7385 30.5724 97.7385H29.2491L30.1774 91.8461C30.2326 91.4901 30.54 91.2277 30.8993 91.2277H31.5057C33.089 91.2277 34.5825 91.2277 35.3541 92.1329C35.8145 92.6727 35.9553 93.4751 35.7798 94.5836Z" fill="#28356A"/>
<path fill-rule="evenodd" clip-rule="evenodd" d="M61.2007 94.3115H57.002C56.6444 94.3115 56.3351 94.5738 56.2801 94.9299L56.0942 96.1074L55.8008 95.6807C54.892 94.3577 52.8647 93.9153 50.842 93.9153C46.2021 93.9153 42.2395 97.4395 41.4677 102.383C41.0665 104.849 41.6368 107.207 43.0318 108.851C44.3114 110.363 46.1421 110.993 48.3202 110.993C52.0586 110.993 54.1313 108.582 54.1313 108.582L53.9443 109.753C53.874 110.2 54.2176 110.601 54.665 110.601H58.4467C59.0481 110.601 59.5558 110.164 59.6508 109.569L61.9199 95.1574C61.9916 94.7137 61.6491 94.3115 61.2007 94.3115ZM55.3479 102.507C54.943 104.912 53.0395 106.527 50.611 106.527C49.392 106.527 48.4179 106.134 47.7918 105.391C47.1713 104.654 46.9357 103.603 47.1328 102.433C47.5114 100.048 49.447 98.3805 51.8383 98.3805C53.0304 98.3805 53.9996 98.7783 54.6381 99.5273C55.2775 100.285 55.5316 101.342 55.3479 102.507Z" fill="#28356A"/>
<path fill-rule="evenodd" clip-rule="evenodd" d="M83.2383 94.6718H79.019C78.6165 94.6718 78.2384 94.8725 78.0103 95.2081L72.191 103.804L69.7243 95.5435C69.5692 95.0265 69.0937 94.6718 68.5552 94.6718H64.4094C63.9052 94.6718 63.5555 95.1656 63.7156 95.6414L68.363 109.318L63.9939 115.504C63.6503 115.991 63.9963 116.661 64.59 116.661H68.804C69.2041 116.661 69.5783 116.465 69.8053 116.136L83.8381 95.8225C84.1743 95.3366 83.8291 94.6718 83.2383 94.6718Z" fill="#28356A"/>
<path fill-rule="evenodd" clip-rule="evenodd" d="M97.3038 86.3486H88.5351C87.9364 86.3486 87.426 86.7856 87.3323 87.3799L83.7863 109.927C83.716 110.372 84.0595 110.772 84.5069 110.772H89.0069C89.4246 110.772 89.7822 110.467 89.8476 110.05L90.8541 103.659C90.9463 103.064 91.4582 102.627 92.0567 102.627H94.831C100.608 102.627 103.94 99.8236 104.812 94.2698C105.205 91.8398 104.827 89.9307 103.692 88.5935C102.447 87.1252 100.238 86.3486 97.3038 86.3486ZM98.3154 94.5836C97.8372 97.7385 95.4332 97.7385 93.1078 97.7385H91.7864L92.7157 91.8461C92.7706 91.4901 93.0757 91.2277 93.436 91.2277H94.0425C95.6244 91.2277 97.1193 91.2277 97.8909 92.1329C98.3513 92.6727 98.4909 93.4751 98.3154 94.5836Z" fill="#298FC2"/>
<path fill-rule="evenodd" clip-rule="evenodd" d="M123.731 94.3115H119.535C119.174 94.3115 118.868 94.5738 118.814 94.9299L118.628 96.1074L118.333 95.6807C117.424 94.3577 115.399 93.9153 113.376 93.9153C108.736 93.9153 104.775 97.4395 104.003 102.383C103.603 104.849 104.171 107.207 105.566 108.851C106.848 110.363 108.676 110.993 110.854 110.993C114.592 110.993 116.665 108.582 116.665 108.582L116.478 109.753C116.408 110.2 116.751 110.601 117.201 110.601H120.982C121.581 110.601 122.091 110.164 122.185 109.569L124.455 95.1574C124.524 94.7137 124.181 94.3115 123.731 94.3115ZM117.879 102.507C117.476 104.912 115.57 106.527 113.141 106.527C111.925 106.527 110.948 106.134 110.322 105.391C109.702 104.654 109.468 103.603 109.663 102.433C110.044 100.048 111.977 98.3805 114.368 98.3805C115.561 98.3805 116.53 98.7783 117.168 99.5273C117.81 100.285 118.064 101.342 117.879 102.507Z" fill="#298FC2"/>
<path fill-rule="evenodd" clip-rule="evenodd" d="M128.331 86.9683L124.732 109.928C124.662 110.373 125.005 110.774 125.453 110.774H129.071C129.672 110.774 130.182 110.337 130.274 109.741L133.823 87.1959C133.894 86.7509 133.55 86.3486 133.102 86.3486H129.051C128.694 86.3497 128.386 86.6123 128.331 86.9683Z" fill="#298FC2"/>
</svg>
