<svg width="154" height="154" viewBox="0 0 154 154" fill="none" xmlns="http://www.w3.org/2000/svg">
<path d="M144.375 112.292C144.375 119.379 138.629 125.125 131.542 125.125H22.4583C15.3711 125.125 9.625 119.379 9.625 112.292V41.7083C9.625 34.6211 15.3711 28.875 22.4583 28.875H131.542C138.629 28.875 144.375 34.6211 144.375 41.7083V112.292Z" fill="#1565C0"/>
<path d="M48.7218 60.9583L40.2967 86.086C40.2967 86.086 38.1567 75.4568 37.945 74.1221C33.1485 63.1785 26.0709 63.7881 26.0709 63.7881L34.4126 96.25V96.2436H44.5541L58.5778 60.9583H48.7218ZM56.7522 96.25H65.9633L71.533 60.9583H62.2064L56.7522 96.25ZM121.942 60.9583H112.25L97.1387 96.25H106.289L108.175 91.2097H119.713L120.694 96.25H129.078L121.942 60.9583ZM110.729 84.469L115.744 71.132L118.368 84.469H110.729ZM84.6005 71.2443C84.6005 69.3 86.1983 67.8531 90.7798 67.8531C93.7571 67.8531 97.1676 70.0155 97.1676 70.0155L98.6627 62.6074C98.6627 62.6074 94.3058 60.9551 90.029 60.9551C80.3431 60.9551 75.3477 65.588 75.3477 71.4528C75.3477 82.0596 88.1137 80.6062 88.1137 86.0539C88.1137 86.9876 87.3725 89.1468 82.0563 89.1468C76.7241 89.1468 73.2045 87.1929 73.2045 87.1929L71.6164 94.3026C71.6164 94.3026 75.0269 96.2468 81.6168 96.2468C88.2228 96.2468 97.3858 91.306 97.3858 84.2091C97.3858 75.6718 84.6005 75.0558 84.6005 71.2443Z" fill="white"/>
<path d="M39.1802 80.0319L36.0809 64.7987C36.0809 64.7987 34.6789 61.4973 31.0342 61.4973C27.3895 61.4973 16.7892 61.4973 16.7892 61.4973C16.7892 61.4973 34.9516 66.8616 39.1802 80.0319Z" fill="#FFC107"/>
</svg>
